<svg xmlns="http://www.w3.org/2000/svg" xmlns:xlink="http://www.w3.org/1999/xlink" viewBox="0 0 299.94 39.32"><defs><style>.a{fill:url(#a);}.b{fill:url(#b);}.c{fill:url(#c);}.d{fill:url(#d);}.e{fill:url(#e);}.f{fill:none;}.g{fill:#3baae2;}.h{fill:#d81927;}.i{clip-path:url(#f);}.j{clip-path:url(#g);}.k{clip-path:url(#i);}.l{mask:url(#j);}.m{fill:url(#k);}.n{opacity:0.69;}.o{clip-path:url(#m);}.p{clip-path:url(#n);}.q{mask:url(#o);}.r{fill:url(#p);}.s{clip-path:url(#q);}.t{clip-path:url(#r);}.u{clip-path:url(#s);}.v{clip-path:url(#v);}.w{clip-path:url(#w);}.x{mask:url(#x);}.y{fill:url(#y);}.z{clip-path:url(#z);}.aa{mask:url(#aa);}.ab{fill:url(#ab);}.ac{clip-path:url(#ac);}.ad{clip-path:url(#ad);}.ae{clip-path:url(#ae);}.af{clip-path:url(#ah);}.ag{clip-path:url(#ai);}.ah{mask:url(#aj);}.ai{fill:url(#ak);}</style><radialGradient id="a" cx="164.87" cy="-798.5" r="1" gradientTransform="matrix(254.5, 0, 0, -403.45, -41868.61, -322281.55)" gradientUnits="userSpaceOnUse"><stop offset="0" stop-color="#b3b3b3"/><stop offset="0.19" stop-color="#7e7e7e"/><stop offset="0.38" stop-color="#515151"/><stop offset="0.56" stop-color="#2e2e2e"/><stop offset="0.72" stop-color="#151515"/><stop offset="0.88" stop-color="#050505"/><stop offset="1"/></radialGradient><radialGradient id="b" cx="164.87" cy="-798.5" r="1" gradientTransform="matrix(175.26, -401.53, -90.55, -137.5, -100454.31, -43092.94)" gradientUnits="userSpaceOnUse"><stop offset="0" stop-color="gray"/><stop offset="0.03" stop-color="#797979"/><stop offset="0.25" stop-color="#4e4e4e"/><stop offset="0.46" stop-color="#2c2c2c"/><stop offset="0.66" stop-color="#141414"/><stop offset="0.85" stop-color="#050505"/><stop offset="1"/></radialGradient><radialGradient id="c" cx="164.87" cy="-798.5" r="1" gradientTransform="matrix(175.26, -401.53, -90.55, -137.5, -100861.72, -43092.94)" xlink:href="#b"/><radialGradient id="d" cx="164.87" cy="-798.5" gradientTransform="matrix(369.15, 0, 0, -545, -60412.36, -435341.17)" xlink:href="#a"/><radialGradient id="e" cx="164.87" cy="-798.5" r="1" gradientTransform="matrix(175.26, -401.53, -90.55, -137.5, -100454.31, -43531.38)" xlink:href="#b"/><clipPath id="f"><rect class="f" x="349.69" y="163.04" width="385.56" height="385.56"/></clipPath><clipPath id="g"><rect class="f" x="89.98" y="-125.63" width="679.38" height="731.94"/></clipPath><clipPath id="i"><path class="f" d="M90-125.63v403h.26c140.46,0,254.34-180.36,254.5-403Z"/></clipPath><mask id="j" x="89.98" y="-125.63" width="254.77" height="402.96" maskUnits="userSpaceOnUse"><rect class="a" x="89.98" y="-125.63" width="254.77" height="402.96"/></mask><radialGradient id="k" cx="164.87" cy="-798.5" r="1" gradientTransform="matrix(254.5, 0, 0, -403.45, -41868.61, -322281.55)" gradientUnits="userSpaceOnUse"><stop offset="0" stop-color="#1644bd"/><stop offset="0.15" stop-color="#1644af"/><stop offset="0.47" stop-color="#164496"/><stop offset="0.76" stop-color="#164486"/><stop offset="1" stop-color="#164481"/></radialGradient><clipPath id="m"><rect class="f" x="543.53" y="76.28" width="394.62" height="849.07"/></clipPath><clipPath id="n"><path class="f" d="M565.58,902.34c-50-75.94-12.08-317.27,84.71-539s215.8-340,265.81-264,12.08,317.27-84.71,539-215.8,340-265.81,264"/></clipPath><mask id="o" x="264.91" y="-388.1" width="951.86" height="1777.83" maskUnits="userSpaceOnUse"><polygon class="b" points="264.91 597.63 695.16 -388.1 1216.77 403.99 786.52 1389.72 264.91 597.63"/></mask><radialGradient id="p" cx="164.87" cy="-798.5" r="1" gradientTransform="matrix(175.26, -401.53, -90.55, -137.5, -100454.31, -43092.94)" gradientUnits="userSpaceOnUse"><stop offset="0" stop-color="#9b1b43"/><stop offset="1" stop-color="#9b1b43"/></radialGradient><clipPath id="q"><circle class="f" cx="135.06" cy="355.82" r="192.78"/></clipPath><clipPath id="r"><rect class="f" x="-57.72" y="163.04" width="385.56" height="385.56"/></clipPath><clipPath id="s"><rect class="f" x="-317.43" y="-125.63" width="679.38" height="731.94"/></clipPath><clipPath id="v"><rect class="f" x="136.13" y="76.28" width="394.62" height="849.07"/></clipPath><clipPath id="w"><path class="f" d="M158.17,902.34c-50-75.94-12.07-317.27,84.72-539s215.79-340,265.8-264,12.08,317.27-84.71,539-215.8,340-265.81,264"/></clipPath><mask id="x" x="-142.5" y="-388.1" width="951.86" height="1777.83" maskUnits="userSpaceOnUse"><polygon class="c" points="-142.5 597.63 287.75 -388.1 809.36 403.99 379.11 1389.72 -142.5 597.63"/></mask><radialGradient id="y" cx="164.87" cy="-798.5" r="1" gradientTransform="matrix(175.26, -401.53, -90.55, -137.5, -100861.72, -43092.94)" xlink:href="#p"/><clipPath id="z"><path class="f" d="M79.24-125.63C89.37,116.58,206.64,315.93,362,370.45V-125.63Z"/></clipPath><mask id="aa" x="79.24" y="-125.63" width="282.72" height="496.07" maskUnits="userSpaceOnUse"><rect class="d" x="79.24" y="-125.63" width="282.72" height="496.07"/></mask><radialGradient id="ab" cx="164.87" cy="-798.5" gradientTransform="matrix(369.15, 0, 0, -545, -60412.36, -435341.17)" xlink:href="#k"/><clipPath id="ac"><circle class="f" cx="542.47" cy="-82.62" r="192.78"/></clipPath><clipPath id="ad"><rect class="f" x="349.69" y="-275.4" width="385.56" height="385.56"/></clipPath><clipPath id="ae"><rect class="f" x="89.98" y="-564.07" width="679.38" height="731.94"/></clipPath><clipPath id="ah"><rect class="f" x="543.53" y="-362.16" width="394.62" height="849.07"/></clipPath><clipPath id="ai"><path class="f" d="M565.58,463.9c-50-75.94-12.08-317.27,84.71-539s215.8-340,265.81-264,12.08,317.27-84.71,539-215.8,340-265.81,264"/></clipPath><mask id="aj" x="264.91" y="-826.54" width="951.86" height="1777.83" maskUnits="userSpaceOnUse"><polygon class="e" points="264.91 159.19 695.16 -826.54 1216.77 -34.45 786.52 951.28 264.91 159.19"/></mask><radialGradient id="ak" cx="164.87" cy="-798.5" r="1" gradientTransform="matrix(175.26, -401.53, -90.55, -137.5, -100454.31, -43531.38)" xlink:href="#p"/></defs><title>1</title><path class="g" d="M182.59,32.3a10.79,10.79,0,0,1-3.79-1.79l1.73-3.74a10.17,10.17,0,0,0,3.24,1.64,12.71,12.71,0,0,0,3.9.61,5.94,5.94,0,0,0,3.18-.66,2,2,0,0,0,1-1.78,1.88,1.88,0,0,0-1.15-1.79,15.9,15.9,0,0,0-3.59-1.07,32.28,32.28,0,0,1-4-1.14,6.32,6.32,0,0,1-2.64-1.87,5.25,5.25,0,0,1-1.1-3.51,5.92,5.92,0,0,1,1.09-3.54,6.94,6.94,0,0,1,3.11-2.37,12.27,12.27,0,0,1,4.74-.84,16.67,16.67,0,0,1,4,.48,10.76,10.76,0,0,1,3.35,1.39l-1.58,3.74a10.38,10.38,0,0,0-5.93-1.68,5.56,5.56,0,0,0-3.12.71,2.14,2.14,0,0,0-1,1.85,1.84,1.84,0,0,0,1.16,1.77,17.85,17.85,0,0,0,3.62,1.09,35.2,35.2,0,0,1,3.94,1.12,6.39,6.39,0,0,1,2.61,1.81,5,5,0,0,1,1.1,3.43,5.94,5.94,0,0,1-2.41,5,10.59,10.59,0,0,1-6.6,1.85A17.51,17.51,0,0,1,182.59,32.3Z"/><path class="g" d="M228.94,11.91l0,21h-4.38l0-2.9a7.31,7.31,0,0,1-2.76,2.15,8.53,8.53,0,0,1-3.57.76,8.29,8.29,0,0,1-6.2-2.31q-2.26-2.31-2.26-6.84V11.91h4.6V23.07a6.27,6.27,0,0,0,1.19,4.17A4.27,4.27,0,0,0,219,28.61,5,5,0,0,0,222.89,27a6.66,6.66,0,0,0,1.45-4.63V11.91Z"/><path class="g" d="M286.05,32.23a11.54,11.54,0,0,1-3.64-1.64L284.18,27a10.86,10.86,0,0,0,3.18,1.46A12.77,12.77,0,0,0,291,29q4.13,0,4.12-2.25a1.5,1.5,0,0,0-1.05-1.49,17.27,17.27,0,0,0-3.36-.8,27.37,27.37,0,0,1-4-.88,6.09,6.09,0,0,1-2.65-1.73A5,5,0,0,1,283,18.39a5.52,5.52,0,0,1,2.33-4.64A10.44,10.44,0,0,1,291.65,12a18,18,0,0,1,4,.47A11.26,11.26,0,0,1,299,13.77l-1.76,3.62a10.68,10.68,0,0,0-5.63-1.52,6,6,0,0,0-3.07.63,1.88,1.88,0,0,0-1.05,1.66,1.65,1.65,0,0,0,1.12,1.62,17.35,17.35,0,0,0,3.48.89,26.87,26.87,0,0,1,3.86.88,5.94,5.94,0,0,1,2.59,1.68,4.76,4.76,0,0,1,1.09,3.35,5.37,5.37,0,0,1-2.39,4.58,11,11,0,0,1-6.51,1.72A17.11,17.11,0,0,1,286.05,32.23Z"/><path class="g" d="M231,24.75c0,.17.07.33.1.48a4.48,4.48,0,0,0,.16.52,9.42,9.42,0,0,0,.75,1.83l.19.37a10.43,10.43,0,0,0,9.21,4.83,10.21,10.21,0,0,0,6.89-2.44l.32-.27.23-.22.05-.06,0,0c.13-.12.25-.25.37-.37a8.11,8.11,0,0,0,2.13-4.53,20.22,20.22,0,0,0,.2-2.78V6.33l-4.08,2.46V22.57a6.67,6.67,0,0,1-.14,1.19,6.28,6.28,0,0,1-1.43,2.87,6.39,6.39,0,0,1-1.53,1.28,6.54,6.54,0,0,1-3.29.88,6.17,6.17,0,0,1-5.4-3.06,6.59,6.59,0,0,1-.31-5.49,5.9,5.9,0,0,1,3.34-3.4l.17-.08h0l.24-.08a2.53,2.53,0,0,1,.33-.11l.11,0h.11a5.87,5.87,0,0,1,1.58-.21h.44a2.89,2.89,0,0,1,.49.07,2.43,2.43,0,0,1,.52.11,1.82,1.82,0,0,1,.4.11,4.19,4.19,0,0,1,.46.16l.18.07V12.36a6.63,6.63,0,0,0-1-.29,8.33,8.33,0,0,0-1.63-.16h-.44a9.82,9.82,0,0,0-4.86,1.56A10.77,10.77,0,0,0,231,24.75Z"/><path class="g" d="M253.86,14.34l-.06,18.44h4.12V12Z"/><path class="g" d="M270.16,11.91A10.44,10.44,0,1,0,280.6,22.35,10.45,10.45,0,0,0,270.16,11.91Zm0,16.73a6.29,6.29,0,1,1,6.29-6.29A6.3,6.3,0,0,1,270.16,28.64Z"/><path class="g" d="M207.75,32.87a13.67,13.67,0,0,1-6-1.33,9,9,0,0,1-3.49-3.48,8,8,0,0,1-1.1-3.13c-.1-.89-.06-10.83,0-16.1l4.27-2.5v5.58h6.48v4h-6.48v8.33a6,6,0,0,0,1.45,3.27c.84.94,3,1.62,4.84,1.78l.2,0v3.6A.74.74,0,0,0,207.75,32.87Z"/><polygon class="h" points="167.99 19.42 167.99 25.41 167.16 25.99 157.25 32.93 157.25 25.79 162.06 22.42 157.25 19.06 157.25 11.93 157.18 11.93 157.25 11.9 167.16 18.84 167.99 19.42"/><path class="g" d="M80.21,16.9a9.22,9.22,0,0,0-3.65-3.7,10.47,10.47,0,0,0-5.17-1.29,10.66,10.66,0,0,0-5.31,1.34A10,10,0,0,0,62.35,17,10.84,10.84,0,0,0,61,22.39a10.7,10.7,0,0,0,1.38,5.41,9.62,9.62,0,0,0,3.92,3.74,12.33,12.33,0,0,0,5.81,1.34c3.5,0,6.2-1.12,8-3.31l.35-.39L77,25.73l-.18.19a6.29,6.29,0,0,1-2.06,1.4,6.71,6.71,0,0,1-2.55.45,5.65,5.65,0,0,1-3.45-1,4.42,4.42,0,0,1-1.68-2.47H81.41l0-.23c.09-1.29.1-1.52.1-1.57A11.49,11.49,0,0,0,80.21,16.9ZM67,20.41a4.53,4.53,0,0,1,1.42-2.61,4.44,4.44,0,0,1,3-1,4.34,4.34,0,0,1,3,1.06,4.52,4.52,0,0,1,1.42,2.59Z"/><path class="g" d="M95.17,11.91a9.17,9.17,0,0,0-3.67.72,7.7,7.7,0,0,0-2.38,1.59V11.91H83.36v21h6V22.77a5.76,5.76,0,0,1,1.17-3.94,4,4,0,0,1,3.14-1.3,3.26,3.26,0,0,1,2.68,1.1,5.38,5.38,0,0,1,.93,3.46V32.88h6V21.18c0-3-.76-5.36-2.25-6.92A7.8,7.8,0,0,0,95.17,11.91Z"/><path class="g" d="M115.94,27.7v5.2a8.67,8.67,0,0,1-1.14,0,11,11,0,0,1-4.59-1.33,10.06,10.06,0,0,1-3.82-3.81,9,9,0,0,1-1.21-3.47c-.14-1.3,0-14.44,0-14.44l6-3.52v5.58h4.74v5h-4.74v6.55a5,5,0,0,0,1.22,2.68,4.08,4.08,0,0,0,2.59,1.4,4.4,4.4,0,0,0,.73.05h.16Z"/><polygon class="g" points="123.6 11.91 123.6 32.92 117.75 32.92 117.75 15.4 121.52 13.15 123.6 11.91 123.6 11.91"/><path class="g" d="M41.91,28.6a10.49,10.49,0,1,1,0-12.41l-4,3.83a5,5,0,1,0,0,4.74Z"/><path class="g" d="M60.82,28.59a10.49,10.49,0,1,1,0-12.4l-4,3.83a5,5,0,1,0,0,4.74Z"/><path class="g" d="M135.89,17.4a5,5,0,1,1-5,5,5,5,0,0,1,5-5m0-5.49a10.48,10.48,0,1,0,10.48,10.48,10.48,10.48,0,0,0-10.48-10.48Z"/><path class="g" d="M17.52,30.14l.24-.22.07-.08c.13-.13.26-.25.37-.38A10.33,10.33,0,0,0,21,24.53a10.39,10.39,0,0,0,.21-1.87V13.51L15.8,16.77v5.77a4.06,4.06,0,0,1-.11.92,4.94,4.94,0,0,1-1.13,2.29,4.84,4.84,0,0,1-1.22,1,5,5,0,0,1-6.89-1.71,5.22,5.22,0,0,1-.23-4.38A4.66,4.66,0,0,1,8.86,18h0l.22-.08a.38.38,0,0,1,.1,0l.36-.13h.07a5.32,5.32,0,0,1,1.63-.16,2,2,0,0,1,.35.05,3.4,3.4,0,0,1,.46.09,1.71,1.71,0,0,1,.3.09,2.6,2.6,0,0,1,.36.13,2.6,2.6,0,0,1,.34.16,2.27,2.27,0,0,1,.34.19,4,4,0,0,1,.54.38l.09.08v-6.2A7.18,7.18,0,0,0,12.41,12a8.42,8.42,0,0,0-2.11-.16,10,10,0,0,0-4.88,1.56A10.74,10.74,0,0,0,.53,24.73c0,.16.07.31.11.47s.09.36.15.55a10.19,10.19,0,0,0,.75,1.8c0,.09.09.19.14.28l0,0c3.13,5.56,11.1,6.54,15.53,2.53Z"/><path class="g" d="M19.23,30.43c-.14.16-.27.3-.43.46l-.13.15,0,0a4.12,4.12,0,0,1-.32.3l0,.05-.31.27a12.77,12.77,0,0,1-1.56,1.18h4.81v-5.3A13.65,13.65,0,0,1,19.23,30.43Z"/><g class="i"><g class="j"><g class="j"><g class="k"><g class="l"><rect class="m" x="89.98" y="-125.63" width="254.77" height="402.96"/></g></g><g class="j"><g class="n"><g class="o"><g class="p"><g class="q"><polygon class="r" points="264.91 597.63 695.16 -388.1 1216.77 403.99 786.52 1389.72 264.91 597.63"/></g></g></g></g></g></g></g></g><g class="s"><g class="t"><g class="u"><g class="u"><g class="u"><g class="n"><g class="v"><g class="w"><g class="x"><polygon class="y" points="-142.5 597.63 287.75 -388.1 809.36 403.99 379.11 1389.72 -142.5 597.63"/></g></g></g></g></g><g class="z"><g class="aa"><rect class="ab" x="79.24" y="-125.63" width="282.72" height="496.07"/></g></g></g></g></g></g><g class="ac"><g class="ad"><g class="ae"><g class="ae"><g class="ae"><g class="n"><g class="af"><g class="ag"><g class="ah"><polygon class="ai" points="264.91 159.19 695.16 -826.54 1216.77 -34.45 786.52 951.28 264.91 159.19"/></g></g></g></g></g></g></g></g></g></svg>