<svg xmlns="http://www.w3.org/2000/svg" xmlns:xlink="http://www.w3.org/1999/xlink" viewBox="0 0 32.17 32.21"><defs><style>.a{fill:url(#a);}.b{fill:url(#b);}.c{fill:url(#c);}.d{fill:none;}.e{fill:#3baae2;}.f{clip-path:url(#d);}.g{clip-path:url(#e);}.h{clip-path:url(#g);}.i{mask:url(#h);}.j{fill:url(#i);}.k{clip-path:url(#j);}.l{clip-path:url(#k);}.m{clip-path:url(#l);}.n{opacity:0.69;}.o{clip-path:url(#o);}.p{clip-path:url(#p);}.q{mask:url(#q);}.r{fill:url(#r);}.s{clip-path:url(#s);}.t{mask:url(#t);}.u{fill:url(#u);}.v{clip-path:url(#v);}.w{clip-path:url(#w);}.x{clip-path:url(#x);}</style><radialGradient id="a" cx="74.81" cy="-747.51" r="1" gradientTransform="matrix(254.5, 0, 0, -403.45, -19040.39, -301656.94)" gradientUnits="userSpaceOnUse"><stop offset="0" stop-color="#b3b3b3"/><stop offset="0.19" stop-color="#7e7e7e"/><stop offset="0.38" stop-color="#515151"/><stop offset="0.56" stop-color="#2e2e2e"/><stop offset="0.72" stop-color="#151515"/><stop offset="0.88" stop-color="#050505"/><stop offset="1"/></radialGradient><radialGradient id="b" cx="74.81" cy="-747.51" r="1" gradientTransform="matrix(175.26, -401.53, -90.55, -137.5, -80552.24, -72188.61)" gradientUnits="userSpaceOnUse"><stop offset="0" stop-color="gray"/><stop offset="0.03" stop-color="#797979"/><stop offset="0.25" stop-color="#4e4e4e"/><stop offset="0.46" stop-color="#2c2c2c"/><stop offset="0.66" stop-color="#141414"/><stop offset="0.85" stop-color="#050505"/><stop offset="1"/></radialGradient><radialGradient id="c" cx="74.81" cy="-747.51" gradientTransform="matrix(369.15, 0, 0, -545, -27260.16, -407498.45)" xlink:href="#a"/><clipPath id="d"><rect class="d" x="259.64" y="214.03" width="385.56" height="385.56"/></clipPath><clipPath id="e"><rect class="d" x="-0.07" y="-74.63" width="679.38" height="731.94"/></clipPath><clipPath id="g"><path class="d" d="M-.07-74.63v403H.19c140.46,0,254.34-180.36,254.5-402.95Z"/></clipPath><mask id="h" x="-0.07" y="-74.63" width="254.77" height="402.96" maskUnits="userSpaceOnUse"><rect class="a" x="-0.07" y="-74.63" width="254.77" height="402.96"/></mask><radialGradient id="i" cx="74.81" cy="-747.51" r="1" gradientTransform="matrix(254.5, 0, 0, -403.45, -19040.39, -301656.94)" gradientUnits="userSpaceOnUse"><stop offset="0" stop-color="#1644bd"/><stop offset="0.15" stop-color="#1644af"/><stop offset="0.47" stop-color="#164496"/><stop offset="0.76" stop-color="#164486"/><stop offset="1" stop-color="#164481"/></radialGradient><clipPath id="j"><circle class="d" cx="45.01" cy="406.81" r="192.78"/></clipPath><clipPath id="k"><rect class="d" x="-147.77" y="214.03" width="385.56" height="385.56"/></clipPath><clipPath id="l"><rect class="d" x="-407.48" y="-74.63" width="679.38" height="731.94"/></clipPath><clipPath id="o"><rect class="d" x="46.07" y="127.27" width="394.62" height="849.07"/></clipPath><clipPath id="p"><path class="d" d="M68.12,953.33c-50-75.93-12.08-317.26,84.72-539s215.79-340,265.8-264,12.08,317.27-84.71,539-215.8,340-265.81,264"/></clipPath><mask id="q" x="-232.55" y="-337.11" width="951.86" height="1777.83" maskUnits="userSpaceOnUse"><polygon class="b" points="-232.55 648.63 197.7 -337.11 719.31 454.98 289.06 1440.72 -232.55 648.63"/></mask><radialGradient id="r" cx="74.81" cy="-747.51" r="1" gradientTransform="matrix(175.26, -401.53, -90.55, -137.5, -80552.24, -72188.61)" gradientUnits="userSpaceOnUse"><stop offset="0" stop-color="#9b1b43"/><stop offset="1" stop-color="#9b1b43"/></radialGradient><clipPath id="s"><path class="d" d="M-10.81-74.63C-.68,167.57,116.59,366.93,271.9,421.44V-74.63Z"/></clipPath><mask id="t" x="-10.81" y="-74.63" width="282.72" height="496.07" maskUnits="userSpaceOnUse"><rect class="c" x="-10.81" y="-74.63" width="282.72" height="496.07"/></mask><radialGradient id="u" cx="74.81" cy="-747.51" gradientTransform="matrix(369.15, 0, 0, -545, -27260.16, -407498.45)" xlink:href="#i"/><clipPath id="v"><circle class="d" cx="452.42" cy="-31.63" r="192.78"/></clipPath><clipPath id="w"><rect class="d" x="259.64" y="-224.41" width="385.56" height="385.56"/></clipPath><clipPath id="x"><rect class="d" x="-0.07" y="-513.07" width="679.38" height="731.94"/></clipPath></defs><title>1</title><path class="e" d="M26.52,27.9l.37-.33.11-.13c.2-.19.39-.38.57-.58a15.68,15.68,0,0,0,4.26-7.52,16,16,0,0,0,.34-2.86V2.5l-8.27,5v8.81a7.44,7.44,0,0,1-.17,1.41A7.75,7.75,0,0,1,22,21.2a7.35,7.35,0,0,1-1.86,1.55A7.69,7.69,0,0,1,9.6,20.14a8,8,0,0,1-.35-6.69A7.12,7.12,0,0,1,13.3,9.36h0l.34-.12a.59.59,0,0,1,.16-.06L14.36,9l.09,0A7.6,7.6,0,0,1,17,8.74a3.33,3.33,0,0,1,.54.07,3.25,3.25,0,0,1,.69.14,2.79,2.79,0,0,1,.47.14,3.86,3.86,0,0,1,.54.19,3.65,3.65,0,0,1,.53.25,4.16,4.16,0,0,1,.51.28,7.83,7.83,0,0,1,.83.59l.13.12V1.05a10.85,10.85,0,0,0-2.47-.8A13.13,13.13,0,0,0,15.49,0,15.19,15.19,0,0,0,8.05,2.39,16.38,16.38,0,0,0,.58,19.63c0,.25.1.49.16.72s.14.56.23.84A17.21,17.21,0,0,0,2.11,24l.22.42,0,.05c4.78,8.49,17,10,23.73,3.86Z"/><path class="e" d="M29.14,28.35l-.65.69-.22.23-.05.06-.48.45-.08.07a6.1,6.1,0,0,1-.46.41,18.59,18.59,0,0,1-2.38,1.8h7.35V24A22.59,22.59,0,0,1,29.14,28.35Z"/><g class="f"><g class="g"><g class="g"><g class="h"><g class="i"><rect class="j" x="-0.07" y="-74.63" width="254.77" height="402.96"/></g></g></g></g></g><g class="k"><g class="l"><g class="m"><g class="m"><g class="m"><g class="n"><g class="o"><g class="p"><g class="q"><polygon class="r" points="-232.55 648.63 197.7 -337.11 719.31 454.98 289.06 1440.72 -232.55 648.63"/></g></g></g></g></g><g class="s"><g class="t"><rect class="u" x="-10.81" y="-74.63" width="282.72" height="496.07"/></g></g></g></g></g></g></svg>