<svg xmlns="http://www.w3.org/2000/svg" xmlns:xlink="http://www.w3.org/1999/xlink" width="847.935" height="564.776" viewBox="0 0 847.935 564.776"><defs><style>.a{fill:#140f28;}.b{fill:rgba(0,0,0,0);}.b,.c{stroke:#31bbdd;}.c,.d,.h{fill:none;}.e{fill:url(#a);}.f,.g{stroke:none;}.g{fill:#31bbdd;}</style><radialGradient id="a" cx="0.437" cy="1.073" r="0.417" gradientTransform="matrix(0.762, 0.647, -0.688, 0.81, 0.879, -0.094)" gradientUnits="objectBoundingBox"><stop offset="0" stop-color="#30b5d7" stop-opacity="0.329"/><stop offset="0.046" stop-color="#30b5d7" stop-opacity="0.129"/><stop offset="0.944" stop-color="#30b5d7" stop-opacity="0"/><stop offset="1" stop-color="#30b5d7" stop-opacity="0"/></radialGradient></defs><g transform="translate(-877.936 -298.567)"><g transform="translate(1397.536 541.175)"><g class="a" transform="translate(87.409 24.65) rotate(180)"><path class="f" d="M 0.5000060796737671 61.31877517700195 L 0.5000060796737671 33.92438888549805 L 79.46786499023438 -3.187431335449219 L 79.47877502441406 -3.192564725875854 L 79.48942565917969 -3.198209047317505 L 85.78896331787109 -6.538588523864746 L 79.22450256347656 8.250746726989746 L 79.18150329589844 8.347613334655762 L 79.18150329589844 8.453591346740723 L 79.18150329589844 24.33264923095703 L 0.5000060796737671 61.31877517700195 Z"/><path class="g" d="M 1.000003457069397 60.53125381469727 L 78.68151092529297 24.01520156860352 L 78.68151092529297 8.453584671020508 L 78.68151092529297 8.241620063781738 L 78.76749420166016 8.047890663146973 L 84.74498748779297 -5.419071197509766 L 79.72366333007813 -2.756462574005127 L 79.70235443115234 -2.745168685913086 L 79.68051910400391 -2.734909772872925 L 1.000003457069397 34.24186325073242 L 1.000003457069397 60.53125381469727 M 3.441664830461377e-06 62.10630035400391 L 3.441664830461377e-06 33.60690307617188 L 79.25518798828125 -3.639945030212402 L 86.83290100097656 -7.658097743988037 L 79.68151092529297 8.453584671020508 L 79.68151092529297 24.65010261535645 L 3.441664830461377e-06 62.10630035400391 Z"/></g></g><g transform="translate(48 315)"><line class="b" y1="270" x2="585" transform="translate(975 239)"/><g class="c" transform="translate(1093.765 459.966) rotate(-20)"><ellipse class="f" cx="53" cy="30.5" rx="53" ry="30.5"/><ellipse class="h" cx="53" cy="30.5" rx="52.5" ry="30"/></g><g class="c" transform="translate(1293.2 492.504) rotate(-20)"><ellipse class="f" cx="35.019" cy="20.153" rx="35.019" ry="20.153"/><ellipse class="h" cx="35.019" cy="20.153" rx="34.519" ry="19.653"/></g><g class="c" transform="translate(1093.765 447.966) rotate(-20)"><ellipse class="f" cx="53" cy="30.5" rx="53" ry="30.5"/><ellipse class="h" cx="53" cy="30.5" rx="52.5" ry="30"/></g><g class="c" transform="translate(1293.2 484.576) rotate(-20)"><ellipse class="f" cx="35.019" cy="20.153" rx="35.019" ry="20.153"/><ellipse class="h" cx="35.019" cy="20.153" rx="34.519" ry="19.653"/></g><g class="d" transform="matrix(0.875, 0.485, -0.485, 0.875, 1472.336, 340.432)"><path class="f" d="M0,0H235L161.671,107.453h-235Z"/><path class="g" d="M 0.5282440185546875 0.9999923706054688 L -71.43574523925781 106.4527587890625 L 161.1428985595703 106.4527587890625 L 233.1068878173828 0.9999923706054688 L 0.5282440185546875 0.9999923706054688 M 0 -7.62939453125e-06 L 235 -7.62939453125e-06 L 161.671142578125 107.4527587890625 L -73.328857421875 107.4527587890625 L 0 -7.62939453125e-06 Z"/></g><g class="d" transform="matrix(0.875, 0.485, -0.485, 0.875, 1472.336, 325.432)"><path class="f" d="M0,0H235L161.671,107.453h-235Z"/><path class="g" d="M 0.5282440185546875 0.9999923706054688 L -71.43574523925781 106.4527587890625 L 161.1428985595703 106.4527587890625 L 233.1068878173828 0.9999923706054688 L 0.5282440185546875 0.9999923706054688 M 0 -7.62939453125e-06 L 235 -7.62939453125e-06 L 161.671142578125 107.4527587890625 L -73.328857421875 107.4527587890625 L 0 -7.62939453125e-06 Z"/></g><g class="d" transform="translate(1249 236)"><path class="f" d="M0,0,88.4-42.784v180L0,180Z"/><path class="g" d="M 87.39965057373047 -41.18934631347656 L 1.000007629394531 0.6269683837890625 L 1.000007629394531 178.4050445556641 L 87.39965057373047 136.5887298583984 L 87.39965057373047 -41.18934631347656 M 88.39965057373047 -42.7843017578125 L 88.39965057373047 137.2156982421875 L 7.62939453125e-06 180 L 7.62939453125e-06 0 L 88.39965057373047 -42.7843017578125 Z"/></g><g class="d" transform="translate(1239 227)"><path class="f" d="M0,0,88.4-42.784v180L0,180Z"/><path class="g" d="M 87.39965057373047 -41.18934631347656 L 1.000007629394531 0.6269683837890625 L 1.000007629394531 178.4050445556641 L 87.39965057373047 136.5887298583984 L 87.39965057373047 -41.18934631347656 M 88.39965057373047 -42.7843017578125 L 88.39965057373047 137.2156982421875 L 7.62939453125e-06 180 L 7.62939453125e-06 0 L 88.39965057373047 -42.7843017578125 Z"/></g><g transform="translate(-89.295 84.942)"><g class="a" transform="translate(1577.204 214.324)"><path class="f" d="M 72.50990295410156 65.94977569580078 L 65.21725463867188 61.86264419555664 L 2.190395593643188 27.2631893157959 L 0.5009024739265442 26.29608917236328 L 0.5009024739265442 0.05335056036710739 L 67.63990020751953 35.97107315063477 L 67.63990020751953 38.05814743041992 L 66.54106140136719 52.41991424560547 L 66.52999114990234 52.56450271606445 L 66.59801483154297 52.69257354736328 C 68.70696258544922 56.66350173950195 71.39319610595703 63.18068695068359 72.50990295410156 65.94977569580078 Z"/><path class="g" d="M 71.50931549072266 64.81583404541016 C 70.21379852294922 61.65241241455078 67.96895599365234 56.33990097045898 66.15643310546875 52.92710494995117 L 66.02039337158203 52.67095184326172 L 66.04251098632813 52.38176345825195 L 67.13990020751953 38.03894805908203 L 67.13990020751953 36.27063751220703 L 1.000902414321899 0.8878876566886902 L 1.000902414321899 26.00618171691895 L 2.434806108474731 26.82697677612305 L 65.45402526855469 61.42221450805664 L 65.45787048339844 61.42432403564453 L 65.46170043945313 61.42647171020508 L 71.50931549072266 64.81583404541016 M 73.49850463867188 67.07700347900391 L 64.97280120849609 62.29881286621094 L 1.945802450180054 27.69930267333984 L 0.0009024536120705307 26.58600425720215 L 0.0009024536120705307 -0.7811965346336365 L 68.13990020751953 35.67150497436523 L 68.13990020751953 38.07720184326172 L 67.03960418701172 52.45805358886719 C 69.80405426025391 57.66322326660156 73.49850463867188 67.07700347900391 73.49850463867188 67.07700347900391 Z"/></g></g><path class="e" d="M0,0H692.464L800.355-231.378H107.893Z" transform="translate(927.721 531.511) rotate(-25)"/></g></g></svg>