<svg xmlns="http://www.w3.org/2000/svg" xmlns:xlink="http://www.w3.org/1999/xlink" viewBox="0 0 244.45 32.32"><defs><style>.a{fill:url(#a);}.b{fill:url(#b);}.c{fill:url(#c);}.d{fill:url(#d);}.e{fill:url(#e);}.f{fill:none;}.g{fill:#d81927;}.h{fill:#3baae2;}.i{clip-path:url(#f);}.j{clip-path:url(#g);}.k{clip-path:url(#i);}.l{mask:url(#j);}.m{fill:url(#k);}.n{opacity:0.69;}.o{clip-path:url(#m);}.p{clip-path:url(#n);}.q{mask:url(#o);}.r{fill:url(#p);}.s{clip-path:url(#q);}.t{clip-path:url(#r);}.u{clip-path:url(#s);}.v{clip-path:url(#v);}.w{clip-path:url(#w);}.x{mask:url(#x);}.y{fill:url(#y);}.z{clip-path:url(#z);}.aa{mask:url(#aa);}.ab{fill:url(#ab);}.ac{clip-path:url(#ac);}.ad{clip-path:url(#ad);}.ae{clip-path:url(#ae);}.af{clip-path:url(#ah);}.ag{clip-path:url(#ai);}.ah{mask:url(#aj);}.ai{fill:url(#ak);}</style><radialGradient id="a" cx="74.81" cy="-786.01" r="1" gradientTransform="matrix(254.5, 0, 0, -403.45, -19040.39, -317228.29)" gradientUnits="userSpaceOnUse"><stop offset="0" stop-color="#b3b3b3"/><stop offset="0.19" stop-color="#7e7e7e"/><stop offset="0.38" stop-color="#515151"/><stop offset="0.56" stop-color="#2e2e2e"/><stop offset="0.72" stop-color="#151515"/><stop offset="0.88" stop-color="#050505"/><stop offset="1"/></radialGradient><radialGradient id="b" cx="74.81" cy="-786.01" r="1" gradientTransform="matrix(175.26, -401.53, -90.55, -137.5, -83630.86, -77520.8)" gradientUnits="userSpaceOnUse"><stop offset="0" stop-color="gray"/><stop offset="0.03" stop-color="#797979"/><stop offset="0.25" stop-color="#4e4e4e"/><stop offset="0.46" stop-color="#2c2c2c"/><stop offset="0.66" stop-color="#141414"/><stop offset="0.85" stop-color="#050505"/><stop offset="1"/></radialGradient><radialGradient id="c" cx="74.81" cy="-786.01" r="1" gradientTransform="matrix(175.26, -401.53, -90.55, -137.5, -84038.26, -77520.8)" xlink:href="#b"/><radialGradient id="d" cx="74.81" cy="-786.01" gradientTransform="matrix(369.15, 0, 0, -545, -27260.16, -428519.4)" xlink:href="#a"/><radialGradient id="e" cx="74.81" cy="-786.01" r="1" gradientTransform="matrix(175.26, -401.53, -90.55, -137.5, -83630.86, -77959.24)" xlink:href="#b"/><clipPath id="f"><rect class="f" x="259.64" y="175.53" width="385.56" height="385.56"/></clipPath><clipPath id="g"><rect class="f" x="-0.07" y="-113.13" width="679.38" height="731.94"/></clipPath><clipPath id="i"><path class="f" d="M-.07-113.13v403H.19c140.46,0,254.34-180.36,254.5-402.95Z"/></clipPath><mask id="j" x="-0.07" y="-113.13" width="254.77" height="402.96" maskUnits="userSpaceOnUse"><rect class="a" x="-0.07" y="-113.13" width="254.77" height="402.96"/></mask><radialGradient id="k" cx="74.81" cy="-786.01" r="1" gradientTransform="matrix(254.5, 0, 0, -403.45, -19040.39, -317228.29)" gradientUnits="userSpaceOnUse"><stop offset="0" stop-color="#1644bd"/><stop offset="0.15" stop-color="#1644af"/><stop offset="0.47" stop-color="#164496"/><stop offset="0.76" stop-color="#164486"/><stop offset="1" stop-color="#164481"/></radialGradient><clipPath id="m"><rect class="f" x="453.48" y="88.77" width="394.62" height="849.07"/></clipPath><clipPath id="n"><path class="f" d="M475.53,914.83c-50-75.93-12.08-317.26,84.71-539s215.8-340,265.81-264,12.08,317.27-84.72,539-215.79,340-265.8,264"/></clipPath><mask id="o" x="174.86" y="-375.61" width="951.86" height="1777.83" maskUnits="userSpaceOnUse"><polygon class="b" points="174.86 610.13 605.11 -375.61 1126.72 416.48 696.47 1402.22 174.86 610.13"/></mask><radialGradient id="p" cx="74.81" cy="-786.01" r="1" gradientTransform="matrix(175.26, -401.53, -90.55, -137.5, -83630.86, -77520.8)" gradientUnits="userSpaceOnUse"><stop offset="0" stop-color="#9b1b43"/><stop offset="1" stop-color="#9b1b43"/></radialGradient><clipPath id="q"><circle class="f" cx="45.01" cy="368.31" r="192.78"/></clipPath><clipPath id="r"><rect class="f" x="-147.77" y="175.53" width="385.56" height="385.56"/></clipPath><clipPath id="s"><rect class="f" x="-407.48" y="-113.13" width="679.38" height="731.94"/></clipPath><clipPath id="v"><rect class="f" x="46.07" y="88.77" width="394.62" height="849.07"/></clipPath><clipPath id="w"><path class="f" d="M68.12,914.83c-50-75.93-12.08-317.26,84.72-539s215.79-340,265.8-264,12.08,317.27-84.71,539-215.8,340-265.81,264"/></clipPath><mask id="x" x="-232.55" y="-375.61" width="951.86" height="1777.83" maskUnits="userSpaceOnUse"><polygon class="c" points="-232.55 610.13 197.7 -375.61 719.31 416.48 289.06 1402.22 -232.55 610.13"/></mask><radialGradient id="y" cx="74.81" cy="-786.01" r="1" gradientTransform="matrix(175.26, -401.53, -90.55, -137.5, -84038.26, -77520.8)" xlink:href="#p"/><clipPath id="z"><path class="f" d="M-10.81-113.13C-.68,129.07,116.59,328.43,271.9,382.94V-113.13Z"/></clipPath><mask id="aa" x="-10.81" y="-113.13" width="282.72" height="496.07" maskUnits="userSpaceOnUse"><rect class="d" x="-10.81" y="-113.13" width="282.72" height="496.07"/></mask><radialGradient id="ab" cx="74.81" cy="-786.01" gradientTransform="matrix(369.15, 0, 0, -545, -27260.16, -428519.4)" xlink:href="#k"/><clipPath id="ac"><circle class="f" cx="452.42" cy="-70.13" r="192.78"/></clipPath><clipPath id="ad"><rect class="f" x="259.64" y="-262.91" width="385.56" height="385.56"/></clipPath><clipPath id="ae"><rect class="f" x="-0.07" y="-551.57" width="679.38" height="731.94"/></clipPath><clipPath id="ah"><rect class="f" x="453.48" y="-349.67" width="394.62" height="849.07"/></clipPath><clipPath id="ai"><path class="f" d="M475.53,476.4c-50-75.94-12.08-317.27,84.71-539s215.8-340,265.81-264,12.08,317.27-84.72,539-215.79,340-265.8,264"/></clipPath><mask id="aj" x="174.86" y="-814.05" width="951.86" height="1777.83" maskUnits="userSpaceOnUse"><polygon class="e" points="174.86 171.69 605.11 -814.05 1126.72 -21.96 696.47 963.78 174.86 171.69"/></mask><radialGradient id="ak" cx="74.81" cy="-786.01" r="1" gradientTransform="matrix(175.26, -401.53, -90.55, -137.5, -83630.86, -77959.24)" xlink:href="#p"/></defs><title>1</title><polygon class="g" points="12.9 15.75 12.9 23 11.89 23.71 -0.11 32.11 -0.11 23.46 5.71 19.39 -0.11 15.31 -0.11 6.68 -0.19 6.68 -0.11 6.64 11.89 15.05 12.9 15.75"/><path class="h" d="M124.52,12.72a11.3,11.3,0,0,0-4.43-4.48,13.42,13.42,0,0,0-12.69.07,11.81,11.81,0,0,0-4.52,4.54,13.12,13.12,0,0,0-1.65,6.53,12.83,12.83,0,0,0,1.68,6.55,11.61,11.61,0,0,0,4.74,4.52,14.79,14.79,0,0,0,7,1.63c4.25,0,7.52-1.35,9.74-4l.42-.48-4.19-4.17-.22.22a7.51,7.51,0,0,1-2.49,1.71,8.23,8.23,0,0,1-3.09.54,6.89,6.89,0,0,1-4.19-1.24,5.43,5.43,0,0,1-2-3H126l0-.28c.11-1.56.12-1.84.12-1.9A14,14,0,0,0,124.52,12.72Zm-16,4.26a5.42,5.42,0,0,1,1.73-3.16,5.36,5.36,0,0,1,3.62-1.26,5.25,5.25,0,0,1,3.57,1.28A5.51,5.51,0,0,1,119.17,17Z"/><path class="h" d="M142.63,6.72a11.3,11.3,0,0,0-4.44.86,9.23,9.23,0,0,0-2.88,1.91V6.94h-7V31.85h7.28V19.74A6.84,6.84,0,0,1,137,15a4.83,4.83,0,0,1,3.8-1.56,4,4,0,0,1,3.25,1.33,6.36,6.36,0,0,1,1.12,4.14V31.85h7.28v-14c0-3.64-.91-6.43-2.72-8.3A9.52,9.52,0,0,0,142.63,6.72Z"/><path class="h" d="M167.79,25.59v6.18a10.44,10.44,0,0,1-1.37,0,13.35,13.35,0,0,1-5.56-1.59,11.84,11.84,0,0,1-4.63-4.52,10.46,10.46,0,0,1-1.46-4.12c-.18-1.54,0-17.16,0-17.16L162,.2V7.57h5.74v6H162v7a5.86,5.86,0,0,0,1.48,3.18,4.94,4.94,0,0,0,3.14,1.66,5.07,5.07,0,0,0,.88.06h.2Z"/><polygon class="h" points="177.08 6.68 177.08 31.81 169.99 31.81 169.99 10.86 174.56 8.16 177.07 6.68 177.08 6.68"/><path class="h" d="M78.12,26.89A12.67,12.67,0,1,1,67.92,6.68a12.57,12.57,0,0,1,10.19,5.18L73.29,16.5a6.11,6.11,0,1,0,0,5.75Z"/><path class="h" d="M101,26.89A12.67,12.67,0,1,1,90.83,6.68,12.58,12.58,0,0,1,101,11.86L96.2,16.5a6.12,6.12,0,1,0,0,5.75Z"/><path class="h" d="M192,13.33a6,6,0,1,1-6.05,6,6.06,6.06,0,0,1,6.05-6m0-6.65a12.7,12.7,0,1,0,12.69,12.69A12.7,12.7,0,0,0,192,6.68Z"/><path class="h" d="M48.57,28.76l.29-.26.09-.1c.16-.15.31-.31.45-.46a12.41,12.41,0,0,0,3.38-6,13.16,13.16,0,0,0,.27-2.26V8.62l-6.56,3.94v7a6,6,0,0,1-.13,1.12A6.18,6.18,0,0,1,45,23.44a6.11,6.11,0,0,1-9.83-.83,6.34,6.34,0,0,1-.28-5.31,5.66,5.66,0,0,1,3.22-3.25h0l.27-.09.12,0,.44-.15H39a6,6,0,0,1,2-.2l.43.06a3.57,3.57,0,0,1,.55.11,2.47,2.47,0,0,1,.36.11,3.12,3.12,0,0,1,.43.15l.43.2a2.3,2.3,0,0,1,.4.23,4.88,4.88,0,0,1,.66.46l.1.1V7.47a8.65,8.65,0,0,0-2-.64,10.59,10.59,0,0,0-2.56-.18,12,12,0,0,0-5.9,1.88A13,13,0,0,0,28,22.2c0,.2.09.39.13.57a5.12,5.12,0,0,0,.19.67,12.75,12.75,0,0,0,.9,2.19c.05.11.12.22.18.33l0,0c3.79,6.73,13.44,7.92,18.82,3.06Z"/><path class="h" d="M50.65,29.12l-.52.54a2,2,0,0,1-.17.19l0,0-.39.37-.05,0-.37.32a15.13,15.13,0,0,1-1.89,1.43h5.83V25.65A18.35,18.35,0,0,1,50.65,29.12Z"/><rect class="g" x="218.74" y="24.96" width="25.39" height="7.11"/><g class="i"><g class="j"><g class="j"><g class="k"><g class="l"><rect class="m" x="-0.07" y="-113.13" width="254.77" height="402.96"/></g></g><g class="j"><g class="n"><g class="o"><g class="p"><g class="q"><polygon class="r" points="174.86 610.13 605.11 -375.61 1126.72 416.48 696.47 1402.22 174.86 610.13"/></g></g></g></g></g></g></g></g><g class="s"><g class="t"><g class="u"><g class="u"><g class="u"><g class="n"><g class="v"><g class="w"><g class="x"><polygon class="y" points="-232.55 610.13 197.7 -375.61 719.31 416.48 289.06 1402.22 -232.55 610.13"/></g></g></g></g></g><g class="z"><g class="aa"><rect class="ab" x="-10.81" y="-113.13" width="282.72" height="496.07"/></g></g></g></g></g></g><g class="ac"><g class="ad"><g class="ae"><g class="ae"><g class="ae"><g class="n"><g class="af"><g class="ag"><g class="ah"><polygon class="ai" points="174.86 171.69 605.11 -814.05 1126.72 -21.96 696.47 963.78 174.86 171.69"/></g></g></g></g></g></g></g></g></g></svg>