<?xml version="1.0" encoding="utf-8"?>
<!-- Generator: Adobe Illustrator 22.0.0, SVG Export Plug-In . SVG Version: 6.00 Build 0)  -->
<svg version="1.1" id="Layer_1" xmlns="http://www.w3.org/2000/svg" xmlns:xlink="http://www.w3.org/1999/xlink" x="0px" y="0px"
	 viewBox="0 0 1428 174" style="enable-background:new 0 0 1428 174;" xml:space="preserve">
<style type="text/css">
	.st0{fill:#161229;}
</style>
<g>
	<g transform="translate(-4.000000, 76.000000)">
		<path class="st0" d="M733.6,50.6c30.3-6,85.1-18,122.6-24.7c66.4-11.7,99.3-13.4,154.8-15.5c49.5,1,86.2,2.7,110,5
			c40.5,3.8,87.4,12.4,114.1,16.9c50.4,8.4,118.9,15.1,205.5,40l0.3,32L1.1,104L0.5,34c56.6,19.2,97.7,31.8,123.3,37.8
			C181.4,85.5,234.3,90.3,272,93.5c39.3,3.3,124.6,2.3,189-1.8c25.7-1.7,58-5.5,95.9-10.9S703.4,56.5,733.6,50.6z"/>
	</g>
</g>
</svg>
