<?xml version="1.0" encoding="utf-8"?>
<!-- Generator: Adobe Illustrator 22.0.0, SVG Export Plug-In . SVG Version: 6.00 Build 0)  -->
<svg version="1.1" id="Layer_1" xmlns="http://www.w3.org/2000/svg" xmlns:xlink="http://www.w3.org/1999/xlink" x="0px" y="0px"
	 viewBox="0 0 246.3 80.8" style="enable-background:new 0 0 246.3 80.8;" xml:space="preserve">
<style type="text/css">
	.st0{display:none;}
	.st1{display:inline;fill:#161229;}
	.st2{display:inline;}
	.st3{fill:url(#SVGID_1_);}
	.st4{fill:url(#SVGID_2_);}
	.st5{fill:url(#SVGID_3_);}
	.st6{fill:url(#SVGID_4_);}
	.st7{fill:url(#SVGID_5_);}
	.st8{fill:url(#SVGID_6_);}
</style>
<g class="st0">
	<rect x="0.5" y="0.1" class="st1" width="180" height="80"/>
	<path class="st2" d="M180,0.6v79H1v-79H180 M181-0.4H0v81h181V-0.4L181-0.4z"/>
</g>
<g>
	
		<linearGradient id="SVGID_1_" gradientUnits="userSpaceOnUse" x1="592.5538" y1="1830.6819" x2="570.741" y2="1875.4049" gradientTransform="matrix(-1 -4.201727e-03 4.201727e-03 -1 711.4252 1907.5826)">
		<stop  offset="3.414634e-02" style="stop-color:#6887B3;stop-opacity:0"/>
		<stop  offset="0.5098" style="stop-color:#6887B3"/>
		<stop  offset="0.6098" style="stop-color:#6684B0;stop-opacity:0.7959"/>
		<stop  offset="0.6921" style="stop-color:#607BA6;stop-opacity:0.628"/>
		<stop  offset="0.7681" style="stop-color:#556D94;stop-opacity:0.473"/>
		<stop  offset="0.8403" style="stop-color:#47587C;stop-opacity:0.3257"/>
		<stop  offset="0.9099" style="stop-color:#343D5D;stop-opacity:0.1838"/>
		<stop  offset="0.9765" style="stop-color:#1D1C37;stop-opacity:4.792571e-02"/>
		<stop  offset="1" style="stop-color:#140F28;stop-opacity:0"/>
	</linearGradient>
	<path class="st3" d="M115.8,69.1C115.8,69.1,115.8,69.1,115.8,69.1c-0.1,0-0.1-0.1-0.1-0.1l0.1-23.4c0-3.2,2.7-5.9,5.9-5.9
		l47.3,0.2c0.1,0,0.1,0.1,0.1,0.1c0,0.1-0.1,0.1-0.1,0.1c0,0,0,0,0,0L121.7,40c0,0,0,0,0,0c-3.1,0-5.6,2.5-5.6,5.6L116,69
		C116,69.1,115.9,69.1,115.8,69.1z"/>
</g>
<g>
	
		<linearGradient id="SVGID_2_" gradientUnits="userSpaceOnUse" x1="572.6383" y1="1852.5751" x2="563.4144" y2="1871.4869" gradientTransform="matrix(-1 -4.201727e-03 4.201727e-03 -1 711.4252 1907.5826)">
		<stop  offset="3.414634e-02" style="stop-color:#6887B3;stop-opacity:0"/>
		<stop  offset="0.5098" style="stop-color:#6887B3"/>
		<stop  offset="0.6098" style="stop-color:#6684B0;stop-opacity:0.7959"/>
		<stop  offset="0.6921" style="stop-color:#607BA6;stop-opacity:0.628"/>
		<stop  offset="0.7681" style="stop-color:#556D94;stop-opacity:0.473"/>
		<stop  offset="0.8403" style="stop-color:#47587C;stop-opacity:0.3257"/>
		<stop  offset="0.9099" style="stop-color:#343D5D;stop-opacity:0.1838"/>
		<stop  offset="0.9765" style="stop-color:#1D1C37;stop-opacity:4.792571e-02"/>
		<stop  offset="1" style="stop-color:#140F28;stop-opacity:0"/>
	</linearGradient>
	<path class="st4" d="M174.9,43.4C174.9,43.4,174.9,43.4,174.9,43.4l-47.3-0.2c-0.1,0-0.1-0.1-0.1-0.1c0-0.1,0.1-0.1,0.1-0.1
		c0,0,0,0,0,0l47.3,0.2c0.1,0,0.1,0.1,0.1,0.1C175,43.4,175,43.4,174.9,43.4z"/>
</g>
<g>
	
		<linearGradient id="SVGID_3_" gradientUnits="userSpaceOnUse" x1="-447.5529" y1="19.6546" x2="-473.2721" y2="72.3869" gradientTransform="matrix(-1.018 0 0 1 -449.0142 0)">
		<stop  offset="3.414634e-02" style="stop-color:#6887B3;stop-opacity:0"/>
		<stop  offset="0.5098" style="stop-color:#6887B3"/>
		<stop  offset="0.6098" style="stop-color:#6684B0;stop-opacity:0.7959"/>
		<stop  offset="0.6921" style="stop-color:#607BA6;stop-opacity:0.628"/>
		<stop  offset="0.7681" style="stop-color:#556D94;stop-opacity:0.473"/>
		<stop  offset="0.8403" style="stop-color:#47587C;stop-opacity:0.3257"/>
		<stop  offset="0.9099" style="stop-color:#343D5D;stop-opacity:0.1838"/>
		<stop  offset="0.9765" style="stop-color:#1D1C37;stop-opacity:4.792571e-02"/>
		<stop  offset="1" style="stop-color:#140F28;stop-opacity:0"/>
	</linearGradient>
	<path class="st5" d="M30.2,73.6c0,0-0.1,0-0.1-0.1l-2.9-4.1c0,0,0-0.1,0-0.1v-19L2.2,22c-0.1-0.1,0-0.2,0-0.2c0.1-0.1,0.2,0,0.2,0
		l24.9,28.4c0,0,0,0.1,0,0.1v19l2.9,4.1C30.3,73.5,30.3,73.6,30.2,73.6C30.2,73.6,30.2,73.6,30.2,73.6z"/>
</g>
<g>
	<linearGradient id="SVGID_4_" gradientUnits="userSpaceOnUse" x1="97.2597" y1="6.100397e-02" x2="59.9012" y2="76.6572">
		<stop  offset="3.414634e-02" style="stop-color:#6887B3;stop-opacity:0"/>
		<stop  offset="0.5098" style="stop-color:#6887B3"/>
		<stop  offset="0.6098" style="stop-color:#6684B0;stop-opacity:0.7959"/>
		<stop  offset="0.6921" style="stop-color:#607BA6;stop-opacity:0.628"/>
		<stop  offset="0.7681" style="stop-color:#556D94;stop-opacity:0.473"/>
		<stop  offset="0.8403" style="stop-color:#47587C;stop-opacity:0.3257"/>
		<stop  offset="0.9099" style="stop-color:#343D5D;stop-opacity:0.1838"/>
		<stop  offset="0.9765" style="stop-color:#1D1C37;stop-opacity:4.792571e-02"/>
		<stop  offset="1" style="stop-color:#140F28;stop-opacity:0"/>
	</linearGradient>
	<path class="st6" d="M57.7,75.6c-0.1,0-0.1-0.1-0.1-0.1V59.3c0,0,0-0.1,0-0.1l48-55c0.1-0.1,0.1-0.1,0.2,0c0.1,0.1,0.1,0.1,0,0.2
		l-48,54.9v16C57.9,75.5,57.8,75.6,57.7,75.6z"/>
</g>
<g>
	<linearGradient id="SVGID_5_" gradientUnits="userSpaceOnUse" x1="83.5249" y1="14.5949" x2="57.2521" y2="68.4619">
		<stop  offset="3.414634e-02" style="stop-color:#6887B3;stop-opacity:0"/>
		<stop  offset="0.5098" style="stop-color:#6887B3"/>
		<stop  offset="0.6098" style="stop-color:#6684B0;stop-opacity:0.7959"/>
		<stop  offset="0.6921" style="stop-color:#607BA6;stop-opacity:0.628"/>
		<stop  offset="0.7681" style="stop-color:#556D94;stop-opacity:0.473"/>
		<stop  offset="0.8403" style="stop-color:#47587C;stop-opacity:0.3257"/>
		<stop  offset="0.9099" style="stop-color:#343D5D;stop-opacity:0.1838"/>
		<stop  offset="0.9765" style="stop-color:#1D1C37;stop-opacity:4.792571e-02"/>
		<stop  offset="1" style="stop-color:#140F28;stop-opacity:0"/>
	</linearGradient>
	<path class="st7" d="M50.1,64.9C50,64.9,50,64.9,50.1,64.9c-0.2-0.1-0.2-0.2-0.1-0.2l40.7-46.5c0.1-0.1,0.1-0.1,0.2,0
		c0.1,0.1,0.1,0.1,0,0.2L50.2,64.9C50.1,64.9,50.1,64.9,50.1,64.9z"/>
</g>
<g>
	<linearGradient id="SVGID_6_" gradientUnits="userSpaceOnUse" x1="228.9666" y1="31.1523" x2="206.8943" y2="76.4073">
		<stop  offset="3.414634e-02" style="stop-color:#6887B3;stop-opacity:0"/>
		<stop  offset="0.5098" style="stop-color:#6887B3"/>
		<stop  offset="0.6098" style="stop-color:#6684B0;stop-opacity:0.7959"/>
		<stop  offset="0.6921" style="stop-color:#607BA6;stop-opacity:0.628"/>
		<stop  offset="0.7681" style="stop-color:#556D94;stop-opacity:0.473"/>
		<stop  offset="0.8403" style="stop-color:#47587C;stop-opacity:0.3257"/>
		<stop  offset="0.9099" style="stop-color:#343D5D;stop-opacity:0.1838"/>
		<stop  offset="0.9765" style="stop-color:#1D1C37;stop-opacity:4.792571e-02"/>
		<stop  offset="1" style="stop-color:#140F28;stop-opacity:0"/>
	</linearGradient>
	<path class="st8" d="M234,66.3h-47.9c-0.1,0-0.1-0.1-0.1-0.1c0-0.1,0.1-0.1,0.1-0.1H234c3.1,0,5.7-2.5,5.7-5.7V36.6
		c0-0.1,0.1-0.1,0.1-0.1s0.1,0.1,0.1,0.1v23.7C240,63.6,237.3,66.3,234,66.3z"/>
</g>
</svg>
