<?xml version="1.0" encoding="utf-8"?>
<!-- Generator: Adobe Illustrator 22.0.0, SVG Export Plug-In . SVG Version: 6.00 Build 0)  -->
<svg version="1.1" xmlns="http://www.w3.org/2000/svg" xmlns:xlink="http://www.w3.org/1999/xlink" x="0px" y="0px"
	 viewBox="0 0 120 120" style="enable-background:new 0 0 120 120;" xml:space="preserve">
<style type="text/css">
	.st0{display:none;}
	.st1{display:inline;fill:#1C1633;}
	.st2{display:inline;opacity:0.31;fill:none;stroke:#C60000;stroke-width:0.3;stroke-miterlimit:10;}
	.st3{opacity:0.32;}
	.st4{fill:#323677;}
	.st5{clip-path:url(#SVGID_2_);}
	.st6{fill:#7978B2;}
	.st7{fill:#A2A2F4;}
	.st8{fill:#7676B1;}
	.st9{fill:#686899;}
	.st10{fill:#B6B6FF;}
	.st11{opacity:0.61;clip-path:url(#SVGID_2_);fill:#0B0916;}
	.st12{fill:#363453;}
	.st13{fill:none;}
	.st14{fill:#2AB5C2;}
</style>
<g id="Layer_3" class="st0">
	<rect y="0.6" class="st1" width="120" height="120"/>
</g>
<g id="Margen" class="st0">
	<path class="st2" d="M102.8,112H17.2c-4.8,0-8.7-3.9-8.7-8.7V16.7c0-4.8,3.9-8.7,8.7-8.7h85.6c4.8,0,8.7,3.9,8.7,8.7v86.6
		C111.5,108.1,107.6,112,102.8,112z"/>
	<rect x="3.5" y="3" class="st2" width="113" height="114"/>
	<path class="st2" d="M107.8,105H12.2c-4.8,0-8.7-3.9-8.7-8.7V23.7c0-4.8,3.9-8.7,8.7-8.7h95.6c4.8,0,8.7,3.9,8.7,8.7v72.6
		C116.5,101.1,112.6,105,107.8,105z"/>
</g>
<g id="Luna">
	<g id="Luna_1_">
		<g id="brillo_1_" class="st3">
			<ellipse class="st4" cx="60" cy="60.1" rx="45" ry="44.9"/>
		</g>
		<g>
			<defs>
				<ellipse id="SVGID_1_" cx="60.5" cy="60" rx="41" ry="40.5"/>
			</defs>
			<clipPath id="SVGID_2_">
				<use xlink:href="#SVGID_1_"  style="overflow:visible;"/>
			</clipPath>
			<g id="Elipse_26_1_" class="st5">
				<ellipse class="st6" cx="59.8" cy="60.2" rx="41" ry="40.5"/>
			</g>
			<g id="Caminho_86_1_" class="st5">
				<path class="st7" d="M85.9,90.1c-0.8,0-1.5-0.4-1.8-1.1c-0.4-0.9-0.2-1.9,0.5-2.5C85,86,92,79.7,94.7,71.6
					c0.5-1.4,0.8-2.8,1.1-4.3c1.3-7.2,0.2-14.9,0.1-15c-0.2-1.1,0.6-2.2,1.7-2.3c1.1-0.2,2.2,0.6,2.4,1.7c0.1,0.3,1.3,8.5-0.2,16.3
					c-0.3,1.6-0.7,3.3-1.2,4.8c-3.2,9.6-11.3,16.7-11.8,17C86.5,90,86.2,90.1,85.9,90.1z"/>
			</g>
			<g id="Caminho_92_1_" class="st5">
				<path class="st8" d="M37.6,26.8c0,0,10.5-6.5,11.8-5.4c1,0.9-0.3,10.3-0.3,12c0,2.9-7.7,5.3-10.6,5.3c-2.9,0-5.3-2.4-5.3-5.3
					c0,0,0,0,0,0C33.2,30.5,37.6,26.8,37.6,26.8z"/>
			</g>
			<g id="Elipse_15_1_" class="st5">
				<ellipse class="st9" cx="88.4" cy="48.7" rx="5.2" ry="5.2"/>
			</g>
			<g id="Elipse_17_1_" class="st5">
				<ellipse class="st7" cx="68" cy="74.7" rx="7.6" ry="7.6"/>
			</g>
			<g id="Elipse_18_1_" class="st5">
				<ellipse class="st9" cx="61.9" cy="27.5" rx="4.3" ry="4.7"/>
			</g>
			<g id="Caminho_94_1_" class="st5">
				<path class="st9" d="M66.9,56.4c-0.3,0-0.6-0.1-0.8-0.4c-0.3-0.4-0.8-0.7-1.2-0.8c-0.5-0.1-1.1-0.1-1.6,0
					c-0.5,0.2-1.1-0.1-1.3-0.7c-0.2-0.5,0.1-1.1,0.7-1.3c0.9-0.3,1.8-0.3,2.7-0.1c0.9,0.2,1.8,0.8,2.4,1.5c0.3,0.5,0.3,1.1-0.2,1.4
					C67.3,56.3,67.1,56.4,66.9,56.4z"/>
			</g>
			<g id="Elipse_19_1_" class="st5">
				<ellipse class="st9" cx="47.7" cy="39.8" rx="3.3" ry="3.8"/>
			</g>
			<g id="Elipse_20_1_" class="st5">
				<ellipse class="st6" cx="55.7" cy="62.9" rx="1.9" ry="1.4"/>
			</g>
			<g id="Elipse_21_1_" class="st5">
				<ellipse class="st9" cx="78" cy="37.4" rx="1.4" ry="1.4"/>
			</g>
			<g id="Elipse_22_1_" class="st5">
				<ellipse class="st6" cx="37.8" cy="55.8" rx="1.9" ry="1.9"/>
			</g>
			<g id="Elipse_23_1_" class="st5">
				<ellipse class="st6" cx="60.5" cy="72.9" rx="1.9" ry="1.9"/>
			</g>
			<g id="Elipse_24_1_" class="st5">
				<ellipse class="st7" cx="50.1" cy="87.5" rx="2.8" ry="2.4"/>
			</g>
			<g id="Elipse_25_1_" class="st5">
				<ellipse class="st10" cx="24.5" cy="62.5" rx="1.9" ry="1.9"/>
			</g>
			<path class="st11" d="M45.7,21.3c0,0-13.3,19.6-7.5,43.3s33.9,34.8,33.9,34.8l-6.7,10l-36.3,2.5L-0.3,58.1L15.8,31L45.7,21.3z"/>
			<g id="Elipse_12_1_" class="st5">
				<g>
					<ellipse class="st12" cx="39.3" cy="65.5" rx="7.6" ry="7.1"/>
				</g>
			</g>
		</g>
		<g id="Elipse_11_1_" transform="translate(5.516 5.516)">
			<g>
				<ellipse class="st13" cx="54.5" cy="54.6" rx="41.2" ry="41.1"/>
			</g>
			<g>
				<path class="st14" d="M54.5,95.7c-22.7,0-41.2-18.4-41.2-41.1s18.5-41.1,41.2-41.1s41.2,18.4,41.2,41.1S77.2,95.7,54.5,95.7z
					 M54.5,14.1C32.2,14.1,14,32.3,14,54.6S32.2,95,54.5,95C76.8,95,95,76.9,95,54.6S76.8,14.1,54.5,14.1z"/>
			</g>
		</g>
	</g>
	<g id="Elipse_17_2_">
		<path class="st7" d="M43.5,39.7c2-0.4,3.7,1.3,3.3,3.3c-0.2,1.1-1.1,2-2.2,2.2c-2,0.4-3.7-1.3-3.3-3.3
			C41.5,40.8,42.4,39.9,43.5,39.7z"/>
	</g>
</g>
</svg>
