<?xml version="1.0" encoding="utf-8"?>
<!-- Generator: Adobe Illustrator 22.0.0, SVG Export Plug-In . SVG Version: 6.00 Build 0)  -->
<svg version="1.1" xmlns="http://www.w3.org/2000/svg" xmlns:xlink="http://www.w3.org/1999/xlink" x="0px" y="0px"
	 viewBox="0 0 120 120" style="enable-background:new 0 0 120 120;" xml:space="preserve">
<style type="text/css">
	.st0{display:none;}
	.st1{display:inline;fill:#1C1633;}
	.st2{display:inline;}
	.st3{fill:#B13928;}
	.st4{fill:#EAC43B;}
	.st5{fill:#FFFFFF;}
	.st6{display:inline;opacity:0.31;fill:none;stroke:#C60000;stroke-width:0.3;stroke-miterlimit:10;}
	.st7{opacity:0.49;fill:#323D85;}
	.st8{clip-path:url(#SVGID_2_);}
	.st9{fill:#992E23;}
	.st10{clip-path:url(#SVGID_2_);fill:#C12D21;}
	.st11{clip-path:url(#SVGID_2_);fill:#9E2619;}
	.st12{clip-path:url(#SVGID_2_);fill:#D85F35;}
	.st13{fill:#D85F35;}
	.st14{clip-path:url(#SVGID_2_);fill:#D68227;}
	.st15{clip-path:url(#SVGID_2_);fill:#992E23;}
	.st16{opacity:0.61;clip-path:url(#SVGID_2_);fill:#0B0916;}
	.st17{display:none;clip-path:url(#SVGID_2_);fill:none;stroke:#D85F35;stroke-miterlimit:10;}
	.st18{clip-path:url(#SVGID_2_);fill:#FFFFFF;}
	.st19{fill:none;}
	.st20{fill:#2EB4D5;}
</style>
<g id="bk" class="st0">
	<rect class="st1" width="120" height="120"/>
</g>
<g id="Margen" class="st0">
	<path class="st6" d="M102.8,112H17.2c-4.8,0-8.7-3.9-8.7-8.7V16.7c0-4.8,3.9-8.7,8.7-8.7h85.6c4.8,0,8.7,3.9,8.7,8.7v86.6
		C111.5,108.1,107.6,112,102.8,112z"/>
	<rect x="3.5" y="3" class="st6" width="113" height="114"/>
	<path class="st6" d="M107.8,105H12.2c-4.8,0-8.7-3.9-8.7-8.7V23.7c0-4.8,3.9-8.7,8.7-8.7h95.6c4.8,0,8.7,3.9,8.7,8.7v72.6
		C116.5,101.1,112.6,105,107.8,105z"/>
</g>
<g id="Marte">
	<g id="Marte_1_">
		<g id="brillo-2_1_">
			<ellipse class="st7" cx="60" cy="59.8" rx="45" ry="44.9"/>
		</g>
		<g>
			<defs>
				<ellipse id="SVGID_1_" cx="59.7" cy="59.8" rx="40.8" ry="40.4"/>
			</defs>
			<clipPath id="SVGID_2_">
				<use xlink:href="#SVGID_1_"  style="overflow:visible;"/>
			</clipPath>
			<g id="Elipse_26_2_" class="st8">
				<ellipse class="st9" cx="59.7" cy="59.8" rx="40.8" ry="40.7"/>
			</g>
			<path class="st10" d="M110.1,97.1L79.4,80.4c-2.5-1.4-3.5-4.5-2.1-7.1l0,0c1.4-2.5,4.5-3.5,7.1-2.1L115,88
				c2.5,1.4,3.5,4.5,2.1,7.1l0,0C115.7,97.6,112.6,98.5,110.1,97.1z"/>
			<path class="st10" d="M99.5,62.1L68.8,45.4c-2.5-1.4-3.5-4.5-2.1-7.1v0c1.4-2.5,4.5-3.5,7.1-2.1L104.5,53
				c2.5,1.4,3.5,4.5,2.1,7.1v0C105.2,62.5,102.1,63.5,99.5,62.1z"/>
			<path class="st11" d="M49.3,103.3L18.6,86.6c-2.5-1.4-3.5-4.5-2.1-7.1l0,0c1.4-2.5,4.5-3.5,7.1-2.1l30.7,16.7
				c2.5,1.4,3.5,4.5,2.1,7.1l0,0C55,103.8,51.8,104.7,49.3,103.3z"/>
			<path class="st12" d="M80,32.3l-13.9-7.6c-2.5-1.4-3.5-4.5-2.1-7.1l0,0c1.4-2.5,4.5-3.5,7.1-2.1L85,23.2c2.5,1.4,3.5,4.5,2.1,7.1
				l0,0C85.7,32.7,82.5,33.7,80,32.3z"/>
			<circle class="st12" cx="74.5" cy="59.8" r="5.8"/>
			<g id="Elipse_25_1_" class="st8">
				<ellipse class="st13" cx="45.5" cy="93.7" rx="1.9" ry="1.9"/>
			</g>
			<path class="st10" d="M44.1,32.1l-10.2-5.6c-2.5-1.4-3.5-4.5-2.1-7.1l0,0c1.4-2.5,4.5-3.5,7.1-2.1l10.2,5.6
				c2.5,1.4,3.5,4.5,2.1,7.1l0,0C49.8,32.5,46.6,33.4,44.1,32.1z"/>
			<circle class="st14" cx="99" cy="65.8" r="4.3"/>
			<path class="st12" d="M29.5,48.5L-1.2,31.8c-2.5-1.4-3.5-4.5-2.1-7.1l0,0c1.4-2.5,4.5-3.5,7.1-2.1l30.7,16.7
				c2.5,1.4,3.5,4.5,2.1,7.1l0,0C35.2,49,32,49.9,29.5,48.5z"/>
			<path class="st12" d="M70.4,87.4L46.3,74.3c-1.7-0.9-2.3-3.1-1.4-4.7h0c0.9-1.7,3.1-2.3,4.7-1.4l24.1,13.1
				c1.7,0.9,2.3,3.1,1.4,4.7l0,0C74.2,87.7,72.1,88.3,70.4,87.4z"/>
			<path class="st12" d="M37.4,87.6L13.3,74.5c-1.7-0.9-2.3-3.1-1.4-4.7l0,0c0.9-1.7,3.1-2.3,4.7-1.4l24.1,13.1
				c1.7,0.9,2.3,3.1,1.4,4.7l0,0C41.3,87.9,39.1,88.6,37.4,87.6z"/>
			<path class="st15" d="M61.1,61.9L34.3,47.2c-1.7-0.9-2.3-3.1-1.4-4.7l0,0c0.9-1.7,3.1-2.3,4.7-1.4l26.9,14.6
				c1.7,0.9,2.3,3.1,1.4,4.7v0C65,62.2,62.8,62.8,61.1,61.9z"/>
			<path class="st12" d="M42.1,43.9L15.2,29.3c-1.7-0.9-2.3-3.1-1.4-4.7l0,0c0.9-1.7,3.1-2.3,4.7-1.4l26.9,14.6
				c1.7,0.9,2.3,3.1,1.4,4.7l0,0C45.9,44.2,43.8,44.8,42.1,43.9z"/>
			<path class="st12" d="M41.9,59.3L15.1,44.6c-1.7-0.9-2.3-3.1-1.4-4.7l0,0c0.9-1.7,3.1-2.3,4.7-1.4l26.9,14.6
				c1.7,0.9,2.3,3.1,1.4,4.7l0,0C45.8,59.6,43.6,60.2,41.9,59.3z"/>
			<path class="st12" d="M28.4,72.3L4.3,59.2c-1.7-0.9-2.3-3.1-1.4-4.7l0,0c0.9-1.7,3.1-2.3,4.7-1.4l24.1,13.1
				c1.7,0.9,2.3,3.1,1.4,4.7l0,0C32.2,72.6,30.1,73.2,28.4,72.3z"/>
			<path class="st16" d="M51.8,18.7c0,0-13.3,19.6-7.5,43.3s33.9,34.8,33.9,34.8l-6.7,10l-36.3,2.5L5.8,55.6l16.1-27.1L51.8,18.7z"
				/>
			<path class="st17" d="M21.3,48l-3.5,8.2l1.1,3.6l12,5.9c1.6,0.8,2.8,1.8,2.8,3.5c0,2-1.6,3.6-3.6,3.6c-0.9,0-1.5-0.4-2.3-0.8
				c0,0,0,0,0,0l-10.6-5.8l-1.3,2.2l23.8,12.5c1.4,0.8,2.7,1.8,2.7,3.5c0,2-1.6,3.6-3.6,3.6c-0.9,0-1.6-0.4-2.4-0.9L16.5,76
				c0,0-3.6-13.8-3.6-14.5s4.3-23,4.3-23l8.1-8h6l13.1,6.8c1.5,0.7,3,1.8,3,3.5c0,2-1.6,3.6-3.6,3.6c-0.6,0-1.2-0.2-1.7-0.4
				c0,0,0,0,0,0l-6.1-3.1L33,46.5l10.9,5.8c1.6,0.8,3.1,1.7,3.1,3.5c0,2-1.6,3.6-3.6,3.6c-0.5,0-1-0.1-1.4-0.3L21.3,48z"/>
			<circle class="st18" cx="87.5" cy="46.1" r="4.1"/>
		</g>
		<g id="Elipse_11_1_" transform="translate(5.516 5.516)">
			<g>
				<ellipse class="st19" cx="54.5" cy="54.3" rx="41.2" ry="41.1"/>
			</g>
			<g>
				<path class="st20" d="M54.5,95.5c-22.7,0-41.2-18.4-41.2-41.1s18.5-41.1,41.2-41.1s41.2,18.4,41.2,41.1S77.2,95.5,54.5,95.5z
					 M54.5,13.9C32.2,13.9,14,32,14,54.3s18.2,40.4,40.5,40.4C76.8,94.8,95,76.6,95,54.3S76.8,13.9,54.5,13.9z"/>
			</g>
		</g>
	</g>
</g>
<g id="Layer_4">
</g>
</svg>
