<?xml version="1.0" encoding="utf-8"?>
<!-- Generator: Adobe Illustrator 22.0.0, SVG Export Plug-In . SVG Version: 6.00 Build 0)  -->
<svg version="1.1" xmlns="http://www.w3.org/2000/svg" xmlns:xlink="http://www.w3.org/1999/xlink" x="0px" y="0px"
	 viewBox="0 0 1350 450" style="enable-background:new 0 0 1350 450;" xml:space="preserve">
<style type="text/css">
	.st0{display:none;fill:#38557C;}
	.st1{fill:url(#SVGID_1_);}
	.st2{fill:url(#SVGID_2_);}
	.st3{fill:#C04E37;}
	.st4{fill:#F16750;}
	.st5{fill:#46C4E2;}
	.st6{fill:#38557C;}
	.st7{fill:url(#SVGID_3_);}
	.st8{fill:url(#SVGID_4_);}
	.st9{fill:#161229;}
	.st10{fill:#F16240;}
	.st11{display:none;fill:#4FC6DF;}
	.st12{display:none;}
	.st13{display:inline;fill:#F15F4B;}
	.st14{display:inline;}
	.st15{fill:#FCDDD9;}
	.st16{fill:none;stroke:#38557C;stroke-miterlimit:10;}
	.st17{fill:#E5E5E4;}
	.st18{fill:url(#lado_izquierdo_1_);}
	.st19{fill:url(#SVGID_5_);}
	.st20{fill:url(#SVGID_6_);}
	.st21{fill:url(#sombra_2_1_);}
	.st22{fill:#7B3021;}
	.st23{fill:url(#SVGID_7_);}
	.st24{fill:url(#lado_izquierdo_2_);}
	.st25{fill:#003655;}
	.st26{fill:url(#SVGID_8_);}
	.st27{fill:#39557C;}
	.st28{fill:#B13928;}
	.st29{fill:#EAC43B;}
	.st30{fill:#FFFFFF;}
	.st31{fill:#2386A1;}
	.st32{fill:none;}
	.st33{fill:#2EB4D5;}
	.st34{fill:#182640;}
	.st35{opacity:0.41;}
	.st36{fill:#323D85;}
	.st37{fill:#1B1532;}
	.st38{fill:#2E2749;}
	.st39{fill:#28203F;}
	.st40{fill:#3D3652;}
	.st41{opacity:0.32;}
	.st42{fill:#323677;}
	.st43{clip-path:url(#SVGID_10_);}
	.st44{fill:#7978B2;}
	.st45{fill:#A2A2F4;}
	.st46{fill:#7676B1;}
	.st47{fill:#686899;}
	.st48{fill:#B6B6FF;}
	.st49{opacity:0.61;clip-path:url(#SVGID_10_);fill:#0B0916;}
	.st50{fill:#363453;}
	.st51{fill:#2AB5C2;}
	.st52{fill:#140F28;}
	.st53{fill:#2487A1;}
	.st54{fill:#30B5D7;}
	.st55{fill:#01586E;}
	.st56{fill:#D8D8D8;}
	.st57{opacity:0.14;}
	.st58{clip-path:url(#SVGID_12_);}
	.st59{opacity:0.41;clip-path:url(#SVGID_14_);}
	.st60{fill:#299426;}
	.st61{fill:#1D661A;}
	.st62{fill:#185716;}
	.st63{fill:#1C1633;}
	.st64{fill:#282140;}
	.st65{fill:#1A85A1;}
	.st66{fill:#B23828;}
	.st67{fill:#6E2527;}
	.st68{fill:#FFC05C;}
	.st69{fill:#D1D1D1;}
	.st70{fill:#C7C7C7;}
	.st71{fill:#F5F5F5;}
	.st72{fill:#FFBF80;}
	.st73{fill:#4369A8;}
	.st74{fill:#B0392A;}
	.st75{fill:#912F23;}
	.st76{fill:#4754A8;}
	.st77{fill:#2C3878;}
	.st78{fill:#384285;}
	.st79{clip-path:url(#SVGID_16_);}
	
		.st80{clip-path:url(#SVGID_16_);fill:none;stroke:#F7931E;stroke-width:0.4;stroke-linecap:round;stroke-linejoin:round;stroke-miterlimit:10;}
	.st81{clip-path:url(#SVGID_16_);fill:#7978B2;}
	.st82{clip-path:url(#SVGID_16_);fill:#7676B1;}
	.st83{fill:#5E53B3;}
	.st84{fill:#5E53B3;stroke:#F7931E;stroke-width:0.4;stroke-linecap:round;stroke-linejoin:round;stroke-miterlimit:10;}
	.st85{fill:#545FA8;}
	.st86{fill:#293270;}
	.st87{fill:none;stroke:#FFFFFF;stroke-width:0.11;stroke-linecap:round;stroke-linejoin:round;stroke-miterlimit:10;}
	.st88{display:none;opacity:0.61;clip-path:url(#SVGID_16_);fill:#0B0916;}
	.st89{fill:url(#SVGID_17_);}
	.st90{fill:#596289;}
	.st91{fill:#242D42;}
	.st92{opacity:0.29;}
	.st93{fill:#263265;}
	.st94{opacity:0.28;}
	.st95{fill:#08154F;}
	.st96{fill:#23889F;}
	.st97{fill:#47517D;}
	.st98{fill:#2E396B;}
	.st99{opacity:0.44;}
	.st100{fill:#0A1851;}
	.st101{opacity:0.46;}
	.st102{fill:#D8DCEA;}
	.st103{fill:#BABECE;}
	.st104{fill:#000E4A;}
	.st105{fill:#D91720;}
	.st106{fill:url(#SVGID_18_);}
	.st107{opacity:0.44;clip-path:url(#SVGID_20_);}
	.st108{opacity:0.46;clip-path:url(#SVGID_20_);}
	.st109{fill:#4C5375;}
	.st110{fill:#272C3D;}
	.st111{opacity:0.44;clip-path:url(#SVGID_22_);}
	.st112{opacity:0.67;clip-path:url(#SVGID_22_);}
	.st113{opacity:0.46;clip-path:url(#SVGID_22_);}
	.st114{fill:#2C3142;}
	.st115{fill:#525C85;}
	.st116{opacity:0.44;clip-path:url(#SVGID_24_);}
	.st117{opacity:0.46;clip-path:url(#SVGID_24_);}
	.st118{fill:#0F0F0F;}
	.st119{fill:#555E7F;}
	.st120{opacity:0.79;}
	.st121{opacity:0.44;clip-path:url(#SVGID_26_);}
	.st122{opacity:0.46;clip-path:url(#SVGID_26_);}
	.st123{opacity:0.49;fill:#323D85;}
	.st124{clip-path:url(#SVGID_28_);}
	.st125{fill:#992E23;}
	.st126{clip-path:url(#SVGID_28_);fill:#C12D21;}
	.st127{clip-path:url(#SVGID_28_);fill:#9E2619;}
	.st128{clip-path:url(#SVGID_28_);fill:#D85F35;}
	.st129{fill:#D85F35;}
	.st130{clip-path:url(#SVGID_28_);fill:#D68227;}
	.st131{clip-path:url(#SVGID_28_);fill:#992E23;}
	.st132{opacity:0.61;clip-path:url(#SVGID_28_);fill:#0B0916;}
	.st133{display:none;clip-path:url(#SVGID_28_);fill:none;stroke:#D85F35;stroke-miterlimit:10;}
	.st134{clip-path:url(#SVGID_28_);fill:#FFFFFF;}
	.st135{opacity:0.54;fill:#061A78;stroke:#FFFFFF;stroke-miterlimit:10;}
	.st136{fill:none;stroke:#2EB4D5;stroke-miterlimit:10;}
	.st137{fill:#3B4CA0;}
	.st138{clip-path:url(#SVGID_30_);}
	.st139{clip-path:url(#SVGID_30_);fill:#C12D21;}
	.st140{clip-path:url(#SVGID_30_);fill:#9E2619;}
	.st141{clip-path:url(#SVGID_30_);fill:#D85F35;}
	.st142{clip-path:url(#SVGID_30_);fill:#D68227;}
	.st143{clip-path:url(#SVGID_30_);fill:#992E23;}
	.st144{opacity:0.61;clip-path:url(#SVGID_30_);fill:#0B0916;}
	.st145{display:none;clip-path:url(#SVGID_30_);fill:none;stroke:#D85F35;stroke-miterlimit:10;}
	.st146{clip-path:url(#SVGID_30_);fill:#FFFFFF;}
	.st147{clip-path:url(#SVGID_32_);}
	.st148{fill:#09213D;}
	.st149{fill:url(#SVGID_33_);}
	.st150{opacity:0.18;fill:url(#SVGID_34_);}
	.st151{opacity:0.1;fill:url(#SVGID_35_);}
	.st152{opacity:8.000000e-02;fill:url(#SVGID_36_);}
	.st153{opacity:8.000000e-02;fill:url(#SVGID_37_);}
	.st154{fill:url(#SVGID_38_);}
	.st155{fill:url(#SVGID_39_);}
	.st156{fill:#593E9C;}
	.st157{fill:#5867B0;}
	.st158{fill:#301B75;}
	.st159{fill:url(#SVGID_40_);}
	.st160{opacity:0.22;fill:#40BD9F;}
	.st161{fill:#35599C;}
	.st162{opacity:0.22;fill:url(#SVGID_41_);}
	.st163{fill:#201B52;}
	.st164{clip-path:url(#SVGID_43_);fill:#2E2866;}
	.st165{clip-path:url(#SVGID_43_);fill:#201B52;}
	.st166{opacity:0.67;fill:url(#SVGID_44_);}
	.st167{opacity:0.22;fill:url(#SVGID_45_);}
	.st168{clip-path:url(#SVGID_47_);fill:#2E2866;}
	.st169{clip-path:url(#SVGID_47_);fill:#201B52;}
	.st170{opacity:0.67;fill:url(#SVGID_48_);}
	.st171{fill:#63293F;}
	.st172{opacity:0.72;}
	.st173{fill:url(#SVGID_49_);}
	.st174{opacity:0.43;fill:url(#SVGID_50_);}
	.st175{fill:#0D1F33;}
	.st176{opacity:0.47;}
	.st177{fill:#241A66;}
	.st178{fill:#269494;}
	.st179{fill:#165754;}
	.st180{opacity:0.85;}
	.st181{opacity:0.74;}
	.st182{opacity:0.63;}
	.st183{fill:url(#SVGID_51_);}
	.st184{fill:#7F2040;}
	.st185{fill:#85281E;}
	.st186{fill:#821548;}
	.st187{fill:url(#SVGID_52_);}
	.st188{fill:#801823;}
	.st189{fill:#451410;}
	.st190{fill:#420939;}
	.st191{fill:url(#SVGID_53_);}
	.st192{fill:#451010;}
	.st193{fill:#380622;}
	.st194{fill:url(#SVGID_54_);}
	.st195{fill:url(#SVGID_55_);}
	.st196{opacity:0.22;fill:url(#SVGID_56_);}
	.st197{fill:#00EFD7;}
	.st198{fill:url(#SVGID_57_);}
	.st199{opacity:0.67;fill:url(#SVGID_58_);}
	.st200{clip-path:url(#SVGID_60_);fill:#2E2866;}
	.st201{clip-path:url(#SVGID_60_);fill:#201B52;}
	.st202{clip-path:url(#SVGID_62_);fill:#2E2866;}
	.st203{clip-path:url(#SVGID_62_);fill:#201B52;}
	.st204{clip-path:url(#SVGID_64_);fill:#2E2866;}
	.st205{clip-path:url(#SVGID_64_);fill:#201B52;}
	.st206{clip-path:url(#SVGID_66_);fill:#2E2866;}
	.st207{clip-path:url(#SVGID_66_);fill:#201B52;}
	.st208{clip-path:url(#SVGID_68_);fill:#2E2866;}
	.st209{clip-path:url(#SVGID_68_);fill:#201B52;}
	.st210{opacity:0.22;fill:url(#SVGID_69_);}
	.st211{fill:url(#SVGID_70_);}
	.st212{opacity:0.22;fill:url(#SVGID_71_);}
	.st213{clip-path:url(#SVGID_73_);fill:#2E2866;}
	.st214{clip-path:url(#SVGID_73_);fill:#201B52;}
	.st215{clip-path:url(#SVGID_75_);fill:#2E2866;}
	.st216{clip-path:url(#SVGID_75_);fill:#201B52;}
	.st217{clip-path:url(#SVGID_77_);fill:#2E2866;}
	.st218{clip-path:url(#SVGID_77_);fill:#201B52;}
	.st219{clip-path:url(#SVGID_79_);fill:#2E2866;}
	.st220{clip-path:url(#SVGID_79_);fill:#201B52;}
	.st221{clip-path:url(#SVGID_81_);fill:#2E2866;}
	.st222{clip-path:url(#SVGID_81_);fill:#201B52;}
	.st223{opacity:0.67;fill:url(#SVGID_82_);}
	.st224{fill:#5C1B15;}
	.st225{fill:#73211B;}
	.st226{fill:url(#SVGID_83_);}
	.st227{fill:url(#SVGID_84_);}
	.st228{opacity:0.18;fill:url(#SVGID_85_);}
	.st229{opacity:0.1;fill:url(#SVGID_86_);}
	.st230{opacity:8.000000e-02;fill:url(#SVGID_87_);}
	.st231{opacity:8.000000e-02;fill:url(#SVGID_88_);}
	.st232{fill:url(#SVGID_89_);}
	.st233{fill:url(#SVGID_90_);}
	.st234{fill:url(#SVGID_91_);}
	.st235{opacity:0.22;fill:url(#SVGID_92_);}
	.st236{clip-path:url(#SVGID_94_);fill:#2E2866;}
	.st237{clip-path:url(#SVGID_94_);fill:#201B52;}
	.st238{opacity:0.67;fill:url(#SVGID_95_);}
	.st239{opacity:0.22;fill:url(#SVGID_96_);}
	.st240{clip-path:url(#SVGID_98_);fill:#2E2866;}
	.st241{clip-path:url(#SVGID_98_);fill:#201B52;}
	.st242{opacity:0.67;fill:url(#SVGID_99_);}
	.st243{fill:url(#SVGID_100_);}
	.st244{opacity:0.43;fill:url(#SVGID_101_);}
	.st245{fill:#59896D;}
	.st246{fill:#102F40;}
	.st247{fill:url(#SVGID_102_);}
	.st248{fill:url(#SVGID_103_);}
	.st249{fill:url(#SVGID_104_);}
	.st250{opacity:0.19;fill:#59896D;}
	.st251{fill:url(#SVGID_105_);}
	.st252{opacity:0.22;fill:url(#SVGID_106_);}
	.st253{fill:#F2F2F2;}
	.st254{opacity:0.67;fill:url(#SVGID_107_);}
	.st255{opacity:0.22;fill:url(#SVGID_108_);}
	.st256{clip-path:url(#SVGID_110_);fill:#2E2866;}
	.st257{clip-path:url(#SVGID_110_);fill:#201B52;}
	.st258{clip-path:url(#SVGID_112_);fill:#2E2866;}
	.st259{clip-path:url(#SVGID_112_);fill:#201B52;}
	.st260{clip-path:url(#SVGID_114_);fill:#2E2866;}
	.st261{clip-path:url(#SVGID_114_);fill:#201B52;}
	.st262{clip-path:url(#SVGID_116_);fill:#2E2866;}
	.st263{clip-path:url(#SVGID_116_);fill:#201B52;}
	.st264{clip-path:url(#SVGID_118_);fill:#2E2866;}
	.st265{clip-path:url(#SVGID_118_);fill:#201B52;}
	.st266{opacity:0.67;fill:url(#SVGID_119_);}
	.st267{opacity:0.67;fill:#FFFFFF;}
	.st268{opacity:0.83;fill:url(#SVGID_120_);}
	.st269{opacity:0.83;fill:url(#SVGID_121_);}
	.st270{fill:url(#SVGID_122_);}
	.st271{opacity:0.22;fill:url(#SVGID_123_);}
	.st272{clip-path:url(#SVGID_125_);fill:#2E2866;}
	.st273{clip-path:url(#SVGID_125_);fill:#201B52;}
	.st274{clip-path:url(#SVGID_127_);fill:#2E2866;}
	.st275{clip-path:url(#SVGID_127_);fill:#201B52;}
	.st276{clip-path:url(#SVGID_129_);fill:#2E2866;}
	.st277{clip-path:url(#SVGID_129_);fill:#201B52;}
	.st278{clip-path:url(#SVGID_131_);fill:#2E2866;}
	.st279{clip-path:url(#SVGID_131_);fill:#201B52;}
	.st280{clip-path:url(#SVGID_133_);fill:#2E2866;}
	.st281{clip-path:url(#SVGID_133_);fill:#201B52;}
	.st282{opacity:0.67;fill:url(#SVGID_134_);}
	.st283{fill:url(#SVGID_135_);}
	.st284{opacity:0.83;fill:url(#SVGID_136_);}
	.st285{opacity:0.83;fill:url(#SVGID_137_);}
	.st286{opacity:0.22;fill:url(#SVGID_138_);}
	.st287{opacity:0.67;fill:url(#SVGID_139_);}
	.st288{opacity:0.22;fill:url(#SVGID_140_);}
	.st289{opacity:0.42;fill:url(#SVGID_141_);}
	.st290{fill:#37889B;}
	.st291{opacity:0.22;fill:url(#SVGID_142_);}
	.st292{opacity:0.87;}
	.st293{fill:url(#SVGID_143_);}
	.st294{fill:url(#SVGID_144_);}
	.st295{fill:url(#SVGID_145_);}
	.st296{opacity:0.22;fill:url(#SVGID_146_);}
	.st297{opacity:0.67;fill:url(#SVGID_147_);}
	.st298{clip-path:url(#SVGID_149_);fill:#2E2866;}
	.st299{clip-path:url(#SVGID_149_);fill:#201B52;}
	.st300{clip-path:url(#SVGID_151_);fill:#2E2866;}
	.st301{clip-path:url(#SVGID_151_);fill:#201B52;}
	.st302{clip-path:url(#SVGID_153_);fill:#2E2866;}
	.st303{clip-path:url(#SVGID_153_);fill:#201B52;}
	.st304{clip-path:url(#SVGID_155_);fill:#2E2866;}
	.st305{clip-path:url(#SVGID_155_);fill:#201B52;}
	.st306{clip-path:url(#SVGID_157_);fill:#2E2866;}
	.st307{clip-path:url(#SVGID_157_);fill:#201B52;}
	.st308{opacity:0.39;fill:url(#SVGID_158_);}
	.st309{fill:#6A79C6;}
	.st310{opacity:0.22;fill:url(#SVGID_159_);}
	.st311{opacity:0.67;fill:url(#SVGID_160_);}
	.st312{clip-path:url(#SVGID_162_);fill:#2E2866;}
	.st313{clip-path:url(#SVGID_162_);fill:#201B52;}
	.st314{clip-path:url(#SVGID_164_);fill:#2E2866;}
	.st315{clip-path:url(#SVGID_164_);fill:#201B52;}
	.st316{clip-path:url(#SVGID_166_);fill:#2E2866;}
	.st317{clip-path:url(#SVGID_166_);fill:#201B52;}
	.st318{clip-path:url(#SVGID_168_);fill:#2E2866;}
	.st319{clip-path:url(#SVGID_168_);fill:#201B52;}
	.st320{clip-path:url(#SVGID_170_);fill:#2E2866;}
	.st321{clip-path:url(#SVGID_170_);fill:#201B52;}
	.st322{opacity:0.22;fill:url(#SVGID_171_);}
	.st323{opacity:0.22;fill:url(#SVGID_172_);}
	.st324{opacity:0.67;fill:url(#SVGID_173_);}
	.st325{opacity:0.22;fill:url(#SVGID_174_);}
	.st326{opacity:0.67;fill:url(#SVGID_175_);}
	.st327{opacity:0.22;fill:url(#SVGID_176_);}
	.st328{opacity:0.67;fill:url(#SVGID_177_);}
	.st329{opacity:0.22;fill:url(#SVGID_178_);}
	.st330{opacity:0.22;fill:url(#SVGID_179_);}
	.st331{opacity:0.67;fill:url(#SVGID_180_);}
	.st332{opacity:0.22;fill:url(#SVGID_181_);}
	.st333{opacity:0.67;fill:url(#SVGID_182_);}
	.st334{fill:url(#SVGID_183_);}
	.st335{fill:#2E2866;}
	.st336{clip-path:url(#SVGID_185_);fill:#2E2866;}
	.st337{clip-path:url(#SVGID_185_);fill:#201B52;}
</style>
<g id="Layer_1">
</g>
<g id="Bk">
</g>
<g id="Iconos">
	<g id="Marte_Colonizado">
		<rect x="-233.9" y="-32.9" class="st148" width="1909.9" height="536.3"/>
		<linearGradient id="SVGID_1_" gradientUnits="userSpaceOnUse" x1="723.6241" y1="475.4125" x2="717.6145" y2="-98.9283">
			<stop  offset="0.361" style="stop-color:#013A54"/>
			<stop  offset="0.4996" style="stop-color:#01304A"/>
			<stop  offset="0.7373" style="stop-color:#02152E"/>
			<stop  offset="0.8829" style="stop-color:#02021A"/>
		</linearGradient>
		<rect x="-233.9" y="-32.9" class="st1" width="1909.9" height="536.3"/>
		<linearGradient id="SVGID_2_" gradientUnits="userSpaceOnUse" x1="375.3179" y1="318.0365" x2="791.4307" y2="103.1652">
			<stop  offset="0" style="stop-color:#FFFFFF;stop-opacity:0.7"/>
			<stop  offset="1" style="stop-color:#FFFFFF;stop-opacity:0.2"/>
		</linearGradient>
		<path style="opacity:0.18;fill:url(#SVGID_2_);" d="M381.8,274.1c0,0,34.9-14.4,43.3-17.6c10.8-4.2,51.7-17.1,56.1-18.7
			c27.3-9.7,158-63.9,164.9-65.9s16.1,7.8-3,17.9s-2,5.3,12,3.6s90.3-26.7,118.9-41.6c28.6-14.9-35.8,20.9-57.8,29.6
			c-25.6,10.2-33.8,8.7-85.2,31.4c-54.2,23.9-78,26.7-78,26.7s26.6-10.1,48.5-23.8c7.2-4.5-13,2-30.3,9.5
			c-17.3,7.4-200.5,65.4-200.5,65.4S464.3,252.5,381.8,274.1z"/>
		<linearGradient id="SVGID_3_" gradientUnits="userSpaceOnUse" x1="857.5291" y1="202.0251" x2="1169.8955" y2="40.726">
			<stop  offset="0" style="stop-color:#FFFFFF;stop-opacity:0.7"/>
			<stop  offset="1" style="stop-color:#FFFFFF;stop-opacity:0.2"/>
		</linearGradient>
		<path style="opacity:0.1;fill:url(#SVGID_3_);" d="M895.5,170.7c0,0,197.2-97.4,203.2-99.7s47.6-27.4,47.6-27.4l-114.9,72.3
			l101.7-50.7c0,0-84,50.9-101.5,58.6c-17.6,7.6-169.6,72.8-169.6,72.8l97.2-52.9L895.5,170.7z"/>
		<linearGradient id="SVGID_4_" gradientUnits="userSpaceOnUse" x1="327.8607" y1="187.6595" x2="740.8865" y2="-25.6178">
			<stop  offset="0" style="stop-color:#FFFFFF;stop-opacity:0.7"/>
			<stop  offset="1" style="stop-color:#FFFFFF;stop-opacity:0.2"/>
		</linearGradient>
		<path style="opacity:8.000000e-02;fill:url(#SVGID_4_);" d="M340.6,141.3c0,0,82.4-48.4,93.9-49c11.6-0.6,2.3,12.8-1.8,15
			s151.3-63.7,166.5-62c7.2,0.8,16.1,7.8-3,17.9s-7,7.8,6.9,6.1c13.9-1.7,87.5-27.1,115.3-43.4c40.5-23.8-31.3,20.4-53.1,29.7
			c-21,9-41.8,16.1-93.2,38.7c-54.2,23.9-134.1,48.9-134.1,48.9s88.8-36.7,110.8-50.4c7.2-4.5,23.7-21.2,6.4-13.7
			c-17.3,7.4-228.1,88.9-228.1,88.9S361.8,151.4,340.6,141.3z"/>
		<linearGradient id="SVGID_5_" gradientUnits="userSpaceOnUse" x1="165.8722" y1="303.9436" x2="324.052" y2="222.2631">
			<stop  offset="0" style="stop-color:#FFFFFF;stop-opacity:0.7"/>
			<stop  offset="1" style="stop-color:#FFFFFF;stop-opacity:0.2"/>
		</linearGradient>
		<path style="opacity:8.000000e-02;fill:url(#SVGID_5_);" d="M172.8,281.8c0,0,31.2-16,35.9-16.3c4.6-0.2,1.3,8.5-0.4,9.4
			c-1.6,0.9,63.4-27.3,66.1-28.1c2.8-0.8,6.4,3.1-1.2,7.1c-7.6,4.1-2.5,4.9,3.1,4.3c5.6-0.7,28.6-11.7,40-17.6
			c11.4-5.9-6.8,7-14.9,11.9S274.2,264,253.6,273c-21.6,9.5-42.8,14.7-42.8,14.7s44.1-17,52.9-22.5c2.9-1.8,2.9-5.9-4-3
			c-6.9,3-95.2,31.8-95.2,31.8S181.3,285.8,172.8,281.8z"/>
		<linearGradient id="SVGID_6_" gradientUnits="userSpaceOnUse" x1="673.2518" y1="476.4725" x2="667.8666" y2="-38.1982">
			<stop  offset="0.361" style="stop-color:#013A54;stop-opacity:0.3"/>
			<stop  offset="0.4996" style="stop-color:#01304A;stop-opacity:0.2203"/>
			<stop  offset="0.7373" style="stop-color:#02152E;stop-opacity:8.368184e-02"/>
			<stop  offset="0.8829" style="stop-color:#02021A;stop-opacity:0"/>
		</linearGradient>
		<rect x="-8" y="19.1" class="st20" width="1358" height="484.3"/>
		<g>
			<linearGradient id="SVGID_7_" gradientUnits="userSpaceOnUse" x1="506.9593" y1="269.032" x2="507.3588" y2="245.0602">
				<stop  offset="0.361" style="stop-color:#593E9C"/>
				<stop  offset="0.4498" style="stop-color:#57489C"/>
				<stop  offset="0.6027" style="stop-color:#52649D"/>
				<stop  offset="0.7998" style="stop-color:#49919E"/>
				<stop  offset="0.9707" style="stop-color:#40BD9F"/>
			</linearGradient>
			<rect x="501.8" y="239.9" class="st23" width="9.9" height="79.8"/>
			<g>
				<g>
					
						<ellipse transform="matrix(0.9998 -2.101071e-02 2.101071e-02 0.9998 -4.802 10.6974)" class="st156" cx="506.7" cy="233.9" rx="18.1" ry="15.2"/>
				</g>
				<g>
					
						<ellipse transform="matrix(0.9998 -2.101071e-02 2.101071e-02 0.9998 -4.8025 10.6819)" class="st157" cx="505.9" cy="233.9" rx="15.1" ry="13.3"/>
				</g>
				<g>
					<circle class="st158" cx="502.7" cy="234.7" r="7.6"/>
				</g>
				<g>
					<path class="st158" d="M526.1,239.2l-39.5,0.8c-1.7,0-3.1-1.3-3.1-3l0-2.2c0-1.7,1.3-3.1,3-3.1l39.5-0.8c1.7,0,3.1,1.3,3.1,3
						l0,2.2C529.2,237.8,527.8,239.2,526.1,239.2z"/>
				</g>
				<g>
					<path class="st156" d="M528.2,242l-43.6,0.9c-1.8,0-3.4-1.4-3.4-3.3l0-2.4c0-1.8,1.4-3.4,3.3-3.4L528,233
						c1.8,0,3.4,1.4,3.4,3.3l0,2.4C531.5,240.5,530.1,242,528.2,242z"/>
				</g>
				<g>
					<path class="st30" d="M485.8,238.7c-0.3-0.1-0.5-0.4-0.5-0.7c0-0.4,0.3-0.7,0.7-0.7l7.3-0.1c0.4,0,0.7,0.3,0.7,0.7
						c0,0.4-0.3,0.7-0.7,0.7l-7.3,0.1C485.9,238.8,485.9,238.8,485.8,238.7z"/>
				</g>
				<g>
					<path class="st30" d="M496.6,238.5c-0.3-0.1-0.5-0.4-0.5-0.7c0-0.4,0.3-0.7,0.7-0.7l1.6,0c0.4,0,0.7,0.3,0.7,0.7
						c0,0.4-0.3,0.7-0.7,0.7l-1.6,0C496.7,238.5,496.7,238.5,496.6,238.5z"/>
				</g>
				<g>
					<path class="st30" d="M501.4,238.4c-0.3-0.1-0.5-0.4-0.5-0.7c0-0.4,0.3-0.7,0.7-0.7l10.4-0.2c0.4,0,0.7,0.3,0.7,0.7
						c0,0.4-0.3,0.7-0.7,0.7l-10.4,0.2C501.5,238.4,501.4,238.4,501.4,238.4z"/>
				</g>
				<g>
					<path class="st30" d="M515.2,238.1c-0.3-0.1-0.5-0.4-0.5-0.7c0-0.4,0.3-0.7,0.7-0.7l4.6-0.1c0.4,0,0.7,0.3,0.7,0.7
						c0,0.4-0.3,0.7-0.7,0.7l-4.6,0.1C515.3,238.1,515.3,238.1,515.2,238.1z"/>
				</g>
				<g>
					<path class="st30" d="M522.8,238c-0.3-0.1-0.5-0.4-0.5-0.7c0-0.4,0.3-0.7,0.7-0.7l4.3-0.1c0.4,0,0.7,0.3,0.7,0.7
						c0,0.4-0.3,0.7-0.7,0.7L523,238C523,238,522.9,238,522.8,238z"/>
				</g>
				<g>
					<path class="st30" d="M492.3,228.6C492.3,228.6,492.3,228.6,492.3,228.6c-0.2-0.1-0.3-0.3-0.2-0.5c0.6-1.3,1.1-2,1.8-2.7
						c0.7-0.8,1.5-1.5,2.4-2.1c0.2-0.1,0.4-0.1,0.5,0.1c0.1,0.2,0.1,0.4-0.1,0.6c-0.9,0.6-1.6,1.2-2.3,2c-0.6,0.7-1.1,1.4-1.6,2.5
						C492.7,228.6,492.5,228.7,492.3,228.6z"/>
				</g>
				<g>
					<circle class="st30" cx="498.8" cy="222.2" r="0.7"/>
				</g>
			</g>
		</g>
		<g>
			<linearGradient id="SVGID_8_" gradientUnits="userSpaceOnUse" x1="600.1782" y1="299.4509" x2="599.3187" y2="217.3136">
				<stop  offset="0.361" style="stop-color:#593E9C"/>
				<stop  offset="0.4498" style="stop-color:#57489C"/>
				<stop  offset="0.6027" style="stop-color:#52649D"/>
				<stop  offset="0.7998" style="stop-color:#49919E"/>
				<stop  offset="0.9707" style="stop-color:#40BD9F"/>
			</linearGradient>
			<path class="st26" d="M600.3,225.3c0,0,3.4,7.9,3.4,10.6c0,3.4,0.3,65.3,0.3,65.3c0,2-1.7,3.7-3.7,3.7h-0.8c-2,0-3.7-1.7-3.7-3.7
				c0,0,1-62.3,1-65.2S600.3,225.3,600.3,225.3z"/>
			<path class="st156" d="M604.4,234.1h-8.1c-0.1,0-0.3,0.1-0.3,0.3v0.2c0,0.7,0.6,1.3,1.3,1.3h6c0.7,0,1.3-0.6,1.3-1.3v-0.2
				C604.6,234.3,604.5,234.1,604.4,234.1z"/>
			<path class="st156" d="M604.1,260.1h-8.2c-0.1,0-0.2,0.1-0.2,0.2v0.5c0,0.6,0.5,1.1,1.1,1.1h6.4c0.6,0,1.1-0.5,1.1-1.1v-0.5
				C604.3,260.2,604.2,260.1,604.1,260.1z"/>
			<polygon class="st160" points="599.6,276.8 596.8,276.8 596.8,279.4 599.6,279.4 			"/>
			<polygon class="st160" points="599.8,251.1 597.1,251.1 597.1,253.7 599.8,253.7 			"/>
			<polygon class="st160" points="599.6,289.6 596.6,289.6 596.6,292.2 599.6,292.2 			"/>
			<polygon class="st160" points="599.8,246.9 597.1,246.9 597.1,249.5 599.8,249.5 			"/>
			<polygon class="st160" points="596.5,301.1 599.5,301.1 599.5,298.2 596.5,298.2 			"/>
			<polygon class="st160" points="600.2,242.6 597.5,242.6 597.5,245.2 600.1,245.2 			"/>
			<polygon class="st160" points="599.7,272.5 596.8,272.5 596.8,275.1 599.7,275.1 			"/>
			<polygon class="st160" points="599.5,293.9 596.6,293.9 596.6,296.5 599.5,296.5 			"/>
			<polygon class="st160" points="599.7,268.2 596.9,268.2 596.9,270.8 599.7,270.8 			"/>
			<polygon class="st160" points="599.6,281.1 596.7,281.1 596.7,283.7 599.6,283.7 			"/>
			<polygon class="st160" points="599.6,285.4 596.7,285.4 596.7,288 599.6,288 			"/>
			<polygon class="st160" points="599.7,264 596.9,264 596.9,266.6 599.7,266.6 			"/>
			<polygon class="st160" points="600,292.2 603,292.2 603,289.6 600,289.6 			"/>
			<polygon class="st160" points="600.2,266.6 603,266.6 603,264 600.2,264 			"/>
			<polygon class="st160" points="600.2,270.8 603,270.8 603,268.2 600.2,268.2 			"/>
			<polygon class="st160" points="600.1,283.7 603,283.7 603,281.1 600.1,281.1 			"/>
			<polygon class="st160" points="600,296.5 603,296.5 603,293.9 600,293.9 			"/>
			<polygon class="st160" points="600.1,275.1 603,275.1 603,272.5 600.1,272.5 			"/>
			<polygon class="st160" points="600.1,279.4 603,279.4 603,276.8 600.1,276.8 			"/>
			<polygon class="st160" points="600.1,288 603,288 603,285.4 600.1,285.4 			"/>
			<polygon class="st160" points="600.3,249.5 603,249.5 603,246.9 600.3,246.9 			"/>
			<polygon class="st160" points="600.6,245.2 603.3,245.2 603.3,242.6 600.6,242.6 			"/>
			<polygon class="st160" points="600,301.1 603,301.1 603,298.2 600,298.2 			"/>
			<polygon class="st160" points="600.2,253.7 603,253.7 603,251.1 600.3,251.1 			"/>
		</g>
		<g>
			<path class="st156" d="M740.6,239.1L740.6,239.1c5.5,1.4,9.6,8.1,9.6,15.9v43.7l-9.6,2.9V239.1z"/>
			<path class="st161" d="M740.6,239.1l-3.9,2.1c-0.8,0.5-1.4,1.6-1.4,2.8v54.6l5.3,2.9V239.1z"/>
			
				<linearGradient id="SVGID_10_" gradientUnits="userSpaceOnUse" x1="-3339.6375" y1="210.4978" x2="-3373.322" y2="290.8747" gradientTransform="matrix(-1 0 0 1 -2626.1248 0)">
				<stop  offset="0.361" style="stop-color:#20A5BA"/>
				<stop  offset="0.8829" style="stop-color:#20A5BA;stop-opacity:0"/>
			</linearGradient>
			<path style="opacity:0.22;fill:url(#SVGID_10_);" d="M740.6,239.1l-3.9,2.1c-0.8,0.5-1.4,1.6-1.4,2.8v54.6l5.3,2.9V239.1z"/>
			<g>
				<path class="st163" d="M739.4,294.5h0.1c0.2,0,0.4-0.2,0.4-0.4V286c0-0.2-0.2-0.4-0.4-0.4h-0.1c-0.2,0-0.4,0.2-0.4,0.4v8.1
					C739,294.3,739.2,294.5,739.4,294.5z"/>
				<g>
					<defs>
						<path id="SVGID_93_" d="M739.4,294.5h0.1c0.2,0,0.4-0.2,0.4-0.4V286c0-0.2-0.2-0.4-0.4-0.4h-0.1c-0.2,0-0.4,0.2-0.4,0.4v8.1
							C739,294.3,739.2,294.5,739.4,294.5z"/>
					</defs>
					<clipPath id="SVGID_12_">
						<use xlink:href="#SVGID_93_"  style="overflow:visible;"/>
					</clipPath>
					<path style="clip-path:url(#SVGID_12_);fill:#2E2866;" d="M739.7,294.6h0.1c0.2,0,0.4-0.2,0.4-0.4V286c0-0.2-0.2-0.4-0.4-0.4
						h-0.1c-0.2,0-0.4,0.2-0.4,0.4v8.2C739.3,294.4,739.5,294.6,739.7,294.6z"/>
					<path style="clip-path:url(#SVGID_12_);fill:#201B52;" d="M736.8,305.4h0.1c0.2,0,0.4-0.2,0.4-0.4V297c0-0.2-0.2-0.4-0.4-0.4
						h-0.1c-0.2,0-0.4,0.2-0.4,0.4v8.1C736.4,305.3,736.6,305.4,736.8,305.4z"/>
				</g>
			</g>
			
				<linearGradient id="SVGID_14_" gradientUnits="userSpaceOnUse" x1="-3360.4746" y1="226.6882" x2="-3369.9124" y2="269.7913" gradientTransform="matrix(-1 0 0 1 -2626.1248 0)">
				<stop  offset="0.361" style="stop-color:#20A5BA"/>
				<stop  offset="0.8829" style="stop-color:#20A5BA;stop-opacity:0"/>
			</linearGradient>
			<path style="opacity:0.67;fill:url(#SVGID_14_);" d="M740.6,239.1L740.6,239.1c5.5,1.4,9.6,8.1,9.6,15.9v43.7l-9.6,2.9V239.1z"/>
			<g>
				<path class="st156" d="M701,246L701,246c-4.9,1.4-8.4,5.8-8.4,13.6v43.7l8.4,2.9V246z"/>
				<path class="st161" d="M701,246.4c0-1.2,1.3-1.9,2.4-1.3l1,0.6c0.7,0.5,1.2,1.6,1.2,2.8v54.6l-4.6,2.9V246.4z"/>
				
					<linearGradient id="SVGID_16_" gradientUnits="userSpaceOnUse" x1="1081.0519" y1="215.7106" x2="1047.5403" y2="295.6748" gradientTransform="matrix(0.8746 0 0 1 -220.6097 0)">
					<stop  offset="0.361" style="stop-color:#20A5BA"/>
					<stop  offset="0.8829" style="stop-color:#20A5BA;stop-opacity:0"/>
				</linearGradient>
				<path style="opacity:0.22;fill:url(#SVGID_16_);" d="M701,246.4c0-1.2,1.3-1.9,2.4-1.3l1,0.6c0.7,0.5,1.2,1.6,1.2,2.8v54.6
					l-4.6,2.9V246.4z"/>
				<g>
					<path class="st163" d="M702,299.1h-0.1c-0.2,0-0.3-0.2-0.3-0.3v-8.2c0-0.2,0.2-0.3,0.3-0.3h0.1c0.2,0,0.3,0.2,0.3,0.3v8.2
						C702.4,298.9,702.2,299.1,702,299.1z"/>
					<g>
						<defs>
							<path id="SVGID_97_" d="M702,299.1h-0.1c-0.2,0-0.3-0.2-0.3-0.3v-8.2c0-0.2,0.2-0.3,0.3-0.3h0.1c0.2,0,0.3,0.2,0.3,0.3v8.2
								C702.4,298.9,702.2,299.1,702,299.1z"/>
						</defs>
						<clipPath id="SVGID_17_">
							<use xlink:href="#SVGID_97_"  style="overflow:visible;"/>
						</clipPath>
						<path style="clip-path:url(#SVGID_17_);fill:#2E2866;" d="M701.7,299.2h-0.1c-0.2,0-0.3-0.2-0.3-0.3l0-8.3
							c0-0.2,0.2-0.3,0.3-0.3h0.1c0.2,0,0.3,0.2,0.3,0.3v8.3C702.1,299,701.9,299.2,701.7,299.2z"/>
						<path style="clip-path:url(#SVGID_17_);fill:#201B52;" d="M704.3,310h-0.1c-0.2,0-0.3-0.2-0.3-0.3v-8.2c0-0.2,0.2-0.3,0.3-0.3
							h0.1c0.2,0,0.3,0.2,0.3,0.3v8.2C704.7,309.9,704.5,310,704.3,310z"/>
					</g>
				</g>
				
					<linearGradient id="SVGID_18_" gradientUnits="userSpaceOnUse" x1="1059.3933" y1="233.9695" x2="1050.3051" y2="275.4758" gradientTransform="matrix(0.8746 0 0 1 -220.6097 0)">
					<stop  offset="0.361" style="stop-color:#20A5BA"/>
					<stop  offset="0.8829" style="stop-color:#20A5BA;stop-opacity:0"/>
				</linearGradient>
				<path style="opacity:0.67;fill:url(#SVGID_18_);" d="M701,246L701,246c-4.9,1.4-8.4,5.8-8.4,13.6v43.7l8.4,2.9V246z"/>
			</g>
			<path class="st156" d="M638.5,303.9h-0.7c-1.2,0-2.3-1-2.3-2.3v-39.6c0-1.2,1-2.3,2.3-2.3h0.7c1.2,0,2.3,1,2.3,2.3v39.6
				C640.8,302.9,639.8,303.9,638.5,303.9z"/>
			<path class="st156" d="M473.2,322.7h-0.7c-1.2,0-2.3-1-2.3-2.3v-39.6c0-1.2,1-2.3,2.3-2.3h0.7c1.2,0,2.3,1,2.3,2.3v39.6
				C475.4,321.7,474.4,322.7,473.2,322.7z"/>
			<path class="st171" d="M464.8,333.4h-1c-2,0-3.6-1.6-3.6-3.6v-36.9c0-2,1.6-3.6,3.6-3.6h1c2,0,3.6,1.6,3.6,3.6v36.9
				C468.4,331.8,466.8,333.4,464.8,333.4z"/>
			<path class="st171" d="M596.6,300.7h-1c-2,0-3.6-1.6-3.6-3.6v-36.9c0-2,1.6-3.6,3.6-3.6h1c2,0,3.6,1.6,3.6,3.6V297
				C600.2,299,598.6,300.7,596.6,300.7z"/>
			<path class="st171" d="M361,369.4l-1,0.4c-1.9,0.7-3.9-0.2-4.7-2l-13.6-34.3c-0.7-1.9,0.2-3.9,2-4.7l1-0.4c1.9-0.7,3.9,0.2,4.7,2
				l13.6,34.3C363.8,366.6,362.9,368.7,361,369.4z"/>
			<path class="st171" d="M796.7,286.6h-1c-2,0-3.6-1.6-3.6-3.6v-36.9c0-2,1.6-3.6,3.6-3.6h1c2,0,3.6,1.6,3.6,3.6V283
				C800.3,285,798.7,286.6,796.7,286.6z"/>
			<path class="st171" d="M1089.2,352.9h-1c-2,0-3.6-1.6-3.6-3.6v-36.9c0-2,1.6-3.6,3.6-3.6h1c2,0,3.6,1.6,3.6,3.6v36.9
				C1092.8,351.3,1091.2,352.9,1089.2,352.9z"/>
			<path class="st156" d="M782.5,296.4h-0.7c-1.2,0-2.3-1-2.3-2.3v-39.6c0-1.2,1-2.3,2.3-2.3h0.7c1.2,0,2.3,1,2.3,2.3v39.6
				C784.8,295.4,783.7,296.4,782.5,296.4z"/>
			<path class="st156" d="M1084.9,340h-0.7c-1.2,0-2.3-1-2.3-2.3v-39.6c0-1.2,1-2.3,2.3-2.3h0.7c1.2,0,2.3,1,2.3,2.3v39.6
				C1087.1,339,1086.1,340,1084.9,340z"/>
			<g class="st172">
				<g>
					<circle class="st76" cx="576.7" cy="291.4" r="52.3"/>
				</g>
			</g>
			<g class="st172">
				<g>
					<circle class="st76" cx="268.8" cy="448.1" r="52.3"/>
				</g>
				<g>
					<path class="st30" d="M227.9,422.6c-0.3,0.3-0.8,0.3-1.2,0.1c-0.5-0.3-0.7-1-0.4-1.5c3.3-5.9,8-10.9,13.9-14.8
						c0.5-0.3,1.2-0.2,1.5,0.3c0.3,0.5,0.2,1.2-0.3,1.5c-5.6,3.7-10.1,8.4-13.2,14C228.2,422.4,228.1,422.5,227.9,422.6z"/>
				</g>
			</g>
		</g>
		
			<radialGradient id="SVGID_20_" cx="646.2964" cy="399.058" r="283.3621" gradientTransform="matrix(-4.040371e-03 -1 1.3011 -5.257038e-03 129.6866 1047.447)" gradientUnits="userSpaceOnUse">
			<stop  offset="0.3122" style="stop-color:#11709C"/>
			<stop  offset="0.405" style="stop-color:#106694;stop-opacity:0.8373"/>
			<stop  offset="0.5648" style="stop-color:#0C4A7F;stop-opacity:0.5574"/>
			<stop  offset="0.7708" style="stop-color:#061D5C;stop-opacity:0.1964"/>
			<stop  offset="0.8829" style="stop-color:#020247;stop-opacity:0"/>
		</radialGradient>
		<ellipse style="fill:url(#SVGID_20_);" cx="645.4" cy="286.4" rx="324.4" ry="185.7"/>
		
			<radialGradient id="SVGID_22_" cx="865.7499" cy="630.9186" r="745.1235" gradientTransform="matrix(6.371299e-03 -1.0284 1.5388 1.220257e-02 -283.1093 1488.163)" gradientUnits="userSpaceOnUse">
			<stop  offset="0.4293" style="stop-color:#FF9E63"/>
			<stop  offset="0.4383" style="stop-color:#F89A62;stop-opacity:0.9831"/>
			<stop  offset="0.5243" style="stop-color:#B8725B;stop-opacity:0.8212"/>
			<stop  offset="0.6092" style="stop-color:#805055;stop-opacity:0.6615"/>
			<stop  offset="0.6909" style="stop-color:#533450;stop-opacity:0.508"/>
			<stop  offset="0.7687" style="stop-color:#301E4C;stop-opacity:0.3617"/>
			<stop  offset="0.8415" style="stop-color:#170F49;stop-opacity:0.2247"/>
			<stop  offset="0.9076" style="stop-color:#070548;stop-opacity:0.1003"/>
			<stop  offset="0.961" style="stop-color:#020247;stop-opacity:0"/>
		</radialGradient>
		<ellipse style="opacity:0.43;fill:url(#SVGID_22_);" cx="693.2" cy="616.2" rx="1160.9" ry="778.2"/>
		<g class="st172">
			<g>
				<circle class="st76" cx="382.3" cy="347.2" r="52.3"/>
			</g>
			<g>
				<path class="st30" d="M342.5,322.9c-0.3,0.3-0.8,0.3-1.2,0.1c-0.5-0.3-0.7-1-0.4-1.5c3.3-5.9,8-10.9,13.9-14.8
					c0.5-0.3,1.2-0.2,1.5,0.3c0.3,0.5,0.2,1.2-0.3,1.5c-5.6,3.7-10.1,8.4-13.2,14C342.7,322.7,342.6,322.9,342.5,322.9z"/>
			</g>
		</g>
		<polygon class="st245" points="652.2,285.4 647.1,285.4 647.1,264 652,264.7 		"/>
		<path class="st246" d="M599,287.4l28.2-6.2l30.5-2.3l32.8-13.2l11.4,6.5l21-3.4c0,0,3.1,3.8,11.1,3.1s20.7,0.2,20.7,0.2l7.9,4.6
			l-26.7,6.3L599,287.4z"/>
		<path class="st175" d="M299.6,370.4l24.2-15.9l11.2-5.3l25.5-18.7l19.1-7.1l29.3-14.7c0,0,4.2,2.5,11.4-1.1
			c7.2-3.6,19.5-7.2,19.5-7.2l9,1.5L426,317.4L299.6,370.4z"/>
		<g class="st176">
			<g id="Elipse_40_5_">
				
					<ellipse transform="matrix(0.1283 -0.9917 0.9917 0.1283 544.1254 1400.4274)" class="st177" cx="1068.7" cy="390.7" rx="35.6" ry="34.7"/>
			</g>
			<g id="Elipse_38_5_">
				
					<ellipse transform="matrix(0.1283 -0.9917 0.9917 0.1283 590.5917 1418.9058)" class="st178" cx="1102.4" cy="373.5" rx="42.8" ry="38.2"/>
			</g>
			<g id="Elipse_51_5_">
				
					<ellipse transform="matrix(0.1283 -0.9917 0.9917 0.1283 613.1439 1519.8196)" class="st179" cx="1171.1" cy="411.1" rx="21.4" ry="20.8"/>
			</g>
			<g id="Elipse_39_5_">
				
					<ellipse transform="matrix(0.1283 -0.9917 0.9917 0.1283 598.0266 1463.6558)" class="st178" cx="1131.6" cy="391.6" rx="35.6" ry="34.7"/>
			</g>
			<g id="Elipse_43_5_">
				
					<ellipse transform="matrix(0.1283 -0.9917 0.9917 0.1283 589.725 1535.5825)" class="st177" cx="1168.4" cy="432.3" rx="21.4" ry="20.8"/>
			</g>
			<g id="Elipse_48_5_">
				
					<ellipse transform="matrix(0.1283 -0.9917 0.9917 0.1283 551.4365 1461.8455)" class="st179" cx="1107.3" cy="417.2" rx="21.4" ry="20.8"/>
			</g>
			<g id="Elipse_49_5_">
				
					<ellipse transform="matrix(0.1283 -0.9917 0.9917 0.1283 543.8778 1433.7635)" class="st179" cx="1087.5" cy="407.5" rx="21.4" ry="20.8"/>
			</g>
		</g>
		<g class="st180">
			<g id="Elipse_40_4_">
				
					<ellipse transform="matrix(0.996 -8.942402e-02 8.942402e-02 0.996 -21.8051 71.5161)" class="st177" cx="787.2" cy="279.1" rx="14.8" ry="14.3"/>
			</g>
			<g id="Elipse_38_4_">
				
					<ellipse transform="matrix(0.996 -8.942410e-02 8.942410e-02 0.996 -21.2018 70.2289)" class="st178" cx="773.2" cy="271.7" rx="16.3" ry="17.2"/>
			</g>
			<g id="Elipse_51_4_">
				
					<ellipse transform="matrix(0.996 -8.942402e-02 8.942402e-02 0.996 -22.5929 67.6034)" class="st179" cx="743.2" cy="285.9" rx="8.9" ry="8.6"/>
			</g>
			<g id="Elipse_39_4_">
				
					<ellipse transform="matrix(0.996 -8.942402e-02 8.942402e-02 0.996 -21.8707 69.1135)" class="st178" cx="760.4" cy="278.6" rx="14.8" ry="14.3"/>
			</g>
			<g id="Elipse_43_4_">
				
					<ellipse transform="matrix(0.996 -8.942402e-02 8.942402e-02 0.996 -23.3563 67.7065)" class="st177" cx="743.9" cy="294.5" rx="8.9" ry="8.6"/>
			</g>
			<g id="Elipse_48_4_">
				
					<ellipse transform="matrix(0.996 -8.942402e-02 8.942402e-02 0.996 -22.7818 70.0404)" class="st179" cx="770.3" cy="289.3" rx="8.9" ry="8.6"/>
			</g>
			<g id="Elipse_49_4_">
				
					<ellipse transform="matrix(0.996 -8.942402e-02 8.942402e-02 0.996 -22.4207 70.7955)" class="st179" cx="778.9" cy="285.6" rx="8.9" ry="8.6"/>
			</g>
		</g>
		<g class="st181">
			<g id="Elipse_40_3_">
				
					<ellipse transform="matrix(0.8285 -0.56 0.56 0.8285 -184.319 197.8864)" class="st177" cx="230.9" cy="399.8" rx="16.8" ry="11.5"/>
			</g>
			<g id="Elipse_38_3_">
				
					<ellipse transform="matrix(0.8285 -0.56 0.56 0.8285 -174.8801 200.2904)" class="st178" cx="239.5" cy="385.6" rx="18.5" ry="13.9"/>
			</g>
			<g id="Elipse_51_3_">
				
					<ellipse transform="matrix(0.8285 -0.56 0.56 0.8285 -162.2029 217.4783)" class="st179" cx="273.9" cy="373.5" rx="10.1" ry="6.9"/>
			</g>
			<g id="Elipse_39_3_">
				
					<ellipse transform="matrix(0.8285 -0.56 0.56 0.8285 -169.6898 207.9574)" class="st178" cx="254.6" cy="381" rx="16.8" ry="11.5"/>
			</g>
			<g id="Elipse_43_3_">
				
					<ellipse transform="matrix(0.8285 -0.56 0.56 0.8285 -164.752 220.6361)" class="st177" cx="277.8" cy="379.3" rx="10.1" ry="6.9"/>
			</g>
			<g id="Elipse_48_3_">
				
					<ellipse transform="matrix(0.8285 -0.56 0.56 0.8285 -177.6818 208.4599)" class="st179" cx="251.5" cy="394.3" rx="10.1" ry="6.9"/>
			</g>
			<g id="Elipse_49_3_">
				
					<ellipse transform="matrix(0.8285 -0.56 0.56 0.8285 -181.4252 203.6995)" class="st179" cx="241.8" cy="398" rx="10.1" ry="6.9"/>
			</g>
		</g>
		<ellipse class="st125" cx="678.9" cy="814.5" rx="702.9" ry="533"/>
		<g class="st182">
			<linearGradient id="SVGID_24_" gradientUnits="userSpaceOnUse" x1="804.7886" y1="286.1109" x2="803.9292" y2="203.9737">
				<stop  offset="0.361" style="stop-color:#593E9C"/>
				<stop  offset="0.4498" style="stop-color:#57489C"/>
				<stop  offset="0.6027" style="stop-color:#52649D"/>
				<stop  offset="0.7998" style="stop-color:#49919E"/>
				<stop  offset="0.9707" style="stop-color:#40BD9F"/>
			</linearGradient>
			<path style="fill:url(#SVGID_24_);" d="M804.9,212c0,0,3.4,7.9,3.4,10.6c0,3.4,0.3,65.3,0.3,65.3c0,2-1.7,3.7-3.7,3.7h-0.8
				c-2,0-3.7-1.7-3.7-3.7c0,0,1-62.3,1-65.2C801.6,219.7,804.9,212,804.9,212z"/>
			<path class="st156" d="M809,220.8h-8.1c-0.1,0-0.3,0.1-0.3,0.3v0.2c0,0.7,0.6,1.3,1.3,1.3h6c0.7,0,1.3-0.6,1.3-1.3v-0.2
				C809.2,220.9,809.1,220.8,809,220.8z"/>
			<path class="st156" d="M808.7,246.8h-8.2c-0.1,0-0.2,0.1-0.2,0.2v0.5c0,0.6,0.5,1.1,1.1,1.1h6.4c0.6,0,1.1-0.5,1.1-1.1V247
				C808.9,246.8,808.8,246.8,808.7,246.8z"/>
			<polygon class="st160" points="804.3,263.5 801.4,263.5 801.4,266.1 804.2,266.1 			"/>
			<polygon class="st160" points="804.4,237.8 801.7,237.8 801.7,240.4 804.4,240.4 			"/>
			<polygon class="st160" points="804.2,276.3 801.3,276.3 801.2,278.9 804.2,278.9 			"/>
			<polygon class="st160" points="804.4,233.5 801.8,233.5 801.7,236.1 804.4,236.1 			"/>
			<polygon class="st160" points="801.1,287.8 804.1,287.8 804.1,284.9 801.2,284.9 			"/>
			<polygon class="st160" points="804.8,229.2 802.1,229.2 802.1,231.8 804.8,231.8 			"/>
			<polygon class="st160" points="804.3,259.2 801.5,259.2 801.4,261.8 804.3,261.8 			"/>
			<polygon class="st160" points="804.2,280.6 801.2,280.6 801.2,283.2 804.1,283.2 			"/>
			<polygon class="st160" points="804.3,254.9 801.5,254.9 801.5,257.5 804.3,257.5 			"/>
			<polygon class="st160" points="804.2,267.7 801.4,267.7 801.3,270.3 804.2,270.3 			"/>
			<polygon class="st160" points="804.2,272 801.3,272 801.3,274.6 804.2,274.6 			"/>
			<polygon class="st160" points="804.3,250.6 801.6,250.6 801.5,253.2 804.3,253.2 			"/>
			<polygon class="st160" points="804.6,278.9 807.6,278.9 807.6,276.3 804.7,276.3 			"/>
			<polygon class="st160" points="804.8,253.2 807.6,253.2 807.6,250.6 804.8,250.6 			"/>
			<polygon class="st160" points="804.8,257.5 807.6,257.5 807.6,254.9 804.8,254.9 			"/>
			<polygon class="st160" points="804.7,270.3 807.6,270.4 807.6,267.8 804.7,267.7 			"/>
			<polygon class="st160" points="804.6,283.2 807.6,283.2 807.6,280.6 804.6,280.6 			"/>
			<polygon class="st160" points="804.7,261.8 807.6,261.8 807.6,259.2 804.8,259.2 			"/>
			<polygon class="st160" points="804.7,266.1 807.6,266.1 807.6,263.5 804.7,263.5 			"/>
			<polygon class="st160" points="804.7,274.6 807.6,274.6 807.6,272 804.7,272 			"/>
			<polygon class="st160" points="804.9,236.1 807.6,236.1 807.6,233.5 804.9,233.5 			"/>
			<polygon class="st160" points="805.2,231.8 807.9,231.8 807.9,229.2 805.2,229.2 			"/>
			<polygon class="st160" points="804.6,287.8 807.6,287.8 807.6,284.9 804.6,284.9 			"/>
			<polygon class="st160" points="804.9,240.4 807.6,240.4 807.6,237.8 804.9,237.8 			"/>
		</g>
		<path class="st184" d="M782,286.3c0,0-0.1,0-0.1,0c0.1,0,0.2,0,0.3-0.1C782.1,286.2,782.1,286.2,782,286.3z"/>
		<path class="st184" d="M830.4,275.9c0-0.1,0-0.1,0.1-0.2c0,0.1,0.1,0.1,0.1,0.2C830.5,276,830.5,276,830.4,275.9z"/>
		<path class="st184" d="M838.7,294.9c0.1,0,0.1,0,0.2-0.1c0,0,0.1,0.1,0.1,0.1C838.9,295,838.8,295,838.7,294.9z"/>
		<path class="st184" d="M847.4,281.1c0-0.1,0-0.3,0-0.4c0,0.2,0.1,0.4,0.1,0.6C847.5,281.2,847.4,281.1,847.4,281.1z"/>
		<path class="st185" d="M230,408.8l19.2-22.7c0,0,21.6-9,32.2-17.9c10.6-8.8,23.7-36.2,23.7-36.2l12.6,7.1l6.4,7.1l16.1,0l23-2.9
			L230,408.8z"/>
		<path class="st186" d="M408.7,322.9c0,0,35.4-18.2,46.3-36.8s19.8-42.1,19.8-42.1s9,23.4,12,24.1c3,0.7,5.8,12.4,38.8,15.5
			s69.5,2.6,69.5,2.6L408.7,322.9z"/>
		<g>
			<linearGradient id="SVGID_26_" gradientUnits="userSpaceOnUse" x1="757.3654" y1="246.9662" x2="757.7026" y2="226.7292">
				<stop  offset="0.361" style="stop-color:#593E9C"/>
				<stop  offset="0.4498" style="stop-color:#57489C"/>
				<stop  offset="0.6027" style="stop-color:#52649D"/>
				<stop  offset="0.7998" style="stop-color:#49919E"/>
				<stop  offset="0.9707" style="stop-color:#40BD9F"/>
			</linearGradient>
			<rect x="753" y="222.4" style="fill:url(#SVGID_26_);" width="8.3" height="67.3"/>
			<g>
				<g>
					
						<ellipse transform="matrix(0.9998 -2.101071e-02 2.101071e-02 0.9998 -4.3982 15.9559)" class="st156" cx="757.1" cy="217.3" rx="15.3" ry="12.8"/>
				</g>
				<g>
					
						<ellipse transform="matrix(0.9998 -2.101071e-02 2.101071e-02 0.9998 -4.3986 15.9428)" class="st157" cx="756.5" cy="217.3" rx="12.7" ry="11.2"/>
				</g>
				<g>
					<circle class="st158" cx="753.7" cy="218" r="6.4"/>
				</g>
				<g>
					<path class="st158" d="M773.1,221.8l-32.4,0.7c-1.7,0-3.1-1.3-3.1-3l0-0.9c0-1.7,1.3-3.1,3-3.1l32.4-0.7c1.7,0,3.1,1.3,3.1,3
						l0,0.9C776.1,220.4,774.8,221.8,773.1,221.8z"/>
				</g>
				<g>
					<path class="st156" d="M774.8,224.2l-35.8,0.8c-1.8,0-3.4-1.4-3.4-3.3l0-1c0-1.8,1.4-3.4,3.3-3.4l35.8-0.8
						c1.8,0,3.4,1.4,3.4,3.3l0,1C778.1,222.6,776.6,224.1,774.8,224.2z"/>
				</g>
				<g>
					<path class="st30" d="M739.5,221.4c-0.2-0.1-0.4-0.3-0.4-0.6c0-0.3,0.3-0.6,0.6-0.6l6.2-0.1c0.3,0,0.6,0.3,0.6,0.6
						c0,0.3-0.3,0.6-0.6,0.6l-6.2,0.1C739.6,221.4,739.6,221.4,739.5,221.4z"/>
				</g>
				<g>
					<path class="st30" d="M748.6,221.2c-0.2-0.1-0.4-0.3-0.4-0.6c0-0.3,0.3-0.6,0.6-0.6l1.3,0c0.3,0,0.6,0.3,0.6,0.6
						c0,0.3-0.3,0.6-0.6,0.6l-1.3,0C748.7,221.2,748.7,221.2,748.6,221.2z"/>
				</g>
				<g>
					<path class="st30" d="M752.7,221.1c-0.2-0.1-0.4-0.3-0.4-0.6c0-0.3,0.3-0.6,0.6-0.6l8.8-0.2c0.3,0,0.6,0.3,0.6,0.6
						c0,0.3-0.3,0.6-0.6,0.6l-8.8,0.2C752.8,221.1,752.7,221.1,752.7,221.1z"/>
				</g>
				<g>
					<path class="st30" d="M764.3,220.9c-0.2-0.1-0.4-0.3-0.4-0.6c0-0.3,0.3-0.6,0.6-0.6l3.9-0.1c0.3,0,0.6,0.3,0.6,0.6
						c0,0.3-0.3,0.6-0.6,0.6l-3.9,0.1C764.4,220.9,764.4,220.9,764.3,220.9z"/>
				</g>
				<g>
					<path class="st30" d="M770.8,220.7c-0.2-0.1-0.4-0.3-0.4-0.6c0-0.3,0.3-0.6,0.6-0.6l3.6-0.1c0.3,0,0.6,0.3,0.6,0.6
						c0,0.3-0.3,0.6-0.6,0.6l-3.6,0.1C770.9,220.8,770.8,220.7,770.8,220.7z"/>
				</g>
				<g>
					<path class="st30" d="M745,212.8C745,212.8,745,212.8,745,212.8c-0.2-0.1-0.3-0.3-0.2-0.5c0.5-1.1,0.9-1.7,1.5-2.3
						c0.6-0.7,1.3-1.2,2.1-1.8c0.2-0.1,0.4,0,0.5,0.1c0.1,0.2,0.1,0.4-0.1,0.5c-0.8,0.5-1.4,1-1.9,1.7c-0.5,0.6-1,1.2-1.4,2.1
						C745.3,212.8,745.2,212.9,745,212.8z"/>
				</g>
				<g>
					<circle class="st30" cx="750.5" cy="207.5" r="0.6"/>
				</g>
			</g>
		</g>
		<path class="st188" d="M710.3,289.4l63.5-24.9l49.6-35.5l45.2-1.1c0,0,40.6-14,57.4-27.6s20.3-19.7,20.3-19.7l19.1,15.4l19,20.4
			l26.2,49.5c0,0,97.4,102.2,102.1,109.3c4.7,7.1-227.5-9.5-229.9-10.4S710.3,289.4,710.3,289.4z"/>
		<path class="st189" d="M254.1,383.9c0,0,21.8-11.4,24.8-13.7c3-2.4,4.8-4.1,4.8-4.1s-1,2-0.7,3.7c0.3,1.6,3.6,2.5,3.6,2.5
			s7.2-0.5,8.2-0.9s-6.1,2.8-6.5,3.1c-0.4,0.3-7.3,0.8-7.7,0.9c-0.4,0.1-12.5,3.6-12.5,3.6S256.2,382.3,254.1,383.9z"/>
		<path class="st189" d="M239,398l6.7-2.8c0,0,3.6,0,5.7-0.2c2.1-0.2,5.8-1.6,5.8-1.6s-4.8,0.2-5.4,0.3c-0.6,0.1-5.3-0.4-5.3-0.4
			l-3,0.9l-2.9,2L239,398z"/>
		<path class="st189" d="M305.1,332l6.3,2.4l7.1,2.9l4.2,1.8l3,1.9c0,0,11.5,2.1,12.6,2.4c1.1,0.3,12.9-2.6,12.9-2.6l11.8,2.3
			l-4.8,0.6l-18.2,2.3l-16.1,0l-7.3-7.1L305.1,332z"/>
		<path class="st190" d="M474.7,244.1c0,0,4.7,16.2,5.6,17.3c0.9,1,7,8.6,7,8.6L481,266l6,6.7l-3.3-0.3c0,0,0.8,3.8,1.5,5
			c0.8,1.2,7.5,3.4,7.5,3.4l16,4l27.5,0.5l36.1,0.7l8.6,0.1l-24.7-5.2l-48.4-11.5l-12.5-8.4l-0.4,1.5c0,0-6.1-6.2-7.6-7.8
			C485.9,253.1,474.7,244.1,474.7,244.1z"/>
		<path class="st190" d="M467.8,307.3c0,0,3.5-4.9,3.6-6.3c0.1-1.3,1.1-5.2,1.1-5.2l0.5,4.6l3.5,0.5l1.6-3.9l-0.3,3.3l3.3,2.1
			l5.4,1.3l8.1,0.9c0,0-25,3.8-25.9,4.5c-0.9,0.7-10.7,2.3-10.7,2.3l7.7-3.1L467.8,307.3z"/>
		<linearGradient id="SVGID_28_" gradientUnits="userSpaceOnUse" x1="1307.1804" y1="88.1241" x2="724.4324" y2="448.1914">
			<stop  offset="0.4293" style="stop-color:#821548"/>
			<stop  offset="0.9707" style="stop-color:#821548;stop-opacity:0"/>
		</linearGradient>
		<path style="fill:url(#SVGID_28_);" d="M710.3,289.4l63.5-24.9l49.6-35.5l45.2-1.1c0,0,40.6-14,57.4-27.6s20.3-19.7,20.3-19.7
			l19.1,15.4l19,20.4l26.2,49.5c0,0,97.4,102.2,102.1,109.3c4.7,7.1-227.5-9.5-229.9-10.4S710.3,289.4,710.3,289.4z"/>
		<polygon class="st192" points="796.9,229.8 814.4,237.4 790.2,266.4 818.2,237.9 		"/>
		<path class="st193" d="M946.4,180.6l16.2,13.1l25.9,36.1c0,0,2.6,19.6,2.4,19.9c-0.3,0.3,1.2,31.8,1.2,31.8s-9.6,16.1-9.8,17
			s-8.9,44-8.9,44l-4.8-6.6l-3.6,13.7l-1.5,21.2l80.9,6.5c0,0,45.4,7.9,45.8,8.9c1.4,2.9,41.3,24.8,41.3,24.8l-32-64.5
			c0,0-30.6-41.9-38.5-47.6c-7.9-5.7-17.7-20.7-21.6-26.5c-3.9-5.9-11.2-16.8-20.2-24.8c-9-8-25.9-38.8-25.9-38.8l-1.3,3.2
			C992,212.1,961.1,182.9,946.4,180.6z"/>
		<polygon class="st186" points="1077.8,369.8 1089.6,385.7 1086.2,369.8 1080.4,360.6 1079.3,356 1075.9,367.5 		"/>
		<g>
			<g id="Elipse_40_6_">
				
					<ellipse transform="matrix(0.996 -8.942402e-02 8.942402e-02 0.996 -23.3436 53.1957)" class="st177" cx="582" cy="287.1" rx="14.8" ry="14.3"/>
			</g>
			<g id="Elipse_38_6_">
				
					<ellipse transform="matrix(0.996 -8.942410e-02 8.942410e-02 0.996 -22.8691 51.7118)" class="st178" cx="565.7" cy="281.1" rx="16.3" ry="17.2"/>
			</g>
			<g id="Elipse_51_6_">
				
					<ellipse transform="matrix(0.996 -8.942402e-02 8.942402e-02 0.996 -24.0572 49.5758)" class="st179" cx="541.3" cy="293.3" rx="8.9" ry="8.6"/>
			</g>
			<g id="Elipse_39_6_">
				
					<ellipse transform="matrix(0.996 -8.942402e-02 8.942402e-02 0.996 -23.335 51.0859)" class="st178" cx="558.5" cy="286" rx="14.8" ry="14.3"/>
			</g>
			<g id="Elipse_43_6_">
				
					<ellipse transform="matrix(0.996 -8.942402e-02 8.942402e-02 0.996 -24.8206 49.6789)" class="st177" cx="542" cy="301.8" rx="8.9" ry="8.6"/>
			</g>
			<g id="Elipse_48_6_">
				
					<ellipse transform="matrix(0.996 -8.942402e-02 8.942402e-02 0.996 -23.9916 51.7621)" class="st179" cx="565.7" cy="293.6" rx="8.9" ry="8.6"/>
			</g>
			<g id="Elipse_49_6_">
				
					<ellipse transform="matrix(0.996 -8.942402e-02 8.942402e-02 0.996 -23.9693 52.2597)" class="st179" cx="571.2" cy="293.6" rx="8.9" ry="8.6"/>
			</g>
		</g>
		<g>
			<g>
				<g id="Elipse_40_7_">
					
						<ellipse transform="matrix(3.398494e-03 -1 1 3.398494e-03 418.331 1014.2508)" class="st177" cx="718" cy="297.2" rx="7.8" ry="11.4"/>
				</g>
				<g id="Elipse_38_7_">
					
						<ellipse transform="matrix(3.398480e-03 -1 1 3.398480e-03 433.2457 1019.8772)" class="st178" cx="728.3" cy="292.6" rx="9.4" ry="12.5"/>
				</g>
				<g id="Elipse_51_7_">
					
						<ellipse transform="matrix(3.398494e-03 -1 1 3.398494e-03 450.7388 1050.1377)" class="st179" cx="752.2" cy="298.9" rx="4.7" ry="6.8"/>
				</g>
				<g id="Elipse_39_7_">
					
						<ellipse transform="matrix(3.398494e-03 -1 1 3.398494e-03 440.2932 1033.291)" class="st178" cx="738.6" cy="295.7" rx="7.8" ry="11.4"/>
				</g>
				<g id="Elipse_43_7_">
					
						<ellipse transform="matrix(3.398147e-03 -1 1 3.398147e-03 441.6096 1042.7317)" class="st177" cx="743.9" cy="299.8" rx="5.5" ry="6.8"/>
				</g>
				<g id="Elipse_48_7_">
					
						<ellipse transform="matrix(3.398494e-03 -1 1 3.398494e-03 431.3307 1033.7069)" class="st179" cx="734.3" cy="300.5" rx="4.7" ry="6.8"/>
				</g>
				<g id="Elipse_49_7_">
					
						<ellipse transform="matrix(3.398494e-03 -1 1 3.398494e-03 421.9804 1024.2317)" class="st179" cx="724.8" cy="300.4" rx="4.7" ry="6.8"/>
				</g>
			</g>
			<polyline class="st179" points="734.3,303.6 743.2,303.8 749.2,302.9 753,302.8 756.6,302 759,299.7 760,303.6 761.4,306.2 
				737.5,305.2 721.3,305.1 715.4,305.2 718,300.6 722.7,297.2 			"/>
		</g>
		<polygon class="st32" points="465.6,216 463.9,216 463.8,225.8 465.6,225.8 		"/>
		<polygon class="st32" points="465.5,232 463.8,232 463.7,241.8 465.5,241.8 		"/>
		<polygon class="st32" points="466,151.9 464.2,151.9 464.2,161.6 465.9,161.6 		"/>
		<polygon class="st32" points="466.1,135.9 464.3,135.9 464.3,145.6 466,145.6 		"/>
		<polygon class="st32" points="465.8,184 464,184 464,193.7 465.7,193.7 		"/>
		<polygon class="st32" points="465.7,200 464,200 463.9,209.7 465.7,209.7 		"/>
		<polygon class="st32" points="465.2,296.2 463.4,296.2 463.3,305.9 465.1,305.9 		"/>
		<polygon class="st32" points="465.3,280.1 463.5,280.1 463.4,289.9 465.2,289.9 		"/>
		<path class="st250" d="M646.3,297.8h-0.7c-1.2,0-2.3-1-2.3-2.3V256c0-1.2,1-2.3,2.3-2.3h0.7c1.2,0,2.3,1,2.3,2.3v39.6
			C648.5,296.8,647.5,297.8,646.3,297.8z"/>
		<polygon class="st32" points="465.4,248.1 463.7,248.1 463.6,257.8 465.4,257.8 		"/>
		<polygon class="st32" points="463.3,312.2 463.2,321.9 465,321.9 465.1,312.2 		"/>
		<polygon class="st32" points="466.2,119.8 464.4,119.8 464.4,129.6 466.1,129.6 		"/>
		<polygon class="st32" points="465.3,264.1 463.6,264.1 463.5,273.8 465.3,273.8 		"/>
		<polygon class="st32" points="465.9,167.9 464.1,167.9 464.1,177.7 465.8,177.7 		"/>
		<g>
			<linearGradient id="SVGID_30_" gradientUnits="userSpaceOnUse" x1="425.1908" y1="323.9305" x2="423.882" y2="198.8523">
				<stop  offset="0.361" style="stop-color:#593E9C"/>
				<stop  offset="0.4498" style="stop-color:#57489C"/>
				<stop  offset="0.6027" style="stop-color:#52649D"/>
				<stop  offset="0.7998" style="stop-color:#49919E"/>
				<stop  offset="0.9707" style="stop-color:#40BD9F"/>
			</linearGradient>
			<path style="fill:url(#SVGID_30_);" d="M425.4,211c0,0,5.2,12,5.2,16.2c0,5.2,0.5,99.4,0.5,99.4c0,3.1-2.5,5.6-5.6,5.6h-1.2
				c-3.1,0-5.6-2.5-5.6-5.6c0,0,1.6-94.9,1.6-99.4C420.4,222.8,425.4,211,425.4,211z"/>
			<path class="st156" d="M431.6,224.5h-12.4c-0.2,0-0.4,0.2-0.4,0.4v0.4c0,1.1,0.9,2,2,2h9.1c1.1,0,2-0.9,2-2v-0.4
				C431.9,224.6,431.8,224.5,431.6,224.5z"/>
			<path class="st156" d="M431.1,264h-12.5c-0.2,0-0.3,0.2-0.3,0.3v0.7c0,1,0.8,1.7,1.7,1.7h9.7c1,0,1.7-0.8,1.7-1.7v-0.7
				C431.5,264.1,431.3,264,431.1,264z"/>
			<polygon class="st160" points="424.4,289.4 420,289.4 420,293.4 424.4,293.4 			"/>
			<polygon class="st160" points="424.6,250.4 420.5,250.4 420.5,254.3 424.6,254.3 			"/>
			<polygon class="st160" points="424.3,309 419.8,309 419.8,312.9 424.2,312.9 			"/>
			<polygon class="st160" points="424.7,243.9 420.6,243.9 420.5,247.8 424.6,247.8 			"/>
			<polygon class="st160" points="419.6,326.4 424.2,326.4 424.2,322 419.7,322 			"/>
			<polygon class="st160" points="425.2,237.3 421.1,237.3 421.1,241.3 425.1,241.3 			"/>
			<polygon class="st160" points="424.4,282.9 420.1,282.9 420.1,286.9 424.4,286.9 			"/>
			<polygon class="st160" points="424.2,315.5 419.7,315.5 419.7,319.5 424.2,319.5 			"/>
			<polygon class="st160" points="424.5,276.4 420.2,276.4 420.1,280.4 424.4,280.4 			"/>
			<polygon class="st160" points="424.3,296 420,296 419.9,299.9 424.3,299.9 			"/>
			<polygon class="st160" points="424.3,302.5 419.9,302.5 419.8,306.4 424.3,306.4 			"/>
			<polygon class="st160" points="424.5,269.9 420.3,269.9 420.2,273.9 424.5,273.9 			"/>
			<polygon class="st160" points="425,312.9 429.5,312.9 429.5,309 425,309 			"/>
			<polygon class="st160" points="425.2,273.9 429.5,273.9 429.5,269.9 425.2,269.9 			"/>
			<polygon class="st160" points="425.1,280.4 429.5,280.4 429.5,276.4 425.2,276.4 			"/>
			<polygon class="st160" points="425,299.9 429.5,299.9 429.5,296 425.1,296 			"/>
			<polygon class="st160" points="424.9,319.5 429.5,319.5 429.5,315.5 425,315.5 			"/>
			<polygon class="st160" points="425.1,286.9 429.5,286.9 429.5,282.9 425.1,282.9 			"/>
			<polygon class="st160" points="425.1,293.4 429.5,293.4 429.5,289.4 425.1,289.4 			"/>
			<polygon class="st160" points="425,306.4 429.5,306.4 429.5,302.5 425,302.5 			"/>
			<polygon class="st160" points="425.3,247.8 429.5,247.8 429.5,243.8 425.4,243.8 			"/>
			<polygon class="st160" points="425.8,241.3 430,241.3 430,237.3 425.9,237.3 			"/>
			<polygon class="st160" points="424.9,326.4 429.5,326.4 429.5,322 424.9,322 			"/>
			<polygon class="st160" points="425.3,254.3 429.5,254.3 429.5,250.4 425.3,250.4 			"/>
		</g>
		<g>
			<polygon class="st156" points="683.4,251.9 683.4,286.8 686.3,287.6 686.5,251.9 			"/>
			<linearGradient id="SVGID_32_" gradientUnits="userSpaceOnUse" x1="683.4124" y1="289.9741" x2="686.1624" y2="250.7241">
				<stop  offset="0.361" style="stop-color:#20A5BA"/>
				<stop  offset="0.8829" style="stop-color:#20A5BA;stop-opacity:0"/>
			</linearGradient>
			<polygon style="opacity:0.22;fill:url(#SVGID_32_);" points="683.4,251.9 683.4,286.8 686.3,287.6 686.5,251.9 			"/>
			<polyline class="st161" points="696.2,284.7 696.2,255.4 686.5,251.9 686.3,287.6 			"/>
			<polygon class="st253" points="686.4,262.3 696.2,264.3 696.2,264.9 686.4,263 			"/>
			<linearGradient id="SVGID_33_" gradientUnits="userSpaceOnUse" x1="690.486" y1="274.3551" x2="693.361" y2="253.8551">
				<stop  offset="0.1244" style="stop-color:#20C895"/>
				<stop  offset="0.4732" style="stop-color:#20A5BA"/>
				<stop  offset="0.8829" style="stop-color:#20A5BA;stop-opacity:0"/>
			</linearGradient>
			<polyline style="opacity:0.67;fill:url(#SVGID_33_);" points="696.2,284.7 696.2,255.4 686.5,251.9 686.3,287.6 			"/>
		</g>
		<g>
			<path class="st156" d="M685.6,271.4L685.6,271.4c-6.2,0.7-10.6,3.8-10.6,7.5v20.5l10.6,1.4V271.4z"/>
			<path class="st161" d="M685.6,271.4l4.3,1c0.9,0.2,1.6,0.7,1.6,1.3v25.6l-5.8,1.4V271.4z"/>
			<linearGradient id="SVGID_34_" gradientUnits="userSpaceOnUse" x1="700.2769" y1="257.3839" x2="684.0194" y2="296.1769">
				<stop  offset="0.361" style="stop-color:#20A5BA"/>
				<stop  offset="0.8829" style="stop-color:#20A5BA;stop-opacity:0"/>
			</linearGradient>
			<path style="opacity:0.22;fill:url(#SVGID_34_);" d="M685.6,271.4l4.3,1c0.9,0.2,1.6,0.7,1.6,1.3v25.6l-5.8,1.4V271.4z"/>
			<g>
				<path class="st163" d="M686.9,281.5L686.9,281.5c-0.3,0-0.5-0.2-0.5-0.5v-6.7c0-0.3,0.2-0.5,0.5-0.5l0,0c0.3,0,0.5,0.2,0.5,0.5
					v6.7C687.4,281.2,687.2,281.5,686.9,281.5z"/>
				<g>
					<defs>
						<path id="SVGID_109_" d="M686.9,281.5L686.9,281.5c-0.3,0-0.5-0.2-0.5-0.5v-6.7c0-0.3,0.2-0.5,0.5-0.5l0,0
							c0.3,0,0.5,0.2,0.5,0.5v6.7C687.4,281.2,687.2,281.5,686.9,281.5z"/>
					</defs>
					<clipPath id="SVGID_35_">
						<use xlink:href="#SVGID_109_"  style="overflow:visible;"/>
					</clipPath>
					<path style="clip-path:url(#SVGID_35_);fill:#2E2866;" d="M686.5,281.6L686.5,281.6c-0.3,0-0.5-0.2-0.5-0.5v-6.8
						c0-0.3,0.2-0.5,0.5-0.5l0,0c0.3,0,0.5,0.2,0.5,0.5v6.8C687,281.3,686.8,281.6,686.5,281.6z"/>
					<path style="clip-path:url(#SVGID_35_);fill:#201B52;" d="M689.8,290.9L689.8,290.9c-0.3,0-0.5-0.2-0.5-0.5v-6.7
						c0-0.3,0.2-0.5,0.5-0.5l0,0c0.3,0,0.5,0.2,0.5,0.5v6.7C690.3,290.7,690.1,290.9,689.8,290.9z"/>
				</g>
			</g>
			<g>
				<path class="st163" d="M686.9,297.4L686.9,297.4c-0.3,0-0.5-0.2-0.5-0.5v-3.1c0-0.3,0.2-0.5,0.5-0.5l0,0c0.3,0,0.5,0.2,0.5,0.5
					v3.1C687.4,297.1,687.2,297.4,686.9,297.4z"/>
				<g>
					<defs>
						<path id="SVGID_111_" d="M686.9,297.4L686.9,297.4c-0.3,0-0.5-0.2-0.5-0.5v-3.1c0-0.3,0.2-0.5,0.5-0.5l0,0
							c0.3,0,0.5,0.2,0.5,0.5v3.1C687.4,297.1,687.2,297.4,686.9,297.4z"/>
					</defs>
					<clipPath id="SVGID_36_">
						<use xlink:href="#SVGID_111_"  style="overflow:visible;"/>
					</clipPath>
					<path style="clip-path:url(#SVGID_36_);fill:#2E2866;" d="M686.5,297.4L686.5,297.4c-0.3,0-0.5-0.2-0.5-0.5v-3.2
						c0-0.3,0.2-0.5,0.5-0.5l0,0c0.3,0,0.5,0.2,0.5,0.5v3.2C687,297.2,686.8,297.4,686.5,297.4z"/>
					<path style="clip-path:url(#SVGID_36_);fill:#201B52;" d="M689.8,302.5L689.8,302.5c-0.3,0-0.5-0.2-0.5-0.5v-3.1
						c0-0.3,0.2-0.5,0.5-0.5l0,0c0.3,0,0.5,0.2,0.5,0.5v3.1C690.3,302.3,690.1,302.5,689.8,302.5z"/>
				</g>
			</g>
			<g>
				<path class="st163" d="M689.8,283.2L689.8,283.2c-0.3,0-0.5-0.2-0.5-0.5l0,0c0-0.3,0.2-0.5,0.5-0.5h0c0.3,0,0.5,0.2,0.5,0.5l0,0
					C690.3,282.9,690.1,283.2,689.8,283.2z"/>
				<g>
					<defs>
						<path id="SVGID_113_" d="M689.8,283.2L689.8,283.2c-0.3,0-0.5-0.2-0.5-0.5l0,0c0-0.3,0.2-0.5,0.5-0.5h0c0.3,0,0.5,0.2,0.5,0.5
							l0,0C690.3,282.9,690.1,283.2,689.8,283.2z"/>
					</defs>
					<clipPath id="SVGID_37_">
						<use xlink:href="#SVGID_113_"  style="overflow:visible;"/>
					</clipPath>
					<path style="clip-path:url(#SVGID_37_);fill:#2E2866;" d="M689.4,283.2L689.4,283.2c-0.3,0-0.5-0.2-0.5-0.5l0,0
						c0-0.3,0.2-0.5,0.5-0.5h0c0.3,0,0.5,0.2,0.5,0.5l0,0C689.9,282.9,689.7,283.2,689.4,283.2z"/>
					<path style="clip-path:url(#SVGID_37_);fill:#201B52;" d="M692.7,284.4L692.7,284.4c-0.3,0-0.5-0.2-0.5-0.5l0,0
						c0-0.3,0.2-0.5,0.5-0.5h0c0.3,0,0.5,0.2,0.5,0.5l0,0C693.2,284.2,693,284.4,692.7,284.4z"/>
				</g>
			</g>
			<g>
				<path class="st163" d="M689.8,278.6L689.8,278.6c-0.3,0-0.5-0.2-0.5-0.5v-1.4c0-0.3,0.2-0.5,0.5-0.5l0,0c0.3,0,0.5,0.2,0.5,0.5
					v1.4C690.3,278.4,690.1,278.6,689.8,278.6z"/>
				<g>
					<defs>
						<path id="SVGID_115_" d="M689.8,278.6L689.8,278.6c-0.3,0-0.5-0.2-0.5-0.5v-1.4c0-0.3,0.2-0.5,0.5-0.5l0,0
							c0.3,0,0.5,0.2,0.5,0.5v1.4C690.3,278.4,690.1,278.6,689.8,278.6z"/>
					</defs>
					<clipPath id="SVGID_38_">
						<use xlink:href="#SVGID_115_"  style="overflow:visible;"/>
					</clipPath>
					<path style="clip-path:url(#SVGID_38_);fill:#2E2866;" d="M689.4,278.6L689.4,278.6c-0.3,0-0.5-0.2-0.5-0.5v-1.4
						c0-0.3,0.2-0.5,0.5-0.5l0,0c0.3,0,0.5,0.2,0.5,0.5v1.4C689.9,278.4,689.7,278.6,689.4,278.6z"/>
					<path style="clip-path:url(#SVGID_38_);fill:#201B52;" d="M692.7,281.6L692.7,281.6c-0.3,0-0.5-0.2-0.5-0.5v-1.4
						c0-0.3,0.2-0.5,0.5-0.5l0,0c0.3,0,0.5,0.2,0.5,0.5v1.4C693.2,281.3,693,281.6,692.7,281.6z"/>
				</g>
			</g>
			<g>
				<path class="st163" d="M689.8,291.9L689.8,291.9c-0.3,0-0.5-0.2-0.5-0.5v-6.1c0-0.3,0.2-0.5,0.5-0.5l0,0c0.3,0,0.5,0.2,0.5,0.5
					v6.1C690.3,291.6,690.1,291.9,689.8,291.9z"/>
				<g>
					<defs>
						<path id="SVGID_117_" d="M689.8,291.9L689.8,291.9c-0.3,0-0.5-0.2-0.5-0.5v-6.1c0-0.3,0.2-0.5,0.5-0.5l0,0
							c0.3,0,0.5,0.2,0.5,0.5v6.1C690.3,291.6,690.1,291.9,689.8,291.9z"/>
					</defs>
					<clipPath id="SVGID_39_">
						<use xlink:href="#SVGID_117_"  style="overflow:visible;"/>
					</clipPath>
					<path style="clip-path:url(#SVGID_39_);fill:#2E2866;" d="M689.4,291.9L689.4,291.9c-0.3,0-0.5-0.2-0.5-0.5v-6.2
						c0-0.3,0.2-0.5,0.5-0.5l0,0c0.3,0,0.5,0.2,0.5,0.5v6.2C689.9,291.7,689.7,291.9,689.4,291.9z"/>
					<path style="clip-path:url(#SVGID_39_);fill:#201B52;" d="M692.7,300.6L692.7,300.6c-0.3,0-0.5-0.2-0.5-0.5V294
						c0-0.3,0.2-0.5,0.5-0.5l0,0c0.3,0,0.5,0.2,0.5,0.5v6.1C693.2,300.4,693,300.6,692.7,300.6z"/>
				</g>
			</g>
			<linearGradient id="SVGID_40_" gradientUnits="userSpaceOnUse" x1="691.4974" y1="273.4637" x2="672.0807" y2="300.4637">
				<stop  offset="0.361" style="stop-color:#20A5BA"/>
				<stop  offset="0.8829" style="stop-color:#20A5BA;stop-opacity:0"/>
			</linearGradient>
			<path style="opacity:0.67;fill:url(#SVGID_40_);" d="M685.6,271.4L685.6,271.4c-6.2,0.7-10.6,3.8-10.6,7.5v20.5l10.6,1.4V271.4z"
				/>
		</g>
		<g>
			<polygon class="st156" points="705.8,269.3 696,266.8 696,303.9 705.8,300.5 			"/>
			<polygon class="st161" points="687.3,268.4 696,266.8 696,303.9 687.3,302 			"/>
			<polygon class="st267" points="687.3,270.2 687.3,270.8 696,269.3 696,268.8 			"/>
			<polygon class="st267" points="687.3,273.5 687.3,274 696,272.8 696,272.3 			"/>
			<polygon class="st267" points="687.3,276.9 687.3,277.5 696,276.4 696,275.9 			"/>
			
				<linearGradient id="SVGID_41_" gradientUnits="userSpaceOnUse" x1="545.6091" y1="301.0177" x2="554.818" y2="265.4401" gradientTransform="matrix(-1.0859 0 0 1 1297.4675 0)">
				<stop  offset="0.3363" style="stop-color:#5177AB"/>
				<stop  offset="0.6585" style="stop-color:#20A5BA"/>
				<stop  offset="0.9707" style="stop-color:#20A5BA;stop-opacity:0.3"/>
			</linearGradient>
			<polygon style="opacity:0.83;fill:url(#SVGID_41_);" points="705.8,269.3 696,266.8 696,303.9 706.2,300.5 			"/>
			
				<linearGradient id="SVGID_43_" gradientUnits="userSpaceOnUse" x1="564.9509" y1="310.7773" x2="553.6378" y2="271.6017" gradientTransform="matrix(-1.0859 0 0 1 1297.4675 0)">
				<stop  offset="0" style="stop-color:#443869"/>
				<stop  offset="0.6585" style="stop-color:#20A5BA"/>
				<stop  offset="0.9707" style="stop-color:#20A5BA;stop-opacity:0.3"/>
			</linearGradient>
			<polygon style="opacity:0.83;fill:url(#SVGID_43_);" points="687.3,268.4 696,266.8 696,303.9 687.3,302 			"/>
		</g>
		<g>
			<linearGradient id="SVGID_44_" gradientUnits="userSpaceOnUse" x1="1008.4103" y1="344.3109" x2="1008.7476" y2="324.0738">
				<stop  offset="0.361" style="stop-color:#593E9C"/>
				<stop  offset="0.4498" style="stop-color:#57489C"/>
				<stop  offset="0.6027" style="stop-color:#52649D"/>
				<stop  offset="0.7998" style="stop-color:#49919E"/>
				<stop  offset="0.9707" style="stop-color:#40BD9F"/>
			</linearGradient>
			<rect x="1004.1" y="319.7" style="fill:url(#SVGID_44_);" width="8.3" height="67.3"/>
			<g>
				<g>
					
						<ellipse transform="matrix(0.9998 -2.101071e-02 2.101071e-02 0.9998 -6.3881 21.252)" class="st156" cx="1008.2" cy="314.6" rx="15.3" ry="12.8"/>
				</g>
				<g>
					
						<ellipse transform="matrix(0.9998 -2.101071e-02 2.101071e-02 0.9998 -6.3885 21.2389)" class="st157" cx="1007.6" cy="314.6" rx="12.7" ry="11.2"/>
				</g>
				<g>
					<circle class="st158" cx="1004.8" cy="315.3" r="6.4"/>
				</g>
				<g>
					<path class="st158" d="M1024.1,319.2l-32.4,0.7c-1.7,0-3.1-1.3-3.1-3l0-0.9c0-1.7,1.3-3.1,3-3.1l32.4-0.7c1.7,0,3.1,1.3,3.1,3
						l0,0.9C1027.2,317.7,1025.8,319.1,1024.1,319.2z"/>
				</g>
				<g>
					<path class="st156" d="M1025.9,321.5l-35.8,0.8c-1.8,0-3.4-1.4-3.4-3.3l0-1c0-1.8,1.4-3.4,3.3-3.4l35.8-0.8
						c1.8,0,3.4,1.4,3.4,3.3l0,1C1029.2,320,1027.7,321.5,1025.9,321.5z"/>
				</g>
				<g>
					<path class="st30" d="M990.5,318.7c-0.2-0.1-0.4-0.3-0.4-0.6c0-0.3,0.3-0.6,0.6-0.6l6.2-0.1c0.3,0,0.6,0.3,0.6,0.6
						c0,0.3-0.3,0.6-0.6,0.6l-6.2,0.1C990.7,318.8,990.6,318.7,990.5,318.7z"/>
				</g>
				<g>
					<path class="st30" d="M999.7,318.5c-0.2-0.1-0.4-0.3-0.4-0.6c0-0.3,0.3-0.6,0.6-0.6l1.3,0c0.3,0,0.6,0.3,0.6,0.6
						c0,0.3-0.3,0.6-0.6,0.6l-1.3,0C999.8,318.6,999.7,318.6,999.7,318.5z"/>
				</g>
				<g>
					<path class="st30" d="M1003.7,318.5c-0.2-0.1-0.4-0.3-0.4-0.6c0-0.3,0.3-0.6,0.6-0.6l8.8-0.2c0.3,0,0.6,0.3,0.6,0.6
						c0,0.3-0.3,0.6-0.6,0.6l-8.8,0.2C1003.8,318.5,1003.8,318.5,1003.7,318.5z"/>
				</g>
				<g>
					<path class="st30" d="M1015.4,318.2c-0.2-0.1-0.4-0.3-0.4-0.6c0-0.3,0.3-0.6,0.6-0.6l3.9-0.1c0.3,0,0.6,0.3,0.6,0.6
						c0,0.3-0.3,0.6-0.6,0.6l-3.9,0.1C1015.5,318.2,1015.4,318.2,1015.4,318.2z"/>
				</g>
				<g>
					<path class="st30" d="M1021.8,318.1c-0.2-0.1-0.4-0.3-0.4-0.6c0-0.3,0.3-0.6,0.6-0.6l3.6-0.1c0.3,0,0.6,0.3,0.6,0.6
						c0,0.3-0.3,0.6-0.6,0.6l-3.6,0.1C1021.9,318.1,1021.9,318.1,1021.8,318.1z"/>
				</g>
				<g>
					<path class="st30" d="M996,310.2C996,310.2,996,310.2,996,310.2c-0.2-0.1-0.3-0.3-0.2-0.5c0.5-1.1,0.9-1.7,1.5-2.3
						c0.6-0.7,1.3-1.2,2.1-1.8c0.2-0.1,0.4,0,0.5,0.1c0.1,0.2,0.1,0.4-0.1,0.5c-0.8,0.5-1.4,1-1.9,1.7c-0.5,0.6-1,1.2-1.4,2.1
						C996.4,310.2,996.2,310.2,996,310.2z"/>
				</g>
				<g>
					<circle class="st30" cx="1001.5" cy="304.8" r="0.6"/>
				</g>
			</g>
		</g>
		<g>
			<path class="st156" d="M714.9,243.1L714.9,243.1c-7.7,1.4-13.2,8.1-13.2,15.9v43.7l13.2,2.9V243.1z"/>
			<path class="st161" d="M714.9,243.1l5.3,2.1c1.2,0.5,1.9,1.6,1.9,2.8v54.6l-7.3,2.9V243.1z"/>
			<linearGradient id="SVGID_45_" gradientUnits="userSpaceOnUse" x1="742.9219" y1="214.6337" x2="709.1595" y2="295.1965">
				<stop  offset="0.361" style="stop-color:#20A5BA"/>
				<stop  offset="0.8829" style="stop-color:#20A5BA;stop-opacity:0"/>
			</linearGradient>
			<path class="st167" d="M714.9,243.1l5.3,2.1c1.2,0.5,1.9,1.6,1.9,2.8v54.6l-7.3,2.9V243.1z"/>
			<g>
				<path class="st163" d="M716.6,264.5h-0.2c-0.3,0-0.6-0.2-0.6-0.6v-15.3c0-0.3,0.2-0.6,0.6-0.6h0.2c0.3,0,0.6,0.2,0.6,0.6V264
					C717.1,264.3,716.9,264.5,716.6,264.5z"/>
				<g>
					<defs>
						<path id="SVGID_124_" d="M716.6,264.5h-0.2c-0.3,0-0.6-0.2-0.6-0.6v-15.3c0-0.3,0.2-0.6,0.6-0.6h0.2c0.3,0,0.6,0.2,0.6,0.6
							V264C717.1,264.3,716.9,264.5,716.6,264.5z"/>
					</defs>
					<clipPath id="SVGID_47_">
						<use xlink:href="#SVGID_124_"  style="overflow:visible;"/>
					</clipPath>
					<path class="st168" d="M716.1,264.8h-0.2c-0.3,0-0.6-0.2-0.6-0.6v-15.5c0-0.3,0.2-0.6,0.6-0.6h0.2c0.3,0,0.6,0.2,0.6,0.6v15.5
						C716.6,264.5,716.4,264.8,716.1,264.8z"/>
					<path class="st169" d="M720.2,284.7H720c-0.3,0-0.6-0.2-0.6-0.6v-15.3c0-0.3,0.2-0.6,0.6-0.6h0.2c0.3,0,0.6,0.2,0.6,0.6v15.3
						C720.7,284.5,720.5,284.7,720.2,284.7z"/>
				</g>
			</g>
			<g>
				<path class="st163" d="M716.6,298.5h-0.2c-0.3,0-0.6-0.2-0.6-0.6v-7.8c0-0.3,0.2-0.6,0.6-0.6h0.2c0.3,0,0.6,0.2,0.6,0.6v7.8
					C717.1,298.2,716.9,298.5,716.6,298.5z"/>
				<g>
					<defs>
						<path id="SVGID_126_" d="M716.6,298.5h-0.2c-0.3,0-0.6-0.2-0.6-0.6v-7.8c0-0.3,0.2-0.6,0.6-0.6h0.2c0.3,0,0.6,0.2,0.6,0.6v7.8
							C717.1,298.2,716.9,298.5,716.6,298.5z"/>
					</defs>
					<clipPath id="SVGID_48_">
						<use xlink:href="#SVGID_126_"  style="overflow:visible;"/>
					</clipPath>
					<path style="clip-path:url(#SVGID_48_);fill:#2E2866;" d="M716.1,298.6h-0.2c-0.3,0-0.6-0.2-0.6-0.6v-7.9
						c0-0.3,0.2-0.6,0.6-0.6h0.2c0.3,0,0.6,0.2,0.6,0.6v7.9C716.6,298.4,716.4,298.6,716.1,298.6z"/>
					<path style="clip-path:url(#SVGID_48_);fill:#201B52;" d="M720.2,309.4H720c-0.3,0-0.6-0.2-0.6-0.6v-7.8c0-0.3,0.2-0.6,0.6-0.6
						h0.2c0.3,0,0.6,0.2,0.6,0.6v7.8C720.7,309.2,720.5,309.4,720.2,309.4z"/>
				</g>
			</g>
			<g>
				<path class="st163" d="M720.2,268.1H720c-0.3,0-0.6-0.2-0.6-0.6v-1c0-0.3,0.2-0.6,0.6-0.6h0.2c0.3,0,0.6,0.2,0.6,0.6v1
					C720.7,267.9,720.5,268.1,720.2,268.1z"/>
				<g>
					<defs>
						<path id="SVGID_128_" d="M720.2,268.1H720c-0.3,0-0.6-0.2-0.6-0.6v-1c0-0.3,0.2-0.6,0.6-0.6h0.2c0.3,0,0.6,0.2,0.6,0.6v1
							C720.7,267.9,720.5,268.1,720.2,268.1z"/>
					</defs>
					<clipPath id="SVGID_49_">
						<use xlink:href="#SVGID_128_"  style="overflow:visible;"/>
					</clipPath>
					<path style="clip-path:url(#SVGID_49_);fill:#2E2866;" d="M719.7,268.2h-0.2c-0.3,0-0.6-0.2-0.6-0.6v-1c0-0.3,0.2-0.6,0.6-0.6
						h0.2c0.3,0,0.6,0.2,0.6,0.6v1C720.2,267.9,720,268.2,719.7,268.2z"/>
					<path style="clip-path:url(#SVGID_49_);fill:#201B52;" d="M723.8,270.8h-0.2c-0.3,0-0.6-0.2-0.6-0.6v-1c0-0.3,0.2-0.6,0.6-0.6
						h0.2c0.3,0,0.6,0.2,0.6,0.6v1C724.3,270.5,724.1,270.8,723.8,270.8z"/>
				</g>
			</g>
			<g>
				<path class="st163" d="M720.2,258.5H720c-0.3,0-0.6-0.2-0.6-0.6v-4c0-0.3,0.2-0.6,0.6-0.6h0.2c0.3,0,0.6,0.2,0.6,0.6v4
					C720.7,258.2,720.5,258.5,720.2,258.5z"/>
				<g>
					<defs>
						<path id="SVGID_130_" d="M720.2,258.5H720c-0.3,0-0.6-0.2-0.6-0.6v-4c0-0.3,0.2-0.6,0.6-0.6h0.2c0.3,0,0.6,0.2,0.6,0.6v4
							C720.7,258.2,720.5,258.5,720.2,258.5z"/>
					</defs>
					<clipPath id="SVGID_50_">
						<use xlink:href="#SVGID_130_"  style="overflow:visible;"/>
					</clipPath>
					<path style="clip-path:url(#SVGID_50_);fill:#2E2866;" d="M719.7,258.5h-0.2c-0.3,0-0.6-0.2-0.6-0.6v-4.1
						c0-0.3,0.2-0.6,0.6-0.6h0.2c0.3,0,0.6,0.2,0.6,0.6v4.1C720.2,258.3,720,258.5,719.7,258.5z"/>
					<path style="clip-path:url(#SVGID_50_);fill:#201B52;" d="M723.8,264.7h-0.2c-0.3,0-0.6-0.2-0.6-0.6v-4c0-0.3,0.2-0.6,0.6-0.6
						h0.2c0.3,0,0.6,0.2,0.6,0.6v4C724.3,264.5,724.1,264.7,723.8,264.7z"/>
				</g>
			</g>
			<g>
				<path class="st163" d="M720.2,286.7H720c-0.3,0-0.6-0.2-0.6-0.6V272c0-0.3,0.2-0.6,0.6-0.6h0.2c0.3,0,0.6,0.2,0.6,0.6v14.1
					C720.7,286.5,720.5,286.7,720.2,286.7z"/>
				<g>
					<defs>
						<path id="SVGID_132_" d="M720.2,286.7H720c-0.3,0-0.6-0.2-0.6-0.6V272c0-0.3,0.2-0.6,0.6-0.6h0.2c0.3,0,0.6,0.2,0.6,0.6v14.1
							C720.7,286.5,720.5,286.7,720.2,286.7z"/>
					</defs>
					<clipPath id="SVGID_51_">
						<use xlink:href="#SVGID_132_"  style="overflow:visible;"/>
					</clipPath>
					<path style="clip-path:url(#SVGID_51_);fill:#2E2866;" d="M719.7,286.9h-0.2c-0.3,0-0.6-0.2-0.6-0.6V272c0-0.3,0.2-0.6,0.6-0.6
						h0.2c0.3,0,0.6,0.2,0.6,0.6v14.3C720.2,286.7,720,286.9,719.7,286.9z"/>
					<path style="clip-path:url(#SVGID_51_);fill:#201B52;" d="M723.8,305.5h-0.2c-0.3,0-0.6-0.2-0.6-0.6v-14.1
						c0-0.3,0.2-0.6,0.6-0.6h0.2c0.3,0,0.6,0.2,0.6,0.6v14.1C724.3,305.2,724.1,305.5,723.8,305.5z"/>
				</g>
			</g>
			<linearGradient id="SVGID_52_" gradientUnits="userSpaceOnUse" x1="719.4639" y1="230.299" x2="710.0261" y2="273.4021">
				<stop  offset="0.361" style="stop-color:#20A5BA"/>
				<stop  offset="0.8829" style="stop-color:#20A5BA;stop-opacity:0"/>
			</linearGradient>
			<path style="opacity:0.67;fill:url(#SVGID_52_);" d="M714.9,243.1L714.9,243.1c-7.7,1.4-13.2,8.1-13.2,15.9v43.7l13.2,2.9V243.1z
				"/>
		</g>
		
			<ellipse transform="matrix(0.9962 -8.669215e-02 8.669215e-02 0.9962 -27.6497 45.0488)" class="st224" cx="504.8" cy="340.9" rx="24" ry="12.2"/>
		<ellipse class="st225" cx="860.5" cy="417.1" rx="47.2" ry="24"/>
		<path class="st190" d="M751.1,301.3l9.3-3.1l2,2.3c0,0,9.2,1.9,10,2.1c0.8,0.1,3.9,1.6,3.9,1.6s-12.4-1.1-13-1s-15.1,1-15.1,1
			l-11.2,2.7c0,0,7.6-3.3,7.8-3.2C745.1,303.8,751.1,301.3,751.1,301.3z"/>
		<path class="st190" d="M774.7,288.9l6.1,8.4c0,0,16,12,16.9,13.2c0.9,1.2,17.3,15.5,20.6,18.4c3.3,2.9,16.5,15.1,16.5,15.1
			l-37.3-17.1l-19.9-29L774.7,288.9z"/>
		
			<ellipse transform="matrix(0.9962 -8.669215e-02 8.669215e-02 0.9962 -34.4774 29.5954)" class="st189" cx="323.5" cy="411.7" rx="24" ry="12.2"/>
		<path class="st188" d="M379.5,344.9l13.2-13.8c0,0,12,0.1,18.7-2.5c6.7-2.5,17.6-13.8,17.6-13.8l5,5.6l1.9,4.5l7.9,2.7l13.1,1
			C431.5,331.1,404.8,337.4,379.5,344.9z"/>
		<path class="st189" d="M437.2,316.1l2.7,2.2l3,2.6l1.8,1.6l1.2,1.5c0,0,5.3,3,5.8,3.3c0.5,0.3,6.7,0.9,6.7,0.9l6.8,1.7l-4.2-0.2
			l-8.9-0.8l-7.9-2.7l-2.4-4.7L437.2,316.1z"/>
		<g class="st120">
			<polygon class="st156" points="610.5,243.6 621.2,239.5 621.2,299.6 610,299.6 			"/>
			<polygon class="st161" points="630.7,242.2 621.2,239.5 621.2,299.6 630.7,296.5 			"/>
			<polygon class="st267" points="630.7,245.1 630.7,245.9 621.2,243.6 621.2,242.7 			"/>
			<polygon class="st267" points="630.7,250.4 630.7,251.2 621.2,249.2 621.2,248.3 			"/>
			<polygon class="st267" points="630.7,255.9 630.7,256.8 621.2,255 621.2,254.2 			"/>
			<linearGradient id="SVGID_53_" gradientUnits="userSpaceOnUse" x1="608.9937" y1="298.0219" x2="624.6202" y2="237.6504">
				<stop  offset="0.3363" style="stop-color:#20A56A"/>
				<stop  offset="0.6585" style="stop-color:#20A5BA"/>
				<stop  offset="0.9707" style="stop-color:#20A5BA;stop-opacity:0.3"/>
			</linearGradient>
			<polygon style="opacity:0.83;fill:url(#SVGID_53_);" points="610.5,243.6 621.2,239.5 621.2,299.6 610,299.6 			"/>
			<linearGradient id="SVGID_54_" gradientUnits="userSpaceOnUse" x1="637.3587" y1="310.434" x2="619.2305" y2="247.6586">
				<stop  offset="0" style="stop-color:#20A56A"/>
				<stop  offset="0.6585" style="stop-color:#20A5BA"/>
				<stop  offset="0.9707" style="stop-color:#20A5BA;stop-opacity:0.3"/>
			</linearGradient>
			<polygon style="opacity:0.83;fill:url(#SVGID_54_);" points="630.7,242.2 621.2,239.5 621.2,299.6 630.7,296.5 			"/>
		</g>
		<g>
			<polygon class="st156" points="618.2,281.3 626.5,272 626.5,304.2 618.2,302.6 			"/>
			<linearGradient id="SVGID_55_" gradientUnits="userSpaceOnUse" x1="622.2657" y1="268.1574" x2="622.3782" y2="294.7121">
				<stop  offset="0.361" style="stop-color:#20A5BA"/>
				<stop  offset="0.8829" style="stop-color:#20A5BA;stop-opacity:0"/>
			</linearGradient>
			<polygon style="opacity:0.22;fill:url(#SVGID_55_);" points="618.2,281.3 626.5,272 626.5,304.2 618.2,302.6 			"/>
			<polygon class="st161" points="636.1,273.4 626.5,272 626.5,304.2 636.1,305.4 			"/>
			<linearGradient id="SVGID_56_" gradientUnits="userSpaceOnUse" x1="631.6299" y1="268.3638" x2="631.2086" y2="296.4226">
				<stop  offset="0.361" style="stop-color:#20A5BA"/>
				<stop  offset="0.8829" style="stop-color:#20A5BA;stop-opacity:0"/>
			</linearGradient>
			<polygon style="opacity:0.67;fill:url(#SVGID_56_);" points="636.1,273.4 626.5,272 626.5,304.2 636.1,305.4 			"/>
			<polygon class="st156" points="633.7,266.7 633.7,296.9 637.8,297.7 637.8,266.7 			"/>
			<linearGradient id="SVGID_57_" gradientUnits="userSpaceOnUse" x1="635.6485" y1="263.0716" x2="635.7353" y2="285.3743">
				<stop  offset="0.361" style="stop-color:#20A5BA"/>
				<stop  offset="0.8829" style="stop-color:#20A5BA;stop-opacity:0"/>
			</linearGradient>
			<polygon style="opacity:0.22;fill:url(#SVGID_57_);" points="633.7,266.7 633.7,298.6 637.8,297.7 637.8,266.7 			"/>
			<polygon class="st161" points="650.7,270.4 637.8,266.7 637.5,305.4 642.6,304.8 650.7,304.2 			"/>
			<linearGradient id="SVGID_58_" gradientUnits="userSpaceOnUse" x1="642.2227" y1="253.3624" x2="644.556" y2="296.6957">
				<stop  offset="0.1293" style="stop-color:#205FBA"/>
				<stop  offset="0.361" style="stop-color:#20A5BA"/>
				<stop  offset="0.8829" style="stop-color:#20A5BA;stop-opacity:0"/>
			</linearGradient>
			<polygon style="opacity:0.42;fill:url(#SVGID_58_);" points="650.7,270.4 637.8,266.7 637.5,305.4 642.6,304.8 650.7,304.2 			
				"/>
			<polyline class="st290" points="636.1,306.2 622.3,304 622.3,296.6 636.3,297.4 642.6,296.6 642.6,305.4 636.1,306.2 			"/>
			<linearGradient id="SVGID_60_" gradientUnits="userSpaceOnUse" x1="637.9671" y1="300.9173" x2="623.9984" y2="301.6934">
				<stop  offset="0.361" style="stop-color:#20A5BA"/>
				<stop  offset="0.8829" style="stop-color:#20A5BA;stop-opacity:0"/>
			</linearGradient>
			<polyline style="opacity:0.22;fill:url(#SVGID_60_);" points="636.1,306.2 622.3,304 622.3,296.6 636.3,297.4 642.6,296.6 
				642.6,305.4 636.1,306.2 			"/>
		</g>
		<g class="st292">
			<linearGradient id="SVGID_62_" gradientUnits="userSpaceOnUse" x1="610.1406" y1="293.7603" x2="609.3605" y2="219.1986">
				<stop  offset="0.361" style="stop-color:#593E9C"/>
				<stop  offset="0.4498" style="stop-color:#57489C"/>
				<stop  offset="0.6027" style="stop-color:#52649D"/>
				<stop  offset="0.7998" style="stop-color:#49919E"/>
				<stop  offset="0.9707" style="stop-color:#40BD9F"/>
			</linearGradient>
			<path style="fill:url(#SVGID_62_);" d="M607,229.7c0.1-4.3,6.5-4.3,6.7-0.1c0,0,0,0.1,0,0.1c0,3.4,0.3,65.3,0.3,65.3
				c0,2-1.7,3.7-3.7,3.7h-0.8c-2,0-3.7-1.7-3.7-3.7C605.9,295,607,232.7,607,229.7C607,229.7,607,229.7,607,229.7z"/>
			<path class="st156" d="M606.2,232.7h8.1c0.1,0,0.3-0.1,0.3-0.3v-0.2c0-0.7-0.6-1.3-1.3-1.3h-6c-0.7,0-1.3,0.6-1.3,1.3v0.2
				C605.9,232.6,606,232.7,606.2,232.7z"/>
			<path class="st156" d="M614,253.9h-8.2c-0.1,0-0.2,0.1-0.2,0.2v0.5c0,0.6,0.5,1.1,1.1,1.1h6.4c0.6,0,1.1-0.5,1.1-1.1v-0.5
				C614.3,254,614.2,253.9,614,253.9z"/>
			<polygon class="st160" points="609.6,270.6 606.8,270.6 606.7,273.2 609.6,273.2 			"/>
			<polygon class="st160" points="609.8,244.9 607.1,244.9 607,247.5 609.7,247.5 			"/>
			<polygon class="st160" points="609.5,283.4 606.6,283.4 606.6,286 609.5,286 			"/>
			<polygon class="st160" points="609.8,240.7 607.1,240.7 607.1,243.3 609.8,243.3 			"/>
			<polygon class="st160" points="606.5,294.9 609.5,294.9 609.5,292 606.5,292 			"/>
			<polygon class="st160" points="610.1,236.4 607.5,236.4 607.4,239 610.1,239 			"/>
			<polygon class="st160" points="609.6,266.3 606.8,266.3 606.8,268.9 609.6,268.9 			"/>
			<polygon class="st160" points="609.5,287.7 606.5,287.7 606.5,290.3 609.5,290.3 			"/>
			<polygon class="st160" points="609.7,262.1 606.9,262.1 606.8,264.7 609.6,264.7 			"/>
			<polygon class="st160" points="609.6,274.9 606.7,274.9 606.7,277.5 609.6,277.5 			"/>
			<polygon class="st160" points="609.5,279.2 606.6,279.2 606.6,281.8 609.5,281.8 			"/>
			<polygon class="st160" points="609.7,257.8 606.9,257.8 606.9,260.4 609.7,260.4 			"/>
			<polygon class="st160" points="610,286 613,286 613,283.4 610,283.4 			"/>
			<polygon class="st160" points="610.1,260.4 613,260.4 613,257.8 610.1,257.8 			"/>
			<polygon class="st160" points="610.1,264.7 613,264.7 613,262.1 610.1,262.1 			"/>
			<polygon class="st160" points="610,277.5 613,277.5 613,274.9 610.1,274.9 			"/>
			<polygon class="st160" points="610,290.3 613,290.3 613,287.7 610,287.7 			"/>
			<polygon class="st160" points="610.1,268.9 613,268.9 613,266.3 610.1,266.3 			"/>
			<polygon class="st160" points="610.1,273.2 613,273.2 613,270.6 610.1,270.6 			"/>
			<polygon class="st160" points="610,281.8 613,281.8 613,279.2 610,279.2 			"/>
			<polygon class="st160" points="610.2,243.3 613,243.3 613,240.7 610.2,240.7 			"/>
			<polygon class="st160" points="610.6,239 613.3,239 613.3,236.4 610.6,236.4 			"/>
			<polygon class="st160" points="609.9,294.9 613,294.9 613,292 610,292 			"/>
			<polygon class="st160" points="610.2,247.5 613,247.5 613,244.9 610.2,244.9 			"/>
		</g>
		<g>
			<linearGradient id="SVGID_64_" gradientUnits="userSpaceOnUse" x1="666.1191" y1="237.1082" x2="666.7595" y2="198.6859">
				<stop  offset="0.361" style="stop-color:#593E9C"/>
				<stop  offset="0.4498" style="stop-color:#57489C"/>
				<stop  offset="0.6027" style="stop-color:#52649D"/>
				<stop  offset="0.7998" style="stop-color:#49919E"/>
				<stop  offset="0.9707" style="stop-color:#40BD9F"/>
			</linearGradient>
			<path style="fill:url(#SVGID_64_);" d="M681,190.6h-30.3v124.6c9.9,4.3,20.1,4.4,30.3,0V190.6z"/>
			<linearGradient id="SVGID_66_" gradientUnits="userSpaceOnUse" x1="666.1061" y1="220.4928" x2="665.8358" y2="194.6543">
				<stop  offset="0.361" style="stop-color:#1D3E9C;stop-opacity:0"/>
				<stop  offset="0.4541" style="stop-color:#20489C;stop-opacity:7.286076e-02"/>
				<stop  offset="0.6143" style="stop-color:#27649D;stop-opacity:0.1982"/>
				<stop  offset="0.8209" style="stop-color:#34919E;stop-opacity:0.3599"/>
				<stop  offset="1" style="stop-color:#40BD9F;stop-opacity:0.5"/>
			</linearGradient>
			<path style="fill:url(#SVGID_66_);" d="M639.8,197.4l-1,17.5c21.6,10,32.8,9.4,54.4-0.5l-1.3-17H639.8z"/>
			<path class="st156" d="M691.9,169.1c0-15.7-11.7-28.4-26-28.4s-26,12.7-26,28.4c0,0.3,0,0.6,0,0.9h0v27.5
				c17.4,2.9,34.7,2.9,52.1,0V170h0C691.9,169.7,691.9,169.4,691.9,169.1z"/>
			<linearGradient id="SVGID_68_" gradientUnits="userSpaceOnUse" x1="631.2232" y1="117.8951" x2="665.8555" y2="179.2612">
				<stop  offset="0.361" style="stop-color:#20A5BA"/>
				<stop  offset="0.8829" style="stop-color:#20A5BA;stop-opacity:0"/>
			</linearGradient>
			<path style="opacity:0.22;fill:url(#SVGID_68_);" d="M691.9,169.1c0-15.7-11.7-28.4-26-28.4s-26,12.7-26,28.4c0,0.3,0,0.6,0,0.9
				h0v27.5c17.4,2.9,34.7,2.9,52.1,0V170h0C691.9,169.7,691.9,169.4,691.9,169.1z"/>
			<g>
				<path class="st30" d="M648.2,153.8C648.2,153.8,648.1,153.7,648.2,153.8c-0.4-0.3-0.4-0.7-0.3-1c1.2-2,2.2-3.1,3.5-4.2
					c1.3-1.2,2.7-2.1,4.4-3c0.3-0.1,0.7,0,0.8,0.3c0.2,0.4,0,0.8-0.3,0.9c-1.6,0.8-2.8,1.7-4.1,2.8c-1.1,1-2.1,2.1-3.2,3.9
					C648.8,153.8,648.5,153.9,648.2,153.8z"/>
			</g>
			<g>
				<ellipse class="st30" cx="659.9" cy="144.5" rx="1.1" ry="1.2"/>
			</g>
			<g>
				<path class="st197" d="M643.5,192.9c0,0.5-0.5,0.8-0.9,0.7c-0.5,0-0.8-0.5-0.7-0.9c0-0.5,0.5-0.8,0.9-0.7
					C643.2,192,643.6,192.5,643.5,192.9z"/>
				<path class="st197" d="M648.6,193.4c0,0.5-0.4,0.8-0.9,0.8c-0.5,0-0.8-0.4-0.8-0.9c0-0.5,0.4-0.8,0.9-0.7
					C648.3,192.5,648.6,192.9,648.6,193.4z"/>
				<path class="st197" d="M653.6,193.7c0,0.5-0.4,0.8-0.9,0.8c-0.5,0-0.8-0.4-0.8-0.9c0-0.5,0.4-0.8,0.9-0.8
					S653.6,193.2,653.6,193.7z"/>
				<path class="st197" d="M658.7,193.9c0,0.5-0.4,0.8-0.9,0.8c-0.5,0-0.8-0.4-0.8-0.9s0.4-0.8,0.9-0.8
					C658.3,193.1,658.7,193.5,658.7,193.9z"/>
				<path class="st197" d="M663.7,194c0,0.5-0.4,0.8-0.8,0.8c-0.5,0-0.8-0.4-0.8-0.8c0-0.5,0.4-0.8,0.8-0.8
					C663.4,193.2,663.8,193.6,663.7,194z"/>
				<path class="st197" d="M668.8,194c0,0.5-0.4,0.8-0.8,0.8c-0.5,0-0.8-0.4-0.8-0.8c0-0.5,0.4-0.8,0.8-0.8
					C668.4,193.2,668.8,193.5,668.8,194z"/>
				<path class="st197" d="M673.9,193.9c0,0.5-0.3,0.8-0.8,0.9c-0.5,0-0.8-0.3-0.9-0.8c0-0.5,0.3-0.8,0.8-0.8
					C673.5,193.1,673.9,193.4,673.9,193.9z"/>
				<path class="st197" d="M678.9,193.6c0,0.5-0.3,0.8-0.8,0.9c-0.5,0-0.8-0.3-0.9-0.8c0-0.5,0.3-0.8,0.8-0.9
					C678.5,192.8,678.9,193.2,678.9,193.6z"/>
				<path class="st197" d="M684,193.2c0,0.5-0.3,0.9-0.8,0.9c-0.5,0-0.9-0.3-0.9-0.8c0-0.5,0.3-0.8,0.8-0.9
					C683.6,192.4,684,192.8,684,193.2z"/>
				<path class="st197" d="M689,192.7c0,0.5-0.3,0.9-0.7,0.9c-0.5,0-0.9-0.3-0.9-0.7c0-0.5,0.3-0.9,0.7-0.9
					C688.6,192,689,192.3,689,192.7z"/>
			</g>
		</g>
		<g>
			<path class="st156" d="M610.7,264.5L610.7,264.5c-12.3,1-21.1,5.4-21.1,10.6v29.1l21.1,2V264.5z"/>
			<path class="st161" d="M610.7,264.5l8.5,1.4c1.9,0.3,3.1,1.1,3.1,1.9v36.4l-11.6,1.9V264.5z"/>
			<linearGradient id="SVGID_69_" gradientUnits="userSpaceOnUse" x1="633.6238" y1="243.5279" x2="609.8584" y2="300.2361">
				<stop  offset="0.361" style="stop-color:#20A5BA"/>
				<stop  offset="0.8829" style="stop-color:#20A5BA;stop-opacity:0"/>
			</linearGradient>
			<path style="opacity:0.67;fill:url(#SVGID_69_);" d="M610.7,264.5l8.5,1.4c1.9,0.3,3.1,1.1,3.1,1.9v36.4l-11.6,1.9V264.5z"/>
			<g>
				<path class="st163" d="M613.2,278.8L613.2,278.8c-0.6,0-1-0.5-1-1v-8.9c0-0.6,0.5-1,1-1l0,0c0.6,0,1,0.5,1,1v8.9
					C614.2,278.4,613.8,278.8,613.2,278.8z"/>
				<g>
					<defs>
						<path id="SVGID_148_" d="M613.2,278.8L613.2,278.8c-0.6,0-1-0.5-1-1v-8.9c0-0.6,0.5-1,1-1l0,0c0.6,0,1,0.5,1,1v8.9
							C614.2,278.4,613.8,278.8,613.2,278.8z"/>
					</defs>
					<clipPath id="SVGID_70_">
						<use xlink:href="#SVGID_148_"  style="overflow:visible;"/>
					</clipPath>
					<path style="clip-path:url(#SVGID_70_);fill:#2E2866;" d="M612.5,279L612.5,279c-0.6,0-1-0.5-1-1v-9.1c0-0.6,0.5-1,1-1l0,0
						c0.6,0,1,0.5,1,1v9.1C613.5,278.5,613,279,612.5,279z"/>
					<path style="clip-path:url(#SVGID_70_);fill:#201B52;" d="M619,292.3L619,292.3c-0.6,0-1-0.5-1-1v-8.9c0-0.6,0.5-1,1-1l0,0
						c0.6,0,1,0.5,1,1v8.9C620,291.9,619.5,292.3,619,292.3z"/>
				</g>
			</g>
			<g>
				<path class="st163" d="M613.2,301.5L613.2,301.5c-0.6,0-1-0.5-1-1v-3.9c0-0.6,0.5-1,1-1l0,0c0.6,0,1,0.5,1,1v3.9
					C614.2,301,613.8,301.5,613.2,301.5z"/>
				<g>
					<defs>
						<path id="SVGID_150_" d="M613.2,301.5L613.2,301.5c-0.6,0-1-0.5-1-1v-3.9c0-0.6,0.5-1,1-1l0,0c0.6,0,1,0.5,1,1v3.9
							C614.2,301,613.8,301.5,613.2,301.5z"/>
					</defs>
					<clipPath id="SVGID_71_">
						<use xlink:href="#SVGID_150_"  style="overflow:visible;"/>
					</clipPath>
					<path style="clip-path:url(#SVGID_71_);fill:#2E2866;" d="M612.5,301.6L612.5,301.6c-0.6,0-1-0.5-1-1v-4c0-0.6,0.5-1,1-1l0,0
						c0.6,0,1,0.5,1,1v4C613.5,301.1,613,301.6,612.5,301.6z"/>
					<path style="clip-path:url(#SVGID_71_);fill:#201B52;" d="M619,308.8L619,308.8c-0.6,0-1-0.5-1-1v-3.9c0-0.6,0.5-1,1-1l0,0
						c0.6,0,1,0.5,1,1v3.9C620,308.3,619.5,308.8,619,308.8z"/>
				</g>
			</g>
			<g>
				<path class="st163" d="M619.3,281.2h-0.6c-0.4,0-0.7-0.3-0.7-0.7l0,0c0-0.4,0.3-0.7,0.7-0.7h0.6c0.4,0,0.7,0.3,0.7,0.7l0,0
					C620,280.9,619.7,281.2,619.3,281.2z"/>
				<g>
					<defs>
						<path id="SVGID_152_" d="M619.3,281.2h-0.6c-0.4,0-0.7-0.3-0.7-0.7l0,0c0-0.4,0.3-0.7,0.7-0.7h0.6c0.4,0,0.7,0.3,0.7,0.7l0,0
							C620,280.9,619.7,281.2,619.3,281.2z"/>
					</defs>
					<clipPath id="SVGID_73_">
						<use xlink:href="#SVGID_152_"  style="overflow:visible;"/>
					</clipPath>
					<path class="st213" d="M618.5,281.3h-0.6c-0.4,0-0.7-0.3-0.7-0.7l0,0c0-0.4,0.3-0.7,0.7-0.7h0.6c0.4,0,0.7,0.3,0.7,0.7l0,0
						C619.2,280.9,618.9,281.3,618.5,281.3z"/>
					<path class="st214" d="M625,283h-0.6c-0.4,0-0.7-0.3-0.7-0.7l0,0c0-0.4,0.3-0.7,0.7-0.7h0.6c0.4,0,0.7,0.3,0.7,0.7l0,0
						C625.8,282.7,625.4,283,625,283z"/>
				</g>
			</g>
			<g>
				<path class="st163" d="M619,274.8L619,274.8c-0.6,0-1-0.5-1-1v-1.4c0-0.6,0.5-1,1-1l0,0c0.6,0,1,0.5,1,1v1.4
					C620,274.3,619.5,274.8,619,274.8z"/>
				<g>
					<defs>
						<path id="SVGID_154_" d="M619,274.8L619,274.8c-0.6,0-1-0.5-1-1v-1.4c0-0.6,0.5-1,1-1l0,0c0.6,0,1,0.5,1,1v1.4
							C620,274.3,619.5,274.8,619,274.8z"/>
					</defs>
					<clipPath id="SVGID_75_">
						<use xlink:href="#SVGID_154_"  style="overflow:visible;"/>
					</clipPath>
					<path class="st215" d="M618.2,274.8L618.2,274.8c-0.6,0-1-0.5-1-1v-1.4c0-0.6,0.5-1,1-1l0,0c0.6,0,1,0.5,1,1v1.4
						C619.2,274.4,618.8,274.8,618.2,274.8z"/>
					<path class="st216" d="M624.7,279L624.7,279c-0.6,0-1-0.5-1-1v-1.4c0-0.6,0.5-1,1-1l0,0c0.6,0,1,0.5,1,1v1.4
						C625.8,278.5,625.3,279,624.7,279z"/>
				</g>
			</g>
			<g>
				<path class="st163" d="M619,293.6L619,293.6c-0.6,0-1-0.5-1-1v-8.1c0-0.6,0.5-1,1-1l0,0c0.6,0,1,0.5,1,1v8.1
					C620,293.2,619.5,293.6,619,293.6z"/>
				<g>
					<defs>
						<path id="SVGID_156_" d="M619,293.6L619,293.6c-0.6,0-1-0.5-1-1v-8.1c0-0.6,0.5-1,1-1l0,0c0.6,0,1,0.5,1,1v8.1
							C620,293.2,619.5,293.6,619,293.6z"/>
					</defs>
					<clipPath id="SVGID_77_">
						<use xlink:href="#SVGID_156_"  style="overflow:visible;"/>
					</clipPath>
					<path class="st217" d="M618.2,293.8L618.2,293.8c-0.6,0-1-0.5-1-1v-8.3c0-0.6,0.5-1,1-1l0,0c0.6,0,1,0.5,1,1v8.3
						C619.2,293.3,618.8,293.8,618.2,293.8z"/>
					<path class="st218" d="M624.7,306.1L624.7,306.1c-0.6,0-1-0.5-1-1V297c0-0.6,0.5-1,1-1l0,0c0.6,0,1,0.5,1,1v8.1
						C625.8,305.7,625.3,306.1,624.7,306.1z"/>
				</g>
			</g>
			<linearGradient id="SVGID_79_" gradientUnits="userSpaceOnUse" x1="581.0295" y1="307.8447" x2="614.1545" y2="276.0947">
				<stop  offset="0.1585" style="stop-color:#20A56D"/>
				<stop  offset="0.2441" style="stop-color:#20A577;stop-opacity:0.9536"/>
				<stop  offset="0.3912" style="stop-color:#20A593;stop-opacity:0.8737"/>
				<stop  offset="0.5585" style="stop-color:#20A5BA;stop-opacity:0.7829"/>
				<stop  offset="1" style="stop-color:#20A5BA;stop-opacity:0"/>
			</linearGradient>
			<path style="opacity:0.39;fill:url(#SVGID_79_);" d="M610.7,264.5L610.7,264.5c-12.3,1-21.1,5.4-21.1,10.6v29.1l21.1,2V264.5z"/>
			<path class="st186" d="M698.2,305.9c1.1-1.3,2.9-3,5.5-3.9c3.4-1.2,5.9-0.1,8.9,0.2c7.4,0.8,9.1-3.9,16.8-4.9
				c8.8-1.1,9,4.7,18.6,4.3c9-0.4,16.9-5.9,21.2-8.9c2.4-1.6,4.2-3.2,5.4-4.3c0,0,1.8,9.5,4.2,11c2.5,1.4,8.3,10,9.3,10.7
				s10.3,9.3,10.3,9.3l13.3,13.2l-52.7-13.7l-53.6-6.5l-13.5-1.8L698.2,305.9z"/>
		</g>
		<polygon class="st309" points="591.4,281.5 566.2,277.5 566.6,284 		"/>
		<polygon class="st156" points="565.7,311.4 591.4,305.1 591.4,281.5 565.7,283.7 		"/>
		<linearGradient id="SVGID_81_" gradientUnits="userSpaceOnUse" x1="565.6834" y1="296.4533" x2="591.375" y2="296.4533">
			<stop  offset="0.361" style="stop-color:#20A5BA"/>
			<stop  offset="0.8829" style="stop-color:#20A5BA;stop-opacity:0"/>
		</linearGradient>
		<polygon style="opacity:0.22;fill:url(#SVGID_81_);" points="565.7,311.4 591.4,305.1 591.4,281.5 565.7,283.7 		"/>
		<g>
			<path class="st156" d="M551.5,185.2L551.5,185.2c-16.6,3.1-28.6,17.6-28.6,34.5v94.5l28.6,6.3V185.2z"/>
			<path class="st161" d="M551.5,185.2l11.5,4.5c2.5,1,4.2,3.4,4.2,6.1v118.3l-15.7,6.3V185.2z"/>
			<linearGradient id="SVGID_82_" gradientUnits="userSpaceOnUse" x1="612.1963" y1="123.6148" x2="539.1213" y2="297.984">
				<stop  offset="0.361" style="stop-color:#20A5BA"/>
				<stop  offset="0.8829" style="stop-color:#20A5BA;stop-opacity:0"/>
			</linearGradient>
			<path class="st223" d="M551.5,185.2l11.5,4.5c2.5,1,4.2,3.4,4.2,6.1v118.3l-15.7,6.3V185.2z"/>
			<g>
				<path class="st163" d="M555.1,231.6h-0.3c-0.7,0-1.2-0.5-1.2-1.2v-33.1c0-0.7,0.5-1.2,1.2-1.2h0.3c0.7,0,1.2,0.5,1.2,1.2v33.1
					C556.3,231.1,555.8,231.6,555.1,231.6z"/>
				<g>
					<defs>
						<path id="SVGID_161_" d="M555.1,231.6h-0.3c-0.7,0-1.2-0.5-1.2-1.2v-33.1c0-0.7,0.5-1.2,1.2-1.2h0.3c0.7,0,1.2,0.5,1.2,1.2
							v33.1C556.3,231.1,555.8,231.6,555.1,231.6z"/>
					</defs>
					<clipPath id="SVGID_83_">
						<use xlink:href="#SVGID_161_"  style="overflow:visible;"/>
					</clipPath>
					<path style="clip-path:url(#SVGID_83_);fill:#2E2866;" d="M554.1,232.1h-0.3c-0.7,0-1.2-0.5-1.2-1.2v-33.5
						c0-0.7,0.5-1.2,1.2-1.2h0.3c0.7,0,1.2,0.5,1.2,1.2v33.5C555.3,231.6,554.8,232.1,554.1,232.1z"/>
					<path style="clip-path:url(#SVGID_83_);fill:#201B52;" d="M562.9,275.3h-0.3c-0.7,0-1.2-0.5-1.2-1.2v-33.1
						c0-0.7,0.5-1.2,1.2-1.2h0.3c0.7,0,1.2,0.5,1.2,1.2v33.1C564.1,274.8,563.6,275.3,562.9,275.3z"/>
				</g>
			</g>
			<g>
				<path class="st163" d="M555.1,305.1h-0.3c-0.7,0-1.2-0.5-1.2-1.2v-16.8c0-0.7,0.5-1.2,1.2-1.2h0.3c0.7,0,1.2,0.5,1.2,1.2v16.8
					C556.3,304.6,555.8,305.1,555.1,305.1z"/>
				<g>
					<defs>
						<path id="SVGID_163_" d="M555.1,305.1h-0.3c-0.7,0-1.2-0.5-1.2-1.2v-16.8c0-0.7,0.5-1.2,1.2-1.2h0.3c0.7,0,1.2,0.5,1.2,1.2
							v16.8C556.3,304.6,555.8,305.1,555.1,305.1z"/>
					</defs>
					<clipPath id="SVGID_84_">
						<use xlink:href="#SVGID_163_"  style="overflow:visible;"/>
					</clipPath>
					<path style="clip-path:url(#SVGID_84_);fill:#2E2866;" d="M554.1,305.4h-0.3c-0.7,0-1.2-0.5-1.2-1.2v-17.1
						c0-0.7,0.5-1.2,1.2-1.2h0.3c0.7,0,1.2,0.5,1.2,1.2v17.1C555.3,304.8,554.8,305.4,554.1,305.4z"/>
					<path style="clip-path:url(#SVGID_84_);fill:#201B52;" d="M562.9,328.7h-0.3c-0.7,0-1.2-0.5-1.2-1.2v-16.8
						c0-0.7,0.5-1.2,1.2-1.2h0.3c0.7,0,1.2,0.5,1.2,1.2v16.8C564.1,328.2,563.6,328.7,562.9,328.7z"/>
				</g>
			</g>
			<g>
				<path class="st163" d="M562.9,239.4h-0.3c-0.7,0-1.2-0.5-1.2-1.2v-2.2c0-0.7,0.5-1.2,1.2-1.2h0.3c0.7,0,1.2,0.5,1.2,1.2v2.2
					C564.1,238.9,563.6,239.4,562.9,239.4z"/>
				<g>
					<defs>
						<path id="SVGID_165_" d="M562.9,239.4h-0.3c-0.7,0-1.2-0.5-1.2-1.2v-2.2c0-0.7,0.5-1.2,1.2-1.2h0.3c0.7,0,1.2,0.5,1.2,1.2v2.2
							C564.1,238.9,563.6,239.4,562.9,239.4z"/>
					</defs>
					<clipPath id="SVGID_85_">
						<use xlink:href="#SVGID_165_"  style="overflow:visible;"/>
					</clipPath>
					<path style="clip-path:url(#SVGID_85_);fill:#2E2866;" d="M561.9,239.5h-0.3c-0.7,0-1.2-0.5-1.2-1.2v-2.2
						c0-0.7,0.5-1.2,1.2-1.2h0.3c0.7,0,1.2,0.5,1.2,1.2v2.2C563.1,239,562.6,239.5,561.9,239.5z"/>
					<path style="clip-path:url(#SVGID_85_);fill:#201B52;" d="M570.7,245.1h-0.3c-0.7,0-1.2-0.5-1.2-1.2v-2.2
						c0-0.7,0.5-1.2,1.2-1.2h0.3c0.7,0,1.2,0.5,1.2,1.2v2.2C571.9,244.5,571.4,245.1,570.7,245.1z"/>
				</g>
			</g>
			<g>
				<path class="st163" d="M562.9,218.5h-0.3c-0.7,0-1.2-0.5-1.2-1.2v-8.6c0-0.7,0.5-1.2,1.2-1.2h0.3c0.7,0,1.2,0.5,1.2,1.2v8.6
					C564.1,217.9,563.6,218.5,562.9,218.5z"/>
				<g>
					<defs>
						<path id="SVGID_167_" d="M562.9,218.5h-0.3c-0.7,0-1.2-0.5-1.2-1.2v-8.6c0-0.7,0.5-1.2,1.2-1.2h0.3c0.7,0,1.2,0.5,1.2,1.2v8.6
							C564.1,217.9,563.6,218.5,562.9,218.5z"/>
					</defs>
					<clipPath id="SVGID_86_">
						<use xlink:href="#SVGID_167_"  style="overflow:visible;"/>
					</clipPath>
					<path style="clip-path:url(#SVGID_86_);fill:#2E2866;" d="M561.9,218.6h-0.3c-0.7,0-1.2-0.5-1.2-1.2v-8.8
						c0-0.7,0.5-1.2,1.2-1.2h0.3c0.7,0,1.2,0.5,1.2,1.2v8.8C563.1,218.1,562.6,218.6,561.9,218.6z"/>
					<path style="clip-path:url(#SVGID_86_);fill:#201B52;" d="M570.7,232.1h-0.3c-0.7,0-1.2-0.5-1.2-1.2v-8.6
						c0-0.7,0.5-1.2,1.2-1.2h0.3c0.7,0,1.2,0.5,1.2,1.2v8.6C571.9,231.5,571.4,232.1,570.7,232.1z"/>
				</g>
			</g>
			<g>
				<path class="st163" d="M562.9,279.6h-0.3c-0.7,0-1.2-0.5-1.2-1.2v-30.6c0-0.7,0.5-1.2,1.2-1.2h0.3c0.7,0,1.2,0.5,1.2,1.2v30.6
					C564.1,279.1,563.6,279.6,562.9,279.6z"/>
				<g>
					<defs>
						<path id="SVGID_169_" d="M562.9,279.6h-0.3c-0.7,0-1.2-0.5-1.2-1.2v-30.6c0-0.7,0.5-1.2,1.2-1.2h0.3c0.7,0,1.2,0.5,1.2,1.2
							v30.6C564.1,279.1,563.6,279.6,562.9,279.6z"/>
					</defs>
					<clipPath id="SVGID_87_">
						<use xlink:href="#SVGID_169_"  style="overflow:visible;"/>
					</clipPath>
					<path style="clip-path:url(#SVGID_87_);fill:#2E2866;" d="M561.9,280h-0.3c-0.7,0-1.2-0.5-1.2-1.2v-31c0-0.7,0.5-1.2,1.2-1.2
						h0.3c0.7,0,1.2,0.5,1.2,1.2v31C563.1,279.5,562.6,280,561.9,280z"/>
					<path style="clip-path:url(#SVGID_87_);fill:#201B52;" d="M570.7,320.2h-0.3c-0.7,0-1.2-0.5-1.2-1.2v-30.6
						c0-0.7,0.5-1.2,1.2-1.2h0.3c0.7,0,1.2,0.5,1.2,1.2V319C571.9,319.6,571.4,320.2,570.7,320.2z"/>
				</g>
			</g>
			<linearGradient id="SVGID_88_" gradientUnits="userSpaceOnUse" x1="561.4241" y1="157.5207" x2="540.9968" y2="250.8124">
				<stop  offset="0.361" style="stop-color:#20A5BA"/>
				<stop  offset="0.8829" style="stop-color:#20A5BA;stop-opacity:0"/>
			</linearGradient>
			<path style="opacity:0.22;fill:url(#SVGID_88_);" d="M551.5,185.2L551.5,185.2c-16.6,3.1-28.6,17.6-28.6,34.5v94.5l28.6,6.3
				V185.2z"/>
		</g>
		<g>
			<polygon class="st156" points="530.9,284 522.1,270.6 522.1,317.7 531.3,315.2 			"/>
			
				<linearGradient id="SVGID_89_" gradientUnits="userSpaceOnUse" x1="431.2625" y1="265.0119" x2="431.4272" y2="303.8866" gradientTransform="matrix(-1.1343 0 0 1 1015.8475 0)">
				<stop  offset="0.361" style="stop-color:#20A5BA"/>
				<stop  offset="0.8829" style="stop-color:#20A5BA;stop-opacity:0"/>
			</linearGradient>
			<polygon style="opacity:0.22;fill:url(#SVGID_89_);" points="530.9,284 522.1,270.6 522.1,317.7 530.9,315.3 			"/>
			<polygon class="st161" points="512,272.7 522.1,270.6 522.1,317.7 512,318.6 			"/>
			
				<linearGradient id="SVGID_90_" gradientUnits="userSpaceOnUse" x1="440.1372" y1="265.3821" x2="439.5316" y2="305.7184" gradientTransform="matrix(-1.1343 0 0 1 1015.8475 0)">
				<stop  offset="0.361" style="stop-color:#20A5BA"/>
				<stop  offset="0.8829" style="stop-color:#20A5BA;stop-opacity:0"/>
			</linearGradient>
			<polygon style="opacity:0.67;fill:url(#SVGID_90_);" points="512,272.7 522.1,270.6 522.1,317.7 512,318.6 			"/>
			<polygon class="st156" points="517.1,263 517.1,318.2 512,318.6 511.7,263 			"/>
			
				<linearGradient id="SVGID_91_" gradientUnits="userSpaceOnUse" x1="441.9491" y1="256.7506" x2="442.1" y2="295.5367" gradientTransform="matrix(-1.1343 0 0 1 1015.8475 0)">
				<stop  offset="0.361" style="stop-color:#20A5BA"/>
				<stop  offset="0.8829" style="stop-color:#20A5BA;stop-opacity:0"/>
			</linearGradient>
			<polygon style="opacity:0.22;fill:url(#SVGID_91_);" points="517.1,263 517.1,318.2 512,318.6 511.7,263 			"/>
			<polygon class="st161" points="494.5,267.2 511.7,263 512,318.6 505.3,317.8 494.6,314.1 			"/>
			
				<linearGradient id="SVGID_92_" gradientUnits="userSpaceOnUse" x1="452.8543" y1="260.1353" x2="451.7642" y2="295.8687" gradientTransform="matrix(-1.1343 0 0 1 1015.8475 0)">
				<stop  offset="0.361" style="stop-color:#20A5BA"/>
				<stop  offset="0.8829" style="stop-color:#20A5BA;stop-opacity:0"/>
			</linearGradient>
			<polyline style="opacity:0.67;fill:url(#SVGID_92_);" points="494.6,314.1 494.5,267.2 511.7,263 512,318.6 			"/>
		</g>
		<g>
			<linearGradient id="SVGID_94_" gradientUnits="userSpaceOnUse" x1="630.1007" y1="292.8571" x2="630.2861" y2="281.7369">
				<stop  offset="0.361" style="stop-color:#593E9C"/>
				<stop  offset="0.4498" style="stop-color:#57489C"/>
				<stop  offset="0.6027" style="stop-color:#52649D"/>
				<stop  offset="0.7998" style="stop-color:#49919E"/>
				<stop  offset="0.9707" style="stop-color:#40BD9F"/>
			</linearGradient>
			<rect x="627.7" y="279.4" style="fill:url(#SVGID_94_);" width="4.6" height="37"/>
			<g>
				<g>
					
						<ellipse transform="matrix(0.9998 -2.101071e-02 2.101071e-02 0.9998 -5.6714 13.2972)" class="st156" cx="630" cy="276.5" rx="8.4" ry="7"/>
				</g>
				<g>
					
						<ellipse transform="matrix(0.9998 -2.101071e-02 2.101071e-02 0.9998 -5.6716 13.29)" class="st157" cx="629.6" cy="276.6" rx="7" ry="6.2"/>
				</g>
				<g>
					<circle class="st158" cx="628.1" cy="276.9" r="3.5"/>
				</g>
				<g>
					<path class="st158" d="M638.5,279l-17.3,0.4c-1.1,0-1.9-0.8-2-1.9l0,0c0-1.1,0.8-1.9,1.9-2l17.3-0.4c1.1,0,1.9,0.8,2,1.9l0,0
						C640.4,278.1,639.5,279,638.5,279z"/>
				</g>
				<g>
					<path class="st156" d="M639.4,280.3l-19.1,0.4c-1.2,0-2.1-0.9-2.1-2.1l0,0c0-1.2,0.9-2.1,2.1-2.1l19.1-0.4
						c1.2,0,2.1,0.9,2.1,2.1l0,0C641.5,279.4,640.6,280.3,639.4,280.3z"/>
				</g>
				<g>
					<path class="st30" d="M620.3,278.8c-0.1,0-0.2-0.2-0.2-0.3c0-0.2,0.1-0.3,0.3-0.3l3.4-0.1c0.2,0,0.3,0.1,0.3,0.3
						c0,0.2-0.1,0.3-0.3,0.3l-3.4,0.1C620.4,278.8,620.3,278.8,620.3,278.8z"/>
				</g>
				<g>
					<path class="st30" d="M625.3,278.7c-0.1,0-0.2-0.2-0.2-0.3c0-0.2,0.1-0.3,0.3-0.3l0.7,0c0.2,0,0.3,0.1,0.3,0.3
						c0,0.2-0.1,0.3-0.3,0.3l-0.7,0C625.4,278.7,625.3,278.7,625.3,278.7z"/>
				</g>
				<g>
					<path class="st30" d="M627.5,278.6c-0.1,0-0.2-0.2-0.2-0.3c0-0.2,0.1-0.3,0.3-0.3l4.8-0.1c0.2,0,0.3,0.1,0.3,0.3
						c0,0.2-0.1,0.3-0.3,0.3l-4.8,0.1C627.6,278.7,627.5,278.7,627.5,278.6z"/>
				</g>
				<g>
					<path class="st30" d="M633.9,278.5c-0.1,0-0.2-0.2-0.2-0.3c0-0.2,0.1-0.3,0.3-0.3l2.1,0c0.2,0,0.3,0.1,0.3,0.3
						c0,0.2-0.1,0.3-0.3,0.3l-2.1,0C634,278.5,634,278.5,633.9,278.5z"/>
				</g>
				<g>
					<path class="st30" d="M637.5,278.4c-0.1,0-0.2-0.2-0.2-0.3c0-0.2,0.1-0.3,0.3-0.3l2,0c0.2,0,0.3,0.1,0.3,0.3
						c0,0.2-0.1,0.3-0.3,0.3l-2,0C637.5,278.5,637.5,278.5,637.5,278.4z"/>
				</g>
				<g>
					<path class="st30" d="M623.3,274.1C623.3,274.1,623.3,274.1,623.3,274.1c-0.1-0.1-0.2-0.2-0.1-0.3c0.3-0.6,0.5-0.9,0.8-1.3
						c0.3-0.4,0.7-0.7,1.1-1c0.1-0.1,0.2,0,0.3,0.1c0.1,0.1,0,0.2,0,0.3c-0.4,0.3-0.8,0.6-1.1,0.9c-0.3,0.3-0.5,0.6-0.8,1.2
						C623.5,274.1,623.4,274.1,623.3,274.1z"/>
				</g>
				<g>
					<circle class="st30" cx="626.3" cy="271.1" r="0.3"/>
				</g>
			</g>
		</g>
		<path class="st335" d="M675.2,279.1v4.1"/>
		<path class="st250" d="M633.1,292.2H633c-1.4,0-2.5-1.1-2.5-2.5v-38.2c0-1.7,1.6-2.9,3.2-2.4l0,0c1,0.3,1.7,1.3,1.7,2.4l0.2,38.2
			C635.6,291.1,634.5,292.2,633.1,292.2z"/>
		<g>
			<path class="st163" d="M587.8,287.1L587.8,287.1c-0.6,0-1-0.5-1-1v-1.4c0-0.6,0.5-1,1-1l0,0c0.6,0,1,0.5,1,1v1.4
				C588.8,286.6,588.4,287.1,587.8,287.1z"/>
			<g>
				<defs>
					<path id="SVGID_184_" d="M587.8,287.1L587.8,287.1c-0.6,0-1-0.5-1-1v-1.4c0-0.6,0.5-1,1-1l0,0c0.6,0,1,0.5,1,1v1.4
						C588.8,286.6,588.4,287.1,587.8,287.1z"/>
				</defs>
				<clipPath id="SVGID_95_">
					<use xlink:href="#SVGID_184_"  style="overflow:visible;"/>
				</clipPath>
				<path style="clip-path:url(#SVGID_95_);fill:#2E2866;" d="M587.1,287.1L587.1,287.1c-0.6,0-1-0.5-1-1v-1.4c0-0.6,0.5-1,1-1l0,0
					c0.6,0,1,0.5,1,1v1.4C588.1,286.6,587.6,287.1,587.1,287.1z"/>
				<path style="clip-path:url(#SVGID_95_);fill:#201B52;" d="M593.6,291.2L593.6,291.2c-0.6,0-1-0.5-1-1v-1.4c0-0.6,0.5-1,1-1l0,0
					c0.6,0,1,0.5,1,1v1.4C594.6,290.8,594.1,291.2,593.6,291.2z"/>
			</g>
		</g>
		<g>
			<path class="st76" d="M497.5,318.7c-0.1,1.4-0.2,3.1-0.5,4.9c-7.1,5.1-18.6,11.3-33.9,12.4c-10.7,0.7-19.8-1.3-26.5-3.7
				c-0.9-1.8-1.6-3.6-2.1-5.5c-3.1-10.8-0.4-22.9,8.1-31.4c12.5-12.6,32.9-12.7,45.5-0.2c6.9,6.9,8.8,15.4,9.2,18.4
				C497.4,313.9,497.6,315.8,497.5,318.7z"/>
		</g>
		<path class="st76" d="M418.3,339.7c17.8,0.3,35.6,0.7,53.3,1"/>
		<path class="st30" d="M441,304.4c-0.3,0.2-0.6,0.2-1,0.1c-0.4-0.2-0.6-0.8-0.3-1.2c2.6-4.7,6.4-8.7,11.1-11.8
			c0.4-0.3,0.9-0.2,1.2,0.2s0.2,0.9-0.2,1.2c-4.5,3-8,6.7-10.5,11.2C441.2,304.2,441.1,304.3,441,304.4z"/>
	</g>
</g>
</svg>
